ply
format ascii 1.0
element vertex 745
property float x
property float y
property float z
property uchar red
property uchar green
property uchar blue
end_header
0 0 0 0 255 0
  0.950843   0.295256 -0.0933932 0 255 0
0.820766 0.321279   2.7741 255 255 255
0.658174 0.465721  2.74499 255 255 255
0.924661 0.300623  2.78198 255 255 255
0.878595 -0.38167  2.93696 255 255 255
0.724862  0.47237  2.73256 255 255 255
0.690387 0.434341  2.75517 255 255 255
0.736226 0.528466  2.70114 255 255 255
  1.01474 -0.328744   2.93123 255 255 255
 0.822465 -0.430364   2.93205 255 255 255
0.827108 0.472762  2.69999 255 255 255
 0.917676 -0.250104    2.9288 255 255 255
 0.920303 -0.423026   2.92482 255 255 255
  1.04287 -0.100232   2.90967 255 255 255
  1.01297 -0.388599   2.92943 255 255 255
 0.975673 -0.274208   2.94018 255 255 255
0.600398 0.502021  2.75776 255 255 255
  0.90977 -0.273288   2.92689 255 255 255
 0.920665 -0.207166   2.91672 255 255 255
  1.02219 -0.354931    2.9326 255 255 255
0.908283 0.370368  2.74062 255 255 255
 0.766882 -0.247842   2.94247 255 255 255
  0.91281 -0.322085   2.93309 255 255 255
0.948402 0.397629  2.75232 255 255 255
 0.842786 -0.374663   2.93306 255 255 255
 0.894109 -0.403008   2.92271 255 255 255
 0.907702 -0.366335   2.93078 255 255 255
  1.00068 -0.352492   2.92907 255 255 255
0.725096 0.413486   2.7456 255 255 255
 0.831871 -0.265401   2.94632 255 255 255
  1.00653 -0.222376   2.93833 255 255 255
0.742984 0.433198  2.75105 255 255 255
 0.827314 -0.285388    2.9493 255 255 255
 0.854378 -0.479406   2.92717 255 255 255
0.530119 0.563118  2.76448 255 255 255
 0.991923 -0.403423   2.93622 255 255 255
 0.924447 -0.308278   2.93391 255 255 255
0.923959 -0.28752  2.93371 255 255 255
   0.798268 -0.00438208     2.94462 255 255 255
 0.900678 -0.340916    2.9362 255 255 255
 0.932374 -0.339031   2.93764 255 255 255
  0.841654 -0.0215152     2.9416 255 255 255
 1.06516 -0.32675  2.94148 255 255 255
 0.896589 -0.423303   2.92271 255 255 255
0.723455 -0.18582  2.96232 255 255 255
  1.03629 -0.116623   2.91881 255 255 255
 0.930856 -0.483495   2.93413 255 255 255
 0.976724 -0.433274    2.9298 255 255 255
0.859256 0.289814  2.76131 255 255 255
 0.984713 -0.418034   2.93366 255 255 255
0.766626 0.459701   2.7065 255 255 255
0.364179 0.572304  2.55833 255 255 255
0.881538 0.361162  2.74675 255 255 255
  0.80257 -0.343996   2.93928 255 255 255
 0.867587 -0.326222   2.93072 255 255 255
 0.56611 0.580682  2.74851 255 255 255
 0.778323 -0.390417   2.93944 255 255 255
  0.66687 -0.191282   2.96289 255 255 255
 0.920042 -0.377814   2.93035 255 255 255
 0.954574 -0.444678   2.93135 255 255 255
   1.0574 -0.439349   2.94441 255 255 255
 0.954429 -0.263652   2.94094 255 255 255
 0.703243 -0.220144   2.95036 255 255 255
0.679269 -0.22761  2.95308 255 255 255
  1.03584 -0.285052   2.94039 255 255 255
  1.02501 -0.313694    2.9383 255 255 255
  0.949583 -0.0561446    2.94692 255 255 255
   0.904001 -0.00549903      2.9447 255 255 255
  0.87177 -0.452366   2.92668 255 255 255
 0.934368 -0.297695   2.93635 255 255 255
 0.991451 -0.366071   2.93309 255 255 255
 0.687154 -0.189427   2.95907 255 255 255
0.739531 -0.22822  2.95241 255 255 255
  1.05936 -0.410509   2.94096 255 255 255
  1.08294 -0.370193   2.93836 255 255 255
 0.812454 -0.288787   2.94569 255 255 255
 0.778526 -0.335913   2.94397 255 255 255
 0.697945 -0.191823    2.9585 255 255 255
   1.0382 -0.305263   2.93627 255 255 255
 0.744399 -0.236508    2.9542 255 255 255
 0.967159 -0.443234   2.93142 255 255 255
  0.92277 -0.430907   2.92688 255 255 255
  0.90503 -0.453158   2.92613 255 255 255
 0.935035 -0.440499   2.93001 255 255 255
  1.14422 -0.381066   2.94544 255 255 255
 0.59225 0.514659    2.754 255 255 255
 0.814079 -0.239717   2.95206 255 255 255
0.916061 0.495829  2.74943 255 255 255
 0.722405 -0.168643   2.95672 255 255 255
 0.898109 -0.493298   2.92966 255 255 255
0.482128 0.618832  2.75258 255 255 255
 0.828587 -0.371865   2.93504 255 255 255
  1.01949 -0.295914   2.93319 255 255 255
0.969864 0.428359  2.74769 255 255 255
  0.783631 -0.0271008    2.94399 255 255 255
0.875753 0.351949  2.74466 255 255 255
 0.921631 -0.361068   2.93134 255 255 255
0.859159  0.27524   2.7551 255 255 255
 0.884231 -0.447883   2.92132 255 255 255
 0.818912 -0.317818   2.94093 255 255 255
  1.09245 -0.402962   2.94117 255 255 255
 0.889768 -0.489679   2.93418 255 255 255
0.964838 0.416947  2.74839 255 255 255
0.849143 0.603454  2.75239 255 255 255
0.802642 0.307307  2.75939 255 255 255
0.611706 0.486778   2.7585 255 255 255
0.661632 0.468094  2.76056 255 255 255
0.103187 0.537185  2.60306 255 255 255
0.384326 0.440235  2.56334 255 255 255
0.842753 0.315879  2.76242 255 255 255
0.0924768  0.483692   2.59558 255 255 255
0.938085 0.446438  2.75066 255 255 255
0.082245 0.493085  2.59725 255 255 255
0.381001  0.48373  2.55569 255 255 255
0.482128 0.618832  2.75258 255 255 255
0.0660483  0.513143   2.59992 255 255 255
 0.309105 -0.403167   2.82143 255 255 255
  0.351036 -0.0774817    2.82094 255 255 255
0.878595 -0.38167  2.93696 255 255 255
 0.861479 -0.252903   2.93512 255 255 255
 0.515231 -0.254437   2.82326 255 255 255
-0.0922724   0.404702     2.9089 255 255 255
 0.632582 -0.457992   2.92684 255 255 255
0.431699  -0.3429  2.82854 255 255 255
 0.909031 -0.475748   2.93759 255 255 255
 0.288291 -0.561526   2.69721 255 255 255
 0.400977 -0.370166    2.8117 255 255 255
 0.756389 -0.310298   2.94742 255 255 255
0.456824 -0.46238   2.7958 255 255 255
 0.484094 -0.357059   2.90182 255 255 255
 0.342016 -0.289391    2.8056 255 255 255
 0.388072 -0.351298   2.80573 255 255 255
 0.510723 -0.438233       2.8 255 255 255
0.616413 0.465291  2.73693 255 255 255
  0.39326 -0.421616    2.8079 255 255 255
0.430826 -0.45236    2.798 255 255 255
 0.822207 -0.011821   2.94416 255 255 255
  0.68807 -0.182127   2.95933 255 255 255
0.0602076 -0.321171   2.82066 255 255 255
-0.0311123    0.41314    2.88139 255 255 255
0.936957 -0.17873  2.91733 255 255 255
 0.52234 -0.34447  2.92361 255 255 255
  0.85491 -0.459562   2.92771 255 255 255
  1.03723 -0.248004   2.93685 255 255 255
  0.57179 -0.414135   2.88928 255 255 255
0.0804173 -0.291714   2.82443 255 255 255
0.132159 0.506288  2.61362 255 255 255
  0.63701 -0.248231   2.94797 255 255 255
0.0481206 -0.336225   2.81337 255 255 255
 0.551311 -0.210213   2.82445 255 255 255
 0.991923 -0.403423   2.93622 255 255 255
 0.143232 -0.429954    2.8221 255 255 255
   1.04819 -0.0286366    2.94145 255 255 255
 0.360955 -0.304715   2.78999 255 255 255
0.930927 0.525458  2.74846 255 255 255
 0.441742 -0.591998   2.70081 255 255 255
 0.655954 -0.181971   2.95856 255 255 255
 0.402605 -0.192154   2.91561 255 255 255
 0.358361 -0.230693   2.80609 255 255 255
 0.576008 -0.493606   2.74895 255 255 255
 0.47789 -0.45831  2.79332 255 255 255
 1.10881 -0.33387  2.93746 255 255 255
 0.574369 -0.458978   2.76817 255 255 255
 0.139792 -0.304164   2.81019 255 255 255
  0.393323 -0.0299842    2.92784 255 255 255
  0.32556 -0.311933   2.80735 255 255 255
0.0969788 -0.290297   2.82704 255 255 255
  0.74551 -0.346342   2.94784 255 255 255
  1.14564 -0.360481   2.95348 255 255 255
 0.225174 -0.273153   2.78828 255 255 255
 1.13389 0.386842  2.85999 255 255 255
0.581254 0.597219  2.74795 255 255 255
 0.570102 -0.507245    2.7336 255 255 255
 0.708424 -0.444967    2.9367 255 255 255
 0.414257 -0.176685   2.92533 255 255 255
  1.02064 -0.253526   2.93499 255 255 255
   1.0499 -0.383462   2.92586 255 255 255
 0.496145 -0.481859   2.77383 255 255 255
 0.365146 -0.565446   2.72636 255 255 255
-0.0195273   0.400671    2.89212 255 255 255
 0.723259 -0.441864   2.93836 255 255 255
0.977802 0.492412  2.75441 255 255 255
 0.112288 -0.606286   2.73487 255 255 255
0.893128 0.376558   2.7418 255 255 255
 0.239641 -0.199792   2.78155 255 255 255
 0.335267 -0.263337   2.80436 255 255 255
  1.07514 -0.373108   2.93816 255 255 255
0.125877 -0.62059  2.73516 255 255 255
0.81151 0.42351  2.7107 255 255 255
 0.285724 -0.417566   2.81064 255 255 255
0.0478331 -0.288559   2.80782 255 255 255
 0.436537 -0.410307   2.81823 255 255 255
0.962779  0.39199  2.74198 255 255 255
  1.14402 -0.162996   2.93467 255 255 255
  1.07006 0.0118648   2.90811 255 255 255
 0.158583 -0.374471     2.808 255 255 255
  0.84726 -0.466091   2.92501 255 255 255
 0.575523 -0.317076   2.93405 255 255 255
0.0977217  -0.55693    2.8018 255 255 255
 0.387891 -0.551781   2.72669 255 255 255
 0.420675 -0.425649   2.81091 255 255 255
 0.711674 -0.272358   2.95058 255 255 255
 0.481329 -0.491923   2.78107 255 255 255
 0.249153 -0.270896   2.79094 255 255 255
   0.206659 -0.00411268     2.93678 255 255 255
 0.454634 -0.405919    2.8128 255 255 255
 0.619019 -0.519411   2.74484 255 255 255
 0.253411 -0.329279   2.79592 255 255 255
 0.381186 -0.344656   2.81115 255 255 255
 0.757448 -0.403329   2.94323 255 255 255
 0.698391 -0.209407   2.94654 255 255 255
 0.561271 -0.519942   2.73872 255 255 255
 0.493372 -0.444465   2.79897 255 255 255
 0.657275 -0.465315   2.91677 255 255 255
 0.483461 -0.371937   2.88485 255 255 255
 0.13529 0.558157  2.61693 255 255 255
 0.541347 -0.237145   2.82366 255 255 255
 0.246111 -0.366057   2.81197 255 255 255
 0.385135 -0.462202   2.74418 255 255 255
0.889887 0.617628  2.72941 255 255 255
 0.313963 -0.406708    2.8087 255 255 255
 0.583374 -0.548284   2.73483 255 255 255
 0.557089 -0.512217    2.7472 255 255 255
0.677299  0.28194  2.63044 255 255 255
 0.681071 -0.462573   2.92336 255 255 255
 0.102121 -0.265226   2.82807 255 255 255
 0.428565 -0.369718   2.81765 255 255 255
 0.790332 -0.339519   2.94129 255 255 255
0.329226 -0.45108  2.75812 255 255 255
 0.640965 -0.502716   2.75847 255 255 255
 0.590108 -0.497108   2.74621 255 255 255
   1.0574 -0.439349   2.94441 255 255 255
 0.731337 -0.238882   2.95727 255 255 255
  0.57439 -0.479043   2.74813 255 255 255
 0.502461 -0.354811   2.91605 255 255 255
 0.948905 -0.378023   2.93315 255 255 255
 0.922896 -0.231303   2.92849 255 255 255
 0.732591 -0.362483   2.94254 255 255 255
 0.233376 -0.364027   2.81019 255 255 255
0.136051 -0.39094  2.81888 255 255 255
 0.472823 -0.162745   2.95305 255 255 255
  0.38147 -0.332704   2.81775 255 255 255
 0.872518 -0.495797   2.93095 255 255 255
0.103396 -0.27783  2.82802 255 255 255
 0.226877 -0.327354   2.79578 255 255 255
 0.861976 -0.492484   2.92749 255 255 255
 0.492288 -0.202583   2.81844 255 255 255
 0.259542 -0.214052   2.80458 255 255 255
 0.348492 -0.263404   2.79853 255 255 255
0.0791346 -0.249612   2.81711 255 255 255
 0.597969 -0.300515   2.94222 255 255 255
0.0706907 -0.591382   2.78988 255 255 255
 1.13056 0.339212  2.92574 255 255 255
   1.1217 -0.305075   2.94121 255 255 255
0.0732271 -0.278144   2.80875 255 255 255
0.489258 -0.23282  2.82236 255 255 255
 0.497532 -0.589553    2.7335 255 255 255
 0.23886 -0.52374  2.72294 255 255 255
 0.542571 -0.339497   2.92044 255 255 255
  0.92277 -0.430907   2.92688 255 255 255
  1.12622 -0.361291   2.94325 255 255 255
0.720399 0.143449  2.59955 255 255 255
0.973586  0.54469  2.73751 255 255 255
 0.311844 -0.380299    2.8086 255 255 255
0.908623 -0.39738  2.92589 255 255 255
 0.500435 -0.450904   2.79331 255 255 255
0.466646 -0.42305  2.80918 255 255 255
 0.409104 -0.459005   2.75905 255 255 255
 0.172285 -0.378186   2.81649 255 255 255
 0.162337 -0.366384    2.8195 255 255 255
 0.583566 -0.504931   2.74656 255 255 255
 0.526883 -0.188196   2.82539 255 255 255
 0.831811 -0.327389   2.92905 255 255 255
 0.461102 -0.164855   2.95629 255 255 255
  1.09412 -0.309191   2.93757 255 255 255
 0.903951 -0.251026   2.90904 255 255 255
0.471885 -0.23729  2.81993 255 255 255
 0.420884 -0.434582   2.80031 255 255 255
 0.635928 -0.432084   2.92854 255 255 255
   1.0548 -0.300106   2.93386 255 255 255
  1.08904 -0.378438   2.94218 255 255 255
 0.906516 -0.215087   2.91048 255 255 255
 0.153302 -0.321254   2.81834 255 255 255
 0.981559 -0.335443   2.92701 255 255 255
0.131674 0.532446  2.61735 255 255 255
0.831398 0.155493  2.59641 255 255 255
 0.366684 -0.245831   2.81242 255 255 255
 0.532678 -0.239406   2.82146 255 255 255
 0.518638 -0.570759   2.74099 255 255 255
 0.377528 -0.366785   2.80541 255 255 255
 0.775153 -0.316298   2.94525 255 255 255
0.402221 -0.49785  2.74078 255 255 255
 0.473181 -0.257049    2.8151 255 255 255
 0.483293 -0.257041   2.81919 255 255 255
 0.536402 -0.255932   2.82583 255 255 255
 0.392985 -0.454848   2.75395 255 255 255
 0.240542 -0.316155   2.79182 255 255 255
  0.92096 -0.181376   2.91534 255 255 255
 0.439911 -0.582344   2.70702 255 255 255
 0.214974 -0.269989   2.78413 255 255 255
 0.514765 -0.240171   2.82269 255 255 255
  0.969673 -0.0764308    2.94408 255 255 255
 0.236193 -0.420375    2.8127 255 255 255
0.849143 0.603454  2.75239 255 255 255
0.672024 0.617571   2.7111 255 255 255
0.774702 0.298561  2.73785 255 255 255
  0.34018 -0.544314   2.72634 255 255 255
 1.14037 0.392709  2.84913 255 255 255
 0.808253 -0.135593   2.91674 255 255 255
 0.123503 -0.527954     2.794 255 255 255
 0.501847 -0.199182   2.82364 255 255 255
 0.132181 -0.522815   2.79481 255 255 255
   1.02961 -0.0194792    2.93769 255 255 255
 0.322541 -0.437266   2.77979 255 255 255
 0.387784 -0.398541   2.81313 255 255 255
 0.266455 -0.413276   2.80711 255 255 255
 0.295006 -0.342384   2.81465 255 255 255
  0.67652 -0.252731   2.94598 255 255 255
 0.407626 -0.208633   2.92562 255 255 255
 0.532372 -0.335623   2.92776 255 255 255
 0.298927 -0.551536   2.70886 255 255 255
 0.701305 -0.182719   2.95582 255 255 255
  0.93669 -0.260687   2.93252 255 255 255
0.531064 0.574177  2.75688 255 255 255
0.990039 0.372029  2.80323 255 255 255
  0.863383 -0.0399299    2.94023 255 255 255
 0.842786 -0.374663   2.93306 255 255 255
   1.01074 -0.0856019     2.9232 255 255 255
    0.901 -0.210525   2.91197 255 255 255
 0.900678 -0.340916    2.9362 255 255 255
0.611706 0.486778   2.7585 255 255 255
 0.707214 0.0157035   2.90969 255 255 255
 0.877965 -0.360399   2.93255 255 255 255
 0.35147 0.408096  2.56317 255 255 255
 0.805167 -0.197039   2.93162 255 255 255
 0.937145 -0.285316   2.93691 255 255 255
0.360432 0.387512  2.56319 255 255 255
 1.10806 0.324222  2.92855 255 255 255
 0.906516 -0.215087   2.91048 255 255 255
 0.98571 0.115906  2.93321 255 255 255
 0.699946 -0.245294   2.94891 255 255 255
 0.722146 -0.279679   2.93752 255 255 255
 0.998037 -0.265836   2.93562 255 255 255
 0.798825 -0.249673    2.9471 255 255 255
 0.743314 -0.284742   2.94712 255 255 255
0.984148 0.435575  2.75491 255 255 255
 0.821348 -0.382244    2.9291 255 255 255
 0.281059 -0.498367   2.75262 255 255 255
 0.252205 -0.456664   2.80854 255 255 255
 0.956342 -0.300503    2.9351 255 255 255
 0.836814 -0.395663   2.93497 255 255 255
 0.714358 -0.159718   2.95789 255 255 255
    1.04982 -0.00403831     2.94295 255 255 255
 0.710934 -0.304135   2.94209 255 255 255
  0.76521 -0.463272   2.92826 255 255 255
 0.259852 -0.420238   2.80564 255 255 255
  0.63701 -0.248231   2.94797 255 255 255
 0.814728 -0.475257   2.92532 255 255 255
 0.775759 -0.480095   2.93248 255 255 255
 0.636226 -0.348905   2.92083 255 255 255
 0.507714 -0.588225   2.73525 255 255 255
0.0260796  -0.55042   2.81818 255 255 255
 0.314103 -0.497953   2.73538 255 255 255
 0.691123 -0.286717   2.95046 255 255 255
  0.63182 -0.177668   2.95447 255 255 255
 0.240321 -0.356569   2.80714 255 255 255
 0.316866 -0.508515   2.73113 255 255 255
 0.614334 -0.336282   2.91454 255 255 255
 0.612724 -0.494685   2.76543 255 255 255
 0.369997 -0.346937   2.81086 255 255 255
 0.657958 -0.277942    2.9342 255 255 255
 0.870341 -0.462578   2.92634 255 255 255
 0.426873 -0.414733   2.81495 255 255 255
0.00961834  -0.550696    2.81996 255 255 255
   1.15223 -0.0958569    2.94557 255 255 255
 0.872518 -0.495797   2.93095 255 255 255
  0.80257 -0.343996   2.93928 255 255 255
 0.575523 -0.317076   2.93405 255 255 255
0.00616932  -0.559823    2.81606 255 255 255
 0.402763 -0.485919   2.74211 255 255 255
 0.778526 -0.335913   2.94397 255 255 255
  1.01874 -0.267875   2.93315 255 255 255
 0.624955 -0.343521   2.90901 255 255 255
 0.487452 -0.476262   2.78398 255 255 255
 0.903951 -0.251026   2.90904 255 255 255
 0.687059 -0.257172   2.94918 255 255 255
0.496802 -0.27243  2.81843 255 255 255
  1.12757 -0.336594   2.93906 255 255 255
 0.702097 -0.331457    2.9405 255 255 255
0.457027 -0.38023  2.82008 255 255 255
 0.361895 -0.407107   2.79259 255 255 255
 0.498235 -0.264415   2.82311 255 255 255
 0.357943 -0.277504    2.8035 255 255 255
 0.670311 -0.442228   2.93106 255 255 255
 0.432008 -0.382945   2.81593 255 255 255
  0.82618 -0.357382   2.93431 255 255 255
 0.827316 -0.473593   2.92535 255 255 255
 0.796943 -0.388342   2.93377 255 255 255
 0.741051 -0.277275   2.94683 255 255 255
 0.770561 -0.495277    2.9243 255 255 255
 0.669304 -0.177777   2.95919 255 255 255
 0.984678 0.0797307   2.94337 255 255 255
 0.805134 -0.444211   2.93078 255 255 255
 0.711798 -0.149868   2.95658 255 255 255
 0.962439 -0.189562   2.92987 255 255 255
  0.964825 -0.0383215    2.94717 255 255 255
 0.218968 -0.166389   2.84094 255 255 255
 0.340251 -0.404959   2.80386 255 255 255
 0.574768 -0.391169   2.89857 255 255 255
  0.39326 -0.421616    2.8079 255 255 255
 0.600213 -0.415085   2.90813 255 255 255
 0.385943 -0.433068   2.78915 255 255 255
-0.276299  0.178475    2.9101 255 255 255
 0.402605 -0.192154   2.91561 255 255 255
0.947181 0.543446  2.74233 255 255 255
0.714544 0.423577  2.75304 255 255 255
 0.452044 -0.508566   2.75038 255 255 255
 0.496509 -0.411949   2.84755 255 255 255
  0.62028 -0.283076   2.93315 255 255 255
 0.589585 -0.337842   2.91487 255 255 255
-0.317567   0.16856   2.90941 255 255 255
 0.516069 -0.268845   2.80794 255 255 255
0.322184 -0.44423  2.76338 255 255 255
 0.527928 -0.225861   2.81918 255 255 255
0.643533 0.301122  2.62623 255 255 255
 0.426873 -0.414733   2.81495 255 255 255
 0.611964 -0.307793   2.91977 255 255 255
-0.272669  0.152116   2.90614 255 255 255
0.966726  0.51988  2.76105 255 255 255
0.501435 -0.43871  2.80318 255 255 255
 0.537575 -0.351357   2.92204 255 255 255
-0.221477   0.32363    2.9071 255 255 255
  0.0951812 -0.00684746      2.9279 255 255 255
 0.351015 -0.297899   2.80494 255 255 255
 0.575231 -0.217475   2.81991 255 255 255
 0.615148 -0.318081   2.92116 255 255 255
 0.515027 -0.287409   2.81541 255 255 255
 0.684518 -0.332058   2.94296 255 255 255
 0.697945 -0.191823    2.9585 255 255 255
0.801457 0.520181  2.70695 255 255 255
 0.778035 -0.132015    2.9306 255 255 255
 0.162337 -0.366384    2.8195 255 255 255
 -0.192953 -0.0225067    2.88838 255 255 255
 0.608888 -0.326432   2.91462 255 255 255
 0.262282 -0.379432   2.82108 255 255 255
0.520068  -0.2596  2.82608 255 255 255
0.595609 0.374545   2.9243 255 255 255
 0.611021 -0.388742   2.91869 255 255 255
 0.238313 -0.266189   2.79013 255 255 255
 0.353433 -0.287981   2.79888 255 255 255
-0.0599103   0.253639    2.91158 255 255 255
 0.464825 -0.397915   2.81831 255 255 255
 0.501847 -0.199182   2.82364 255 255 255
 0.485933 -0.497717   2.76868 255 255 255
 0.921937 0.0312587   2.88265 255 255 255
 0.999486 -0.301753   2.92288 255 255 255
0.0692032  -0.45591   2.81068 255 255 255
 0.603291 -0.534022   2.73702 255 255 255
 0.556013 -0.468948   2.73781 255 255 255
-0.189878 -0.079014   2.90387 255 255 255
0.844358  -0.1525  2.93393 255 255 255
0.690387 0.434341  2.75517 255 255 255
 0.631331 -0.404792    2.9355 255 255 255
0.839097 0.432668  2.69966 255 255 255
 0.648204 -0.224736   2.95968 255 255 255
0.0349247 -0.466896   2.79463 255 255 255
-0.0640052  -0.388634    2.80135 255 255 255
0.0108204 -0.588346   2.79517 255 255 255
 0.288291 -0.561526   2.69721 255 255 255
 1.12639 0.374363  2.87723 255 255 255
0.477599 -0.40497  2.83379 255 255 255
0.809211 0.403645  2.72375 255 255 255
-0.0416005  -0.429348    2.79149 255 255 255
-0.0436576  -0.343498    2.81018 255 255 255
-0.111652 -0.374398   2.80825 255 255 255
0.00869252  -0.291177    2.80872 255 255 255
-0.0622599  -0.357382     2.8002 255 255 255
-0.0370845  -0.320038    2.80485 255 255 255
-0.0702773   -0.33798     2.8053 255 255 255
-0.258415   0.28259   2.91441 255 255 255
0.254503 -0.51346  2.74338 255 255 255
 0.432779 -0.172763   2.93824 255 255 255
-0.0327194  -0.448829    2.79494 255 255 255
0.917729 -0.15677   2.8999 255 255 255
-0.0453373  -0.371993    2.80517 255 255 255
 0.731138 -0.378921   2.94694 255 255 255
 0.351943 -0.537354   2.72961 255 255 255
-0.0465391  -0.467752    2.80573 255 255 255
0.0114763 -0.532032   2.81301 255 255 255
  -0.190655 -0.00122008     2.87381 255 255 255
-0.0156857  -0.297887    2.80511 255 255 255
0.877589 0.533277  2.75283 255 255 255
 0.574369 -0.458978   2.76817 255 255 255
-0.0521796  -0.411547    2.79082 255 255 255
 0.738359 -0.511939   2.91015 255 255 255
-0.0804034  -0.400423    2.79214 255 255 255
 1.12038 0.508105  2.81906 255 255 255
 -0.22588 -0.101847   2.90424 255 255 255
 0.362836 -0.320649   2.79928 255 255 255
0.347178 -0.23939  2.80426 255 255 255
   1.0499 -0.383462   2.92586 255 255 255
 0.301077 -0.412242   2.80954 255 255 255
 0.896589 -0.423303   2.92271 255 255 255
 0.202096 -0.341702   2.79131 255 255 255
 0.655799 -0.527937   2.74912 255 255 255
-0.0106009  -0.282248    2.80238 255 255 255
  1.00239 -0.370229   2.93458 255 255 255
 0.078937 0.0138961   2.93255 255 255 255
 0.878065 -0.471681   2.92589 255 255 255
-0.0311967  -0.379609    2.80002 255 255 255
 1.01078 0.484496  2.75614 255 255 255
 0.315479 -0.321678   2.80551 255 255 255
  0.27602 -0.420809   2.80678 255 255 255
  0.27602 -0.420809   2.80678 255 255 255
  0.38147 -0.332704   2.81775 255 255 255
  0.20342 -0.276887    2.7828 255 255 255
 0.285714 -0.524048   2.72777 255 255 255
-0.0523582  -0.500281    2.81726 255 255 255
 0.963972 -0.212576   2.93715 255 255 255
-0.0303593  -0.442573    2.79333 255 255 255
0.0120563 -0.453195   2.80259 255 255 255
-0.00663717   -0.414907     2.79941 255 255 255
0.0725078 -0.256213   2.81032 255 255 255
-0.0523325  -0.399405    2.79594 255 255 255
 0.525421 -0.511527   2.76731 255 255 255
-0.0419906  -0.394118     2.7983 255 255 255
 0.756882 -0.158122    2.9392 255 255 255
 0.184335 -0.272159   2.79879 255 255 255
0.0324829 -0.480007    2.7866 255 255 255
-0.0123633  -0.404615      2.791 255 255 255
-0.23783 0.325898   2.9077 255 255 255
 0.751424 -0.455284   2.93786 255 255 255
0.0807465 -0.315189   2.82556 255 255 255
  0.70426 -0.320107   2.94618 255 255 255
0.0375696 -0.474696   2.79099 255 255 255
  0.90503 -0.453158   2.92613 255 255 255
 0.443137 -0.534745   2.72291 255 255 255
 0.341872 -0.523067   2.73824 255 255 255
 0.998215 -0.234932   2.93525 255 255 255
-0.0215739   -0.28451    2.79581 255 255 255
-0.386196   0.31323   2.90677 255 255 255
0.996935 0.489761  2.74483 255 255 255
-0.0254597  -0.332366    2.80802 255 255 255
 0.836651 -0.320443   2.93399 255 255 255
-0.0748098  -0.352276    2.80381 255 255 255
  1.11722 -0.416195   2.94357 255 255 255
0.330678 0.406572   2.5656 255 255 255
0.248807 -0.60745  2.70485 255 255 255
   1.0017 -0.251301   2.93807 255 255 255
 0.970189 -0.309476   2.93256 255 255 255
  1.02333 -0.278919   2.92473 255 255 255
  0.79246 -0.289369   2.94361 255 255 255
 0.942418 -0.455108   2.93157 255 255 255
 0.932336 -0.448219   2.93318 255 255 255
0.829238 0.162031  2.59523 255 255 255
 0.979622 -0.159631   2.89056 255 255 255
0.930927 0.525458  2.74846 255 255 255
  0.938863 -0.0658861    2.94533 255 255 255
0.829937 0.486477  2.70528 255 255 255
 1.05261 -0.33705  2.93603 255 255 255
 0.888577 -0.456991   2.92239 255 255 255
 0.790332 -0.339519   2.94129 255 255 255
0.0373954 -0.416049    2.7993 255 255 255
0.0373954 -0.416049    2.7993 255 255 255
 0.669693 -0.315524   2.94661 255 255 255
 0.123838 -0.500722   2.80835 255 255 255
 0.352303 -0.591581    2.6985 255 255 255
 0.539114 -0.416814   2.85888 255 255 255
0.0853124 -0.370674   2.81508 255 255 255
0.00838233  -0.567272    2.81757 255 255 255
  0.387709 -0.0120258    2.93492 255 255 255
0.0637752 0.0540281   2.92251 255 255 255
  1.05678 -0.289063   2.93203 255 255 255
 0.814728 -0.475257   2.92532 255 255 255
 0.85293 0.365264  2.74114 255 255 255
0.612518  -0.3017  2.91889 255 255 255
 0.727411 -0.530509   2.89656 255 255 255
  0.17979 -0.361664   2.81114 255 255 255
-0.0780131  -0.366643     2.8075 255 255 255
 1.06516 -0.32675  2.94148 255 255 255
  0.211906 -0.0913634    2.86006 255 255 255
 0.790967 -0.514372   2.92441 255 255 255
0.0285321 -0.465223   2.79154 255 255 255
 0.852555 -0.363042   2.92761 255 255 255
 0.554536 -0.336652   2.92131 255 255 255
 0.821607 -0.513426   2.93113 255 255 255
-0.182286 0.0395925   2.90781 255 255 255
 0.963972 -0.212576   2.93715 255 255 255
 0.200798 -0.614236   2.71697 255 255 255
 0.940503 -0.431863   2.92799 255 255 255
0.0671263 -0.397492   2.80956 255 255 255
 0.129248 -0.229166   2.79209 255 255 255
 0.124072 -0.396487   2.82567 255 255 255
 0.451879 -0.554745   2.69433 255 255 255
-0.0588121  -0.346908     2.8033 255 255 255
 0.512372 -0.174405   2.81772 255 255 255
  1.15548 -0.364439   2.94488 255 255 255
 0.293047 -0.487304    2.7392 255 255 255
 0.325949 -0.588914   2.69754 255 255 255
0.0606399 -0.484586   2.80896 255 255 255
0.712164  0.38482  2.74459 255 255 255
 0.649686 -0.388246   2.92391 255 255 255
 0.621542 -0.262247    2.9491 255 255 255
 0.874822 -0.132335   2.94366 255 255 255
0.830881 -0.43366  2.92857 255 255 255
 0.309105 -0.403167   2.82143 255 255 255
 0.220135 -0.119985   2.84004 255 255 255
 0.86196 0.475243  2.70705 255 255 255
-0.0173783   -0.34535    2.80564 255 255 255
 0.111215 -0.355102    2.8191 255 255 255
-0.0858546  -0.351667    2.81004 255 255 255
 0.333712 -0.567282   2.69471 255 255 255
 0.718749 -0.514844   2.90388 255 255 255
0.760954 0.194594  2.65735 255 255 255
 0.466671 -0.545867   2.69984 255 255 255
 0.752544 -0.504743   2.90748 255 255 255
 0.419757 -0.558983   2.72126 255 255 255
0.0400534 -0.465298   2.79527 255 255 255
0.0462944 -0.525921   2.81332 255 255 255
0.822409 0.408382  2.70493 255 255 255
 0.249153 -0.270896   2.79094 255 255 255
-0.0311967  -0.379609    2.80002 255 255 255
 0.149357 -0.366348   2.82024 255 255 255
-0.0392731 0.00851515    2.92061 255 255 255
  1.05876 0.0200538   2.93153 255 255 255
 0.172928 -0.537929   2.75884 255 255 255
-0.0822783  -0.313795    2.81593 255 255 255
 0.433655 -0.550612   2.71236 255 255 255
-0.184601 0.0501478   2.90263 255 255 255
 0.200798 -0.614236   2.71697 255 255 255
0.0805305 -0.305489   2.82448 255 255 255
 0.513622 -0.384188   2.88659 255 255 255
0.0603363 -0.408257   2.80696 255 255 255
 -0.165829 -0.0765712    2.91287 255 255 255
 1.04207 0.148948  2.62173 255 255 255
0.0375696 -0.474696   2.79099 255 255 255
-0.0603483  -0.193676    2.70652 255 255 255
-0.0201325  -0.319038    2.80452 255 255 255
 0.274565 -0.485538   2.75619 255 255 255
  0.783631 -0.0271008    2.94399 255 255 255
 0.633283 -0.505137   2.75857 255 255 255
 0.120211 -0.330122   2.82513 255 255 255
 0.883874 -0.113927   2.91886 255 255 255
 0.739684 -0.388617   2.93822 255 255 255
0.613123 0.444305  2.72446 255 255 255
-0.151711  0.508925   2.61427 255 255 255
-0.278871  0.465543   2.56185 255 255 255
-0.148404  0.516303   2.61494 255 255 255
-0.0245738   0.432462    2.88637 255 255 255
 0.344766 -0.448923   2.76579 255 255 255
0.00337599   0.431363    2.89247 255 255 255
-0.139411  0.508759   2.61613 255 255 255
-0.320729  0.283507   2.87146 255 255 255
 0.853758 -0.325842   2.93224 255 255 255
 0.674115 -0.380536   2.92713 255 255 255
 0.186937 -0.537761   2.75177 255 255 255
-0.057689  0.469303   2.91129 255 255 255
-0.00789931    -0.60828     2.81412 255 255 255
0.248807 -0.60745  2.70485 255 255 255
 1.10881 -0.33387  2.93746 255 255 255
 0.801233 -0.490454   2.92795 255 255 255
  0.212618 -0.0634099    2.84485 255 255 255
-0.0102205    0.44676     2.8767 255 255 255
0.00303002   0.462087    2.87139 255 255 255
-0.0651103  -0.317307    2.79472 255 255 255
-0.0638224   0.476767    2.90927 255 255 255
 0.523241 -0.490222   2.75204 255 255 255
  0.22103 -0.395077     2.795 255 255 255
-0.203963  0.313915   2.90693 255 255 255
0.0430446 -0.565743   2.81366 255 255 255
 0.220562 -0.461297   2.78754 255 255 255
0.137113 0.538837  2.61947 255 255 255
 0.654039 -0.447375   2.93755 255 255 255
 0.123503 -0.527954     2.794 255 255 255
 0.447664 -0.249682   2.81274 255 255 255
-0.100882   0.39147   2.91027 255 255 255
 0.507437 -0.183389   2.81529 255 255 255
-0.101723  0.382455   2.90437 255 255 255
 0.285714 -0.524048   2.72777 255 255 255
 0.744399 -0.236508    2.9542 255 255 255
 0.929726 -0.123427   2.90027 255 255 255
 1.11375 0.340932  2.92229 255 255 255
0.082801 0.426188  2.92618 255 255 255
  0.3501 0.422062  2.57335 255 255 255
0.106451 0.501372   2.5992 255 255 255
  1.15543 -0.378441   2.94077 255 255 255
 0.461433 -0.460586   2.79947 255 255 255
  0.403469 -0.0400915     2.9237 255 255 255
 0.462739 -0.154078   2.96082 255 255 255
0.431625 -0.48649  2.75826 255 255 255
  0.2431 -0.45464  2.77558 255 255 255
0.955998 0.554177  2.73245 255 255 255
 0.869448 -0.154413   2.92932 255 255 255
0.375735 0.554189  2.55846 255 255 255
0.814361 0.525621  2.71062 255 255 255
0.656255 0.537283  2.74357 255 255 255
0.703571 0.554473  2.70165 255 255 255
 0.314361 -0.419235   2.80226 255 255 255
0.588957 0.561833  2.74438 255 255 255
0.785348 0.521263  2.70582 255 255 255
0.824381  0.38573  2.73164 255 255 255
0.0997475  0.467923   2.59724 255 255 255
 0.235077 -0.152127   2.85209 255 255 255
 0.308868 -0.610741   2.70644 255 255 255
 0.892064 -0.114959   2.92203 255 255 255
 0.971723 -0.109555   2.89469 255 255 255
 1.09669 -0.22893  2.77162 255 255 255
0.0129531  -0.28121   2.80423 255 255 255
0.489699 -0.28239  2.80834 255 255 255
0.0634374 -0.494042   2.80183 255 255 255
 -0.131341 -0.0262512    2.90563 255 255 255
 0.300236 -0.274116   2.79778 255 255 255
0.0554949 -0.345807    2.8165 255 255 255
 0.302187 -0.431478    2.7926 255 255 255
0.109209  0.54357  2.60691 255 255 255
-0.184219  0.369998   2.89742 255 255 255
0.0894133  0.503121    2.5935 255 255 255
0.316899 0.435755  2.57264 255 255 255
-0.0210566   -0.39335    2.80412 255 255 255
-0.0619775   0.271282    2.91089 255 255 255
-0.227726  0.455244   2.60949 255 255 255
0.347229 -0.16716  2.81153 255 255 255
0.508569 0.422389  2.92922 255 255 255
0.871202 0.625045  2.73214 255 255 255
0.0140756  -0.29472   2.80303 255 255 255
0.916977 0.485384  2.74718 255 255 255
 0.714358 -0.159718   2.95789 255 255 255
 0.858105 -0.125567   2.89187 255 255 255
0.917514 0.382984  2.74521 255 255 255
 0.976724 -0.433274    2.9298 255 255 255
 -0.0608954 -0.00480099      2.9136 255 255 255
  0.930349 0.00157071    2.94254 255 255 255
0.0667214  0.424262   2.92595 255 255 255
0.0820129 -0.579033   2.77034 255 255 255
 0.146051 -0.221389   2.80426 255 255 255
   0.3923 -0.498229   2.74138 255 255 255
 -0.214124 -0.0440533    2.90715 255 255 255
0.602513 0.577466  2.74823 255 255 255
-0.0933723 -0.0642103      2.914 255 255 255
0.0958199  0.549471   2.60599 255 255 255
 0.976172 -0.364368    2.9306 255 255 255
 0.721563 -0.468682   2.92696 255 255 255
-0.219829 -0.178036    2.9083 255 255 255
0.818107 0.169014  2.58857 255 255 255
