ply
format ascii 1.0
element vertex 745
property float x
property float y
property float z
property uchar red
property uchar green
property uchar blue
end_header
  0.0044352  0.00537603 -0.00838746 0 255 0
0.944813  0.29161 -0.10298 0 255 0
0.821849 0.323339  2.77856 255 255 255
0.658429 0.468161  2.74757 255 255 255
0.926299 0.302616  2.78728 255 255 255
 0.881022 -0.383466   2.94749 255 255 255
0.725332 0.474905  2.73529 255 255 255
0.690803 0.436691  2.75818 255 255 255
0.736661 0.531012   2.7031 255 255 255
  1.01796 -0.330242   2.94199 255 255 255
  0.82459 -0.432435   2.94252 255 255 255
 0.82794 0.475203  2.70263 255 255 255
0.920182 -0.25102  2.93884 255 255 255
0.922991 -0.42506  2.93538 255 255 255
  1.04597 -0.100279   2.91944 255 255 255
  1.01623 -0.390469   2.94035 255 255 255
 0.978606 -0.275355   2.95079 255 255 255
0.600445 0.504551  2.76018 255 255 255
 0.912246 -0.274346   2.93693 255 255 255
 0.923115 -0.207821   2.92631 255 255 255
  1.02548 -0.356583   2.94354 255 255 255
0.909659 0.372643  2.74488 255 255 255
 0.768537 -0.248745   2.95228 255 255 255
 0.915374 -0.323494   2.94343 255 255 255
0.950004 0.400005  2.75701 255 255 255
  0.84498 -0.376378   2.94338 255 255 255
 0.896611 -0.404897   2.93305 255 255 255
 0.910271 -0.368012   2.94122 255 255 255
  1.00382 -0.354128    2.9398 255 255 255
0.725637 0.415818  2.74872 255 255 255
 0.833925 -0.266434   2.95649 255 255 255
 1.00961 -0.22316  2.94895 255 255 255
0.743597  0.43559   2.7543 255 255 255
 0.829372 -0.286581   2.95957 255 255 255
 0.856732 -0.481814    2.9378 255 255 255
0.529904 0.565799  2.76653 255 255 255
 0.995082 -0.405426   2.94722 255 255 255
 0.927071 -0.309603   2.94427 255 255 255
 0.926558 -0.288706     2.944 255 255 255
   0.799888 -0.00385029     2.95365 255 255 255
 0.903194 -0.342439   2.94665 255 255 255
0.935089 -0.34057  2.94822 255 255 255
  0.843534 -0.0211164    2.95077 255 255 255
 1.06875 -0.32832   2.9527 255 255 255
 0.899128 -0.425337   2.93313 255 255 255
 0.724844 -0.186349   2.97224 255 255 255
  1.03939 -0.116785   2.92878 255 255 255
 0.933702 -0.485984   2.94517 255 255 255
 0.979795 -0.435436    2.9407 255 255 255
 0.86051 0.291763  2.76583 255 255 255
 0.987833 -0.420126   2.94462 255 255 255
0.767226 0.462126  2.70895 255 255 255
0.363563 0.574325  2.55584 255 255 255
0.882811 0.363355  2.75094 255 255 255
 0.804508 -0.345496   2.94953 255 255 255
 0.869874 -0.327622   2.94088 255 255 255
0.565985 0.583407  2.75035 255 255 255
 0.780175 -0.392267   2.94978 255 255 255
 0.667955 -0.191859   2.97269 255 255 255
   0.9227 -0.379582   2.94086 255 255 255
 0.957521 -0.446911   2.94225 255 255 255
 1.06106 -0.44166  2.95602 255 255 255
 0.957215 -0.264711   2.95145 255 255 255
 0.704531 -0.220868   2.96009 255 255 255
 0.680434 -0.228378   2.96286 255 255 255
  1.03918 -0.286294   2.95134 255 255 255
   1.0283 -0.315111   2.94923 255 255 255
  0.952158 -0.0559481    2.95688 255 255 255
   0.906243 -0.00500678     2.95421 255 255 255
 0.874198 -0.454591   2.93724 255 255 255
  0.93705 -0.298963   2.94677 255 255 255
 0.994557 -0.367807   2.94391 255 255 255
 0.688337 -0.189956   2.96886 255 255 255
  0.74103 -0.229004    2.9623 255 255 255
    1.063 -0.412609   2.95241 255 255 255
  1.08668 -0.372044   2.94973 255 255 255
 0.814415 -0.289965   2.95587 255 255 255
 0.780329 -0.337371   2.95423 255 255 255
  0.69919 -0.192377    2.9683 255 255 255
  1.04157 -0.306644   2.94718 255 255 255
 0.745937 -0.237349   2.96419 255 255 255
 0.970183 -0.445455   2.94237 255 255 255
 0.925488 -0.433007   2.93752 255 255 255
 0.907661 -0.455404   2.93678 255 255 255
 0.937849 -0.442681    2.9408 255 255 255
  1.14845 -0.383046   2.95736 255 255 255
0.592257 0.517214  2.75628 255 255 255
 0.816015 -0.240585   2.96222 255 255 255
0.917412 0.498596  2.75369 255 255 255
0.723765 -0.16906  2.96643 255 255 255
0.900749 -0.49583  2.94052 255 255 255
0.481733 0.621599  2.75399 255 255 255
   0.8307 -0.373567   2.94534 255 255 255
   1.0227 -0.297208   2.94392 255 255 255
0.971542 0.430907  2.75244 255 255 255
  0.785188 -0.0266968    2.95302 255 255 255
0.876997 0.354117   2.7488 255 255 255
 0.924283 -0.362724   2.94182 255 255 255
0.860416 0.277072  2.75948 255 255 255
 0.886717 -0.450069   2.93176 255 255 255
 0.820928 -0.319177   2.95113 255 255 255
   1.0963 -0.405038   2.95277 255 255 255
 0.892363 -0.492187   2.94513 255 255 255
  0.9665 0.419432  2.75312 255 255 255
0.850101 0.606551  2.75602 255 255 255
0.803624 0.309256  2.76345 255 255 255
0.611803 0.489268  2.76104 255 255 255
0.661926 0.470542  2.76344 255 255 255
0.102166 0.539143  2.60107 255 255 255
0.383797 0.442073   2.5615 255 255 255
0.843924 0.317843  2.76672 255 255 255
0.0914418  0.485566   2.59374 255 255 255
0.939592 0.449002  2.75516 255 255 255
0.0811886  0.494982    2.5954 255 255 255
0.380457 0.485595  2.55351 255 255 255
0.481733 0.621599  2.75399 255 255 255
0.0649664  0.515064     2.598 255 255 255
 0.308403 -0.404692   2.82939 255 255 255
  0.350493 -0.0772379    2.82667 255 255 255
 0.881022 -0.383466   2.94749 255 255 255
 0.863668 -0.253842   2.94509 255 255 255
  0.51548 -0.255103      2.83 255 255 255
-0.0947595   0.407068    2.91416 255 255 255
 0.633622 -0.460127   2.93718 255 255 255
 0.431611 -0.344111   2.83592 255 255 255
 0.911741 -0.478179   2.94862 255 255 255
 0.287648 -0.563731    2.7035 255 255 255
 0.400749 -0.371479   2.81894 255 255 255
 0.758049 -0.311599    2.9576 255 255 255
 0.456905 -0.464203   2.80315 255 255 255
 0.484262 -0.358497   2.91098 255 255 255
 0.341497 -0.290249   2.81229 255 255 255
0.387776 -0.35248  2.81275 255 255 255
 0.511047 -0.439901   2.80725 255 255 255
0.616512  0.46769  2.73914 255 255 255
 0.392995 -0.423191   2.81547 255 255 255
  0.43077 -0.454115   2.80541 255 255 255
  0.823968 -0.0113337    2.95331 255 255 255
 0.689255 -0.182629   2.96907 255 255 255
0.0582343 -0.322419   2.82883 255 255 255
-0.0332601   0.415493    2.88587 255 255 255
 0.939482 -0.179232   2.92691 255 255 255
  0.52272 -0.345914   2.93314 255 255 255
 0.857246 -0.461824   2.93829 255 255 255
  1.04053 -0.249005   2.94761 255 255 255
  0.57245 -0.415915   2.89841 255 255 255
0.0785713  -0.29278   2.83235 255 255 255
0.131159 0.508243    2.612 255 255 255
  0.63796 -0.249135   2.95763 255 255 255
0.0460847 -0.337561   2.82157 255 255 255
 0.551699 -0.210649     2.831 255 255 255
 0.995082 -0.405426   2.94722 255 255 255
 0.14167 -0.43185  2.83078 255 255 255
   1.05137 -0.0282909    2.95181 255 255 255
 0.360533 -0.305609    2.7964 255 255 255
 0.93233 0.528378  2.75279 255 255 255
 0.441803 -0.594258   2.70696 255 255 255
 0.656961 -0.182457   2.96822 255 255 255
 0.402293 -0.192647   2.92413 255 255 255
 0.357906 -0.231234   2.81239 255 255 255
 0.576643 -0.495435   2.75533 255 255 255
 0.478071 -0.460094   2.80056 255 255 255
   1.1127 -0.335495   2.94885 255 255 255
 0.574983 -0.460654    2.7748 255 255 255
 0.138284 -0.305226   2.81765 255 255 255
  0.392908 -0.0295913     2.9357 255 255 255
  0.32497 -0.312937   2.81425 255 255 255
0.0952138 -0.291338   2.83495 255 255 255
 0.747142 -0.347883   2.95815 255 255 255
  1.14989 -0.362361   2.96553 255 255 255
 0.224123 -0.273911   2.79477 255 255 255
 1.13704 0.389571  2.86858 255 255 255
0.581168 0.599995   2.7498 255 255 255
 0.570697 -0.509065   2.73978 255 255 255
 0.709912 -0.447122   2.94715 255 255 255
 0.414006 -0.177134   2.93394 255 255 255
  1.02383 -0.254548   2.94564 255 255 255
 1.05339 -0.38535   2.9368 255 255 255
 0.496413 -0.483702   2.78078 255 255 255
 0.364844 -0.567714   2.73307 255 255 255
-0.0216569   0.402976    2.89687 255 255 255
 0.724826 -0.443984   2.94889 255 255 255
0.979502 0.495224  2.75925 255 255 255
 0.110652 -0.609196   2.74313 255 255 255
0.894429 0.378838  2.74596 255 255 255
 0.238668 -0.200126   2.78737 255 255 255
 0.334698 -0.264008   2.81092 255 255 255
  1.07884 -0.374954   2.94952 255 255 255
 0.124332 -0.623622   2.74342 255 255 255
0.812334 0.425818  2.71357 255 255 255
 0.284945 -0.419235   2.81843 255 255 255
0.0458268  -0.28955   2.81555 255 255 255
 0.436494 -0.411877   2.82581 255 255 255
0.964427 0.394375  2.74662 255 255 255
  1.14798 -0.163495   2.94584 255 255 255
  1.07323 0.0124405   2.91773 255 255 255
  0.15716 -0.375965   2.81585 255 255 255
 0.849553 -0.468403   2.93551 255 255 255
 0.576176 -0.318369   2.94368 255 255 255
0.0958724 -0.559732   2.81126 255 255 255
 0.387693 -0.553949   2.73325 255 255 255
 0.420559 -0.427286   2.81846 255 255 255
 0.713051 -0.273402   2.96057 255 255 255
 0.481536 -0.493858   2.78826 255 255 255
0.248216 -0.27165  2.79739 255 255 255
  0.205335 -0.0036142    2.94482 255 255 255
 0.454676 -0.407439    2.8202 255 255 255
 0.619858 -0.521358   2.75128 255 255 255
 0.252488 -0.330384   2.80286 255 255 255
 0.380854 -0.345817   2.81827 255 255 255
 0.759194 -0.405244    2.9537 255 255 255
 0.699638 -0.210064   2.95611 255 255 255
 0.561851 -0.521896   2.74503 255 255 255
 0.493615 -0.446168   2.80626 255 255 255
 0.658462 -0.467523   2.92683 255 255 255
 0.483637 -0.373444   2.89367 255 255 255
0.134287 0.560212  2.61512 255 255 255
 0.541704 -0.237715   2.83033 255 255 255
 0.245134 -0.367437   2.81953 255 255 255
 0.384888 -0.463873   2.75055 255 255 255
0.890967   0.6208  2.73292 255 255 255
 0.313328 -0.408288   2.81629 255 255 255
0.584067 -0.55038  2.74121 255 255 255
 0.557645 -0.514137   2.75367 255 255 255
0.677594   0.2836  2.63139 255 255 255
 0.682396 -0.464787   2.93358 255 255 255
0.100383 -0.26609  2.83581 255 255 255
 0.428469 -0.371044   2.82498 255 255 255
0.792203 -0.34101  2.95151 255 255 255
 0.328705 -0.452753   2.76487 255 255 255
 0.641904 -0.504606   2.76512 255 255 255
 0.590805 -0.498944   2.75255 255 255 255
 1.06106 -0.44166  2.95602 255 255 255
 0.732808 -0.239742   2.96731 255 255 255
 0.575002 -0.480766   2.75444 255 255 255
 0.502737 -0.356296   2.92548 255 255 255
 0.951752 -0.379817   2.94383 255 255 255
 0.925418 -0.232133   2.93844 255 255 255
 0.734155 -0.364115   2.95277 255 255 255
 0.232341 -0.365407   2.81774 255 255 255
 0.134471 -0.392572   2.82722 255 255 255
 0.472852 -0.163117   2.96227 255 255 255
 0.381145 -0.333843    2.8249 255 255 255
 0.875009 -0.498342   2.94178 255 255 255
 0.101672 -0.278797   2.83582 255 255 255
  0.22583 -0.328471   2.80278 255 255 255
 0.864389 -0.494981   2.93821 255 255 255
 0.492407 -0.202971   2.82478 255 255 255
 0.258637 -0.214515   2.81093 255 255 255
 0.348004 -0.264105   2.80488 255 255 255
0.0773047 -0.250372   2.82459 255 255 255
 0.598736 -0.301718   2.95198 255 255 255
 0.068693 -0.594475   2.79948 255 255 255
 1.13398 0.341721  2.93574 255 255 255
  1.12566 -0.306516    2.9527 255 255 255
0.0713713 -0.279068   2.81628 255 255 255
 0.489373 -0.233354   2.82898 255 255 255
 0.497863 -0.591939   2.74017 255 255 255
 0.237938 -0.525824   2.72974 255 255 255
 0.543053 -0.340896   2.92987 255 255 255
 0.925488 -0.433007   2.93752 255 255 255
  1.13029 -0.363111   2.95497 255 255 255
0.720889 0.144665   2.6005 255 255 255
0.975173  0.54769  2.74193 255 255 255
 0.311192 -0.381709   2.81602 255 255 255
 0.911216 -0.399251   2.93633 255 255 255
 0.500716 -0.452632   2.80049 255 255 255
 0.466751 -0.424654    2.8166 255 255 255
  0.40896 -0.460692   2.76567 255 255 255
 0.170916 -0.379707   2.82452 255 255 255
  0.16091 -0.367841   2.82754 255 255 255
 0.584236 -0.506803   2.75297 255 255 255
 0.527144 -0.188501   2.83185 255 255 255
 0.833888 -0.328804   2.93902 255 255 255
 0.461075 -0.165254   2.96559 255 255 255
  1.09788 -0.310626   2.94883 255 255 255
 0.906324 -0.251934   2.91853 255 255 255
 0.471931 -0.237866    2.8265 255 255 255
 0.420781 -0.436259   2.80766 255 255 255
 0.636987 -0.434115   2.93869 255 255 255
  1.05826 -0.301434   2.94482 255 255 255
  1.09285 -0.380348   2.95371 255 255 255
 0.908872 -0.215774   2.91989 255 255 255
 0.151837 -0.322414   2.82608 255 255 255
  0.98455 -0.336957   2.93753 255 255 255
0.130652 0.534496  2.61569 255 255 255
0.832254 0.156745  2.59779 255 255 255
 0.366268 -0.246468   2.81894 255 255 255
 0.532994 -0.239981   2.82809 255 255 255
 0.519051 -0.573027   2.74771 255 255 255
 0.377178 -0.368037   2.81258 255 255 255
 0.77692 -0.31763  2.95546 255 255 255
 0.402057 -0.499699   2.74729 255 255 255
 0.473232 -0.257693   2.82171 255 255 255
 0.483395 -0.257706   2.82587 255 255 255
0.536746  -0.2566  2.83265 255 255 255
 0.392771 -0.456512   2.76045 255 255 255
 0.239563 -0.317179   2.79861 255 255 255
 0.923382 -0.181861   2.92483 255 255 255
 0.439968 -0.584595   2.71321 255 255 255
 0.213864 -0.270686   2.79059 255 255 255
 0.515006 -0.240766   2.82933 255 255 255
  0.972386 -0.0763435    2.95417 255 255 255
 0.235163 -0.422118   2.82069 255 255 255
0.850101 0.606551  2.75602 255 255 255
0.672195   0.6203  2.71263 255 255 255
0.77553 0.30041 2.74132 255 255 255
 0.339753 -0.546462   2.73298 255 255 255
 1.14352 0.395397  2.85748 255 255 255
 0.809982 -0.135776   2.92564 255 255 255
 0.121853 -0.530499   2.80288 255 255 255
 0.502003 -0.199545    2.8301 255 255 255
 0.130583 -0.525314   2.80362 255 255 255
  1.03265 -0.019092    2.9478 255 255 255
 0.321975 -0.438942   2.78692 255 255 255
 0.387504 -0.400045    2.8206 255 255 255
 0.265581 -0.414918   2.81485 255 255 255
0.294259 -0.34358    2.822 255 255 255
 0.677681 -0.253641    2.9557 255 255 255
 0.407346 -0.209249   2.93447 255 255 255
 0.532807 -0.337035   2.93732 255 255 255
 0.298323 -0.553709    2.7153 255 255 255
 0.702564 -0.183243   2.96548 255 255 255
 0.939338 -0.261712   2.94273 255 255 255
0.530837 0.576889  2.75876 255 255 255
0.992057 0.374347  2.80928 255 255 255
  0.865388 -0.0395297    2.94967 255 255 255
  0.84498 -0.376378   2.94338 255 255 255
   1.01366 -0.0855855    2.93303 255 255 255
 0.903322 -0.211177   2.92139 255 255 255
 0.903194 -0.342439   2.94665 255 255 255
0.611803 0.489268  2.76104 255 255 255
 0.708244 0.0164824   2.91764 255 255 255
 0.880354 -0.362038    2.9429 255 255 255
0.350904 0.409847  2.56136 255 255 255
  0.80697 -0.197616   2.94109 255 255 255
 0.939832 -0.286495   2.94732 255 255 255
0.359888 0.389232  2.56149 255 255 255
 1.11133 0.326645  2.93845 255 255 255
 0.908872 -0.215774   2.91989 255 255 255
0.988323 0.117061  2.94258 255 255 255
 0.701228 -0.246145   2.95874 255 255 255
 0.723572 -0.280772   2.94723 255 255 255
  1.00109 -0.266943   2.94619 255 255 255
 0.800669 -0.250581   2.95714 255 255 255
 0.744876 -0.285873   2.95715 255 255 255
0.985926 0.438138  2.75987 255 255 255
 0.823412 -0.383983   2.93931 255 255 255
  0.28034 -0.500416   2.75965 255 255 255
 0.251282 -0.458665   2.81659 255 255 255
 0.959163 -0.301807   2.94558 255 255 255
    0.839 -0.397532   2.94538 255 255 255
 0.715669 -0.160088   2.96755 255 255 255
    1.05299 -0.00351222     2.95334 255 255 255
 0.712329 -0.305401   2.95198 255 255 255
 0.767026 -0.465536   2.93868 255 255 255
 0.258949 -0.421932   2.81341 255 255 255
  0.63796 -0.249135   2.95763 255 255 255
 0.816835 -0.477597   2.93583 255 255 255
 0.777662 -0.482503   2.94308 255 255 255
 0.637224 -0.350408   2.93032 255 255 255
 0.508081 -0.590576   2.74198 255 255 255
0.0237517  -0.55337   2.82835 255 255 255
 0.313538 -0.499859   2.74199 255 255 255
 0.692398 -0.287851   2.96047 255 255 255
0.632692 -0.17813  2.96396 255 255 255
 0.239315 -0.357866   2.81458 255 255 255
 0.316322 -0.510477    2.7377 255 255 255
 0.615188 -0.337643   2.92385 255 255 255
 0.613524 -0.496517   2.77224 255 255 255
 0.369616 -0.348125   2.81799 255 255 255
  0.65902 -0.278977   2.94374 255 255 255
0.872771 -0.46487  2.93692 255 255 255
 0.426786 -0.416324   2.82249 255 255 255
0.00716736  -0.553669    2.83031 255 255 255
   1.15624 -0.0959649    2.95688 255 255 255
 0.875009 -0.498342   2.94178 255 255 255
 0.804508 -0.345496   2.94953 255 255 255
 0.576176 -0.318369   2.94368 255 255 255
0.00371442   -0.56289    2.82637 255 255 255
   0.4026 -0.487706   2.74856 255 255 255
 0.780329 -0.337371   2.95423 255 255 255
  1.02193 -0.268989   2.94379 255 255 255
 0.625866 -0.344918   2.91822 255 255 255
 0.487671 -0.478083   2.79116 255 255 255
 0.906324 -0.251934   2.91853 255 255 255
 0.688283 -0.258108   2.95904 255 255 255
 0.496969 -0.273164   2.82519 255 255 255
   1.1316 -0.338252    2.9506 255 255 255
0.703458 -0.33287  2.95049 255 255 255
  0.45707 -0.381618   2.82749 255 255 255
 0.361504 -0.408616   2.79971 255 255 255
 0.498406 -0.265116   2.82992 255 255 255
 0.357492 -0.278276   2.81005 255 255 255
 0.671571 -0.444332   2.94135 255 255 255
 0.431937 -0.384356   2.82328 255 255 255
  0.82826 -0.358972   2.94455 255 255 255
 0.829497 -0.475932   2.93587 255 255 255
 0.798887 -0.390156   2.94401 255 255 255
  0.74259 -0.278345   2.95683 255 255 255
 0.772428 -0.497738    2.9348 255 255 255
 0.670381 -0.178239   2.96888 255 255 255
 0.987353 0.0806372   2.95302 255 255 255
 0.80717 -0.44638  2.94123 255 255 255
 0.713082 -0.150164   2.96618 255 255 255
 0.965167 -0.190114   2.93996 255 255 255
 0.967488 -0.038079   2.95711 255 255 255
0.217842  -0.1667  2.84783 255 255 255
 0.339779 -0.406579   2.81117 255 255 255
 0.575441 -0.392849   2.90777 255 255 255
 0.392995 -0.423191   2.81547 255 255 255
 0.601053 -0.416973   2.91764 255 255 255
 0.385672 -0.434704   2.79632 255 255 255
-0.280007  0.179876    2.9179 255 255 255
 0.402293 -0.192647   2.92413 255 255 255
0.948635 0.546486  2.74669 255 255 255
0.715055 0.425918  2.75619 255 255 255
 0.452117 -0.510501   2.75705 255 255 255
 0.496761 -0.413593   2.85574 255 255 255
  0.62115 -0.284165    2.9426 255 255 255
 0.590305 -0.339194    2.9242 255 255 255
-0.321558  0.169927   2.91754 255 255 255
 0.51633 -0.26958   2.8144 255 255 255
  0.32163 -0.445894    2.7702 255 255 255
 0.528205 -0.226328   2.82572 255 255 255
0.643701 0.302848  2.62691 255 255 255
 0.426786 -0.416324   2.82249 255 255 255
 0.612782 -0.308961   2.92908 255 255 255
-0.276376  0.153373   2.91404 255 255 255
0.968368 0.522799  2.76589 255 255 255
 0.501713 -0.440382   2.81053 255 255 255
 0.538041 -0.352845   2.93157 255 255 255
-0.224656  0.325694   2.91335 255 255 255
  0.0933102 -0.00637786       2.936 255 255 255
 0.350533 -0.298782   2.81168 255 255 255
0.575722 -0.21792  2.82644 255 255 255
 0.615996 -0.319331   2.93055 255 255 255
0.515278  -0.2882   2.8222 255 255 255
  0.68578 -0.333451   2.95302 255 255 255
  0.69919 -0.192377    2.9683 255 255 255
0.802161 0.522795  2.70948 255 255 255
 0.779622 -0.132178   2.93973 255 255 255
  0.16091 -0.367841   2.82754 255 255 255
 -0.196368 -0.0221539    2.89699 255 255 255
 0.609702 -0.327718   2.92389 255 255 255
 0.261374 -0.380907    2.8289 255 255 255
0.520343  -0.2603  2.83292 255 255 255
0.595889 0.376917  2.93066 255 255 255
 0.611897 -0.390443   2.92837 255 255 255
 0.237338 -0.266945   2.79653 255 255 255
 0.352971 -0.288814   2.80539 255 255 255
-0.0623781   0.255407    2.91791 255 255 255
 0.464913 -0.399399   2.82579 255 255 255
 0.502003 -0.199545    2.8301 255 255 255
 0.486163 -0.499648   2.77562 255 255 255
 0.924076 0.0319879   2.89074 255 255 255
  1.00254 -0.302998   2.93335 255 255 255
0.0672121  -0.45802   2.81969 255 255 255
 0.604071 -0.536058   2.74333 255 255 255
 0.556545 -0.470633   2.74379 255 255 255
 -0.193409 -0.0790214     2.9133 255 255 255
 0.846342 -0.152774   2.94349 255 255 255
0.690803 0.436691  2.75818 255 255 255
 0.632356 -0.406677   2.94565 255 255 255
0.840001 0.435036  2.70249 255 255 255
   0.6492 -0.225472   2.96958 255 255 255
0.0327655 -0.469095   2.80354 255 255 255
-0.0667155   -0.39046    2.81031 255 255 255
0.00843188  -0.591563    2.80521 255 255 255
 0.287648 -0.563731    2.7035 255 255 255
 1.12956 0.376976  2.88606 255 255 255
 0.477763 -0.406571    2.8416 255 255 255
0.810059 0.405975  2.72697 255 255 255
-0.0441884  -0.431392    2.80046 255 255 255
-0.0462254  -0.344995    2.81884 255 255 255
-0.114687 -0.376196   2.81757 255 255 255
0.00648363  -0.292264    2.81663 255 255 255
-0.0649359  -0.358957    2.80889 255 255 255
-0.0395716  -0.321359    2.81315 255 255 255
-0.0729899   -0.33946    2.81396 255 255 255
-0.261888  0.284509   2.92135 255 255 255
 0.253646 -0.515561   2.75045 255 255 255
 0.432614 -0.173193   2.94714 255 255 255
-0.0352781  -0.451015    2.80409 255 255 255
 0.920063 -0.157078   2.90895 255 255 255
-0.0479306  -0.373672    2.81397 255 255 255
 0.732715 -0.380665   2.95736 255 255 255
 0.35156 -0.53944  2.73627 255 255 255
-0.0492715  -0.470081    2.81545 255 255 255
0.00905589  -0.534801    2.82306 255 255 255
   -0.193945 -0.000784677      2.88184 255 255 255
-0.018049 -0.298997   2.81316 255 255 255
0.878738 0.536103  2.75676 255 255 255
 0.574983 -0.460654    2.7748 255 255 255
-0.0548124  -0.413479    2.79968 255 255 255
 0.740035 -0.514476   2.92032 255 255 255
-0.0832147  -0.402312    2.80113 255 255 255
  1.1232 0.511285  2.82647 255 255 255
-0.229675 -0.102052   2.91408 255 255 255
 0.362428 -0.321674   2.80598 255 255 255
 0.346668 -0.239952   2.81062 255 255 255
 1.05339 -0.38535   2.9368 255 255 255
 0.300347 -0.413795   2.81731 255 255 255
 0.899128 -0.425337   2.93313 255 255 255
 0.200934 -0.342916   2.79838 255 255 255
 0.656816 -0.529946    2.7557 255 255 255
-0.0129064  -0.283261     2.8102 255 255 255
 1.00558 -0.37199   2.9455 255 255 255
0.0769628 0.0145122   2.94071 255 255 255
 0.88055 -0.47404  2.93652 255 255 255
-0.0336913  -0.381315    2.80868 255 255 255
1.01268 0.48733 2.76132 255 255 255
 0.314833 -0.322708   2.81249 255 255 255
 0.275193 -0.422483   2.81455 255 255 255
 0.275193 -0.422483   2.81455 255 255 255
 0.381145 -0.333843    2.8249 255 255 255
  0.20228 -0.277682   2.78924 255 255 255
 0.284983 -0.526034    2.7346 255 255 255
-0.0551601  -0.502976    2.82748 255 255 255
0.966759 -0.21333  2.94743 255 255 255
-0.0328888   -0.44471    2.80237 255 255 255
0.00975572   -0.45537    2.81168 255 255 255
-0.00901751   -0.416814     2.80823 255 255 255
0.0706512 -0.256996   2.81773 255 255 255
-0.0549777  -0.401249    2.80483 255 255 255
 0.525842 -0.513527   2.77425 255 255 255
-0.0445612  -0.395936    2.80711 255 255 255
 0.758391 -0.158448   2.94856 255 255 255
 0.183085 -0.272984   2.80559 255 255 255
0.0303265 -0.482292   2.79544 255 255 255
-0.014738 -0.406449   2.79955 255 255 255
-0.241104  0.327998   2.91404 255 255 255
 0.753166 -0.457503   2.94848 255 255 255
0.0788759 -0.316383   2.83371 255 255 255
 0.705635 -0.321474   2.95624 255 255 255
0.0354449 -0.476964   2.79984 255 255 255
 0.907661 -0.455404   2.93678 255 255 255
 0.443186 -0.536755   2.72915 255 255 255
0.341436 -0.52511  2.74501 255 255 255
  1.00124 -0.235843   2.94572 255 255 255
-0.023918 -0.285549   2.80354 255 255 255
-0.39034 0.315306  2.91396 255 255 255
0.998709 0.492615  2.74969 255 255 255
-0.0279092  -0.333741    2.81645 255 255 255
 0.838757 -0.321803   2.94409 255 255 255
-0.0775674  -0.353847    2.81261 255 255 255
  1.12128 -0.418378   2.95541 255 255 255
0.330077 0.408321   2.5638 255 255 255
 0.247964 -0.610043   2.71179 255 255 255
1.00477 -0.2523  2.9487 255 255 255
 0.973098 -0.310836   2.94307 255 255 255
  1.02652 -0.280058   2.93526 255 255 255
 0.794299 -0.290531    2.9537 255 255 255
 0.945298 -0.457397   2.94248 255 255 255
 0.935148 -0.450443    2.9441 255 255 255
0.830075 0.163318  2.59657 255 255 255
   0.9823 -0.159905    2.8998 255 255 255
 0.93233 0.528378  2.75279 255 255 255
  0.941375 -0.0657381    2.95524 255 255 255
0.830777 0.489019  2.70804 255 255 255
   1.0561 -0.338625   2.94713 255 255 255
 0.891102 -0.459248    2.9329 255 255 255
0.792203 -0.34101  2.95151 255 255 255
0.0352978 -0.417939   2.80784 255 255 255
0.0352978 -0.417939   2.80784 255 255 255
 0.670872 -0.316856   2.95661 255 255 255
 0.122165 -0.503101   2.81736 255 255 255
 0.351973 -0.593944   2.70479 255 255 255
 0.539594 -0.418541    2.8673 255 255 255
0.0834649 -0.372208    2.8234 255 255 255
 0.005923 -0.570386   2.82799 255 255 255
  0.387242 -0.0114921    2.94289 255 255 255
0.0617793 0.0548228   2.93015 255 255 255
  1.06023 -0.290335   2.94289 255 255 255
 0.816835 -0.477597   2.93583 255 255 255
0.854046 0.367487  2.74505 255 255 255
 0.613342 -0.302857   2.92812 255 255 255
 0.729017 -0.533116    2.9065 255 255 255
 0.178476 -0.363064   2.81888 255 255 255
-0.080821 -0.368326   2.81653 255 255 255
 1.06875 -0.32832   2.9527 255 255 255
  0.210707 -0.0912509    2.86694 255 255 255
 0.792979 -0.517012   2.93497 255 255 255
0.0263543  -0.46743   2.80038 255 255 255
 0.854786 -0.364701   2.93774 255 255 255
 0.555083 -0.338046   2.93074 255 255 255
 0.82381 -0.51608  2.94192 255 255 255
-0.185608 0.0402607   2.91623 255 255 255
0.966759 -0.21333  2.94743 255 255 255
 0.199688 -0.616996   2.72443 255 255 255
 0.943337 -0.433993   2.93871 255 255 255
0.0651951 -0.399258   2.81801 255 255 255
 0.127736 -0.229725   2.79866 255 255 255
 0.122421 -0.398211   2.83423 255 255 255
 0.451977 -0.556765   2.70006 255 255 255
-0.0614609  -0.348421    2.81194 255 255 255
 0.512564 -0.174649    2.8239 255 255 255
  1.15977 -0.366303   2.95683 255 255 255
 0.292373 -0.489165   2.74589 255 255 255
 0.325497 -0.591281   2.70387 255 255 255
0.0586079 -0.486958   2.81815 255 255 255
0.712672 0.387049   2.7477 255 255 255
  0.65078 -0.389971   2.93373 255 255 255
 0.622417 -0.263228   2.95885 255 255 255
 0.876985 -0.132451    2.9536 255 255 255
 0.833051 -0.435749   2.93899 255 255 255
 0.308403 -0.404692   2.82939 255 255 255
 0.219013 -0.120029   2.84661 255 255 255
0.862947 0.477839  2.71015 255 255 255
-0.0197834  -0.346799    2.81408 255 255 255
 0.109519 -0.356536   2.82726 255 255 255
-0.0886904  -0.353286    2.81901 255 255 255
0.333289 -0.56948  2.70083 255 255 255
 0.720308 -0.517381   2.91389 255 255 255
0.761653 0.195982  2.65942 255 255 255
 0.466814 -0.547807   2.70566 255 255 255
 0.754297 -0.507263   2.91752 255 255 255
 0.419718 -0.561174   2.72764 255 255 255
0.0379557 -0.467538   2.80409 255 255 255
0.0441184 -0.528612   2.82307 255 255 255
0.823281 0.410606  2.70776 255 255 255
0.248216 -0.27165  2.79739 255 255 255
-0.0336913  -0.381315    2.80868 255 255 255
 0.147876 -0.367854   2.82831 255 255 255
-0.0418316 0.00903117    2.92889 255 255 255
  1.06194 0.0206279   2.94155 255 255 255
 0.171621 -0.540351   2.76677 255 255 255
-0.0850889  -0.315121    2.82473 255 255 255
 0.433655 -0.552651   2.71853 255 255 255
-0.187905 0.0508792   2.91085 255 255 255
 0.199688 -0.616996   2.72443 255 255 255
0.0786715 -0.306629   2.83252 255 255 255
 0.513957 -0.385765   2.89552 255 255 255
0.0583517  -0.41007   2.81551 255 255 255
 -0.169216 -0.0765898    2.92231 255 255 255
 1.04393 0.150246  2.62495 255 255 255
0.0354449 -0.476964   2.79984 255 255 255
-0.0625746  -0.194003    2.71185 255 255 255
-0.0225221  -0.320322    2.81272 255 255 255
 0.273784 -0.487464    2.7633 255 255 255
  0.785188 -0.0266968    2.95302 255 255 255
 0.634186 -0.507028   2.76526 255 255 255
 0.118553 -0.331381   2.83322 255 255 255
 0.886021 -0.114012   2.92805 255 255 255
 0.741296 -0.390376   2.94853 255 255 255
0.613218 0.446579  2.72644 255 255 255
-0.15328 0.510907  2.61293 255 255 255
-0.280617  0.467383   2.56027 255 255 255
-0.149951  0.518274   2.61354 255 255 255
-0.0267052   0.434906    2.89083 255 255 255
 0.344297 -0.450559   2.77271 255 255 255
0.00135595   0.433766    2.89698 255 255 255
-0.140954  0.510734   2.61479 255 255 255
-0.324359  0.285384   2.87774 255 255 255
 0.855969 -0.327264   2.94234 255 255 255
 0.675349 -0.382253   2.93697 255 255 255
 0.185715 -0.540135   2.75948 255 255 255
-0.0599982   0.471914    2.91609 255 255 255
-0.0104994  -0.611749    2.82493 255 255 255
 0.247964 -0.610043   2.71179 255 255 255
   1.1127 -0.335495   2.94885 255 255 255
 0.803286 -0.492925   2.93853 255 255 255
  0.211479 -0.0632232    2.85112 255 255 255
-0.0122715   0.449255    2.88086 255 255 255
0.00100761   0.464721    2.87543 255 255 255
-0.0677428  -0.318602    2.80295 255 255 255
-0.06614 0.479387  2.91398 255 255 255
 0.52364 -0.49206   2.7585 255 255 255
 0.219947 -0.396613   2.80247 255 255 255
-0.207063  0.315937   2.91319 255 255 255
0.0408275 -0.568768   2.82376 255 255 255
  0.21947 -0.463219   2.79536 255 255 255
0.136113 0.540855  2.61779 255 255 255
 0.655225 -0.449554   2.94798 255 255 255
 0.121853 -0.530499   2.80288 255 255 255
  0.44761 -0.250325   2.81921 255 255 255
-0.103412  0.393767   2.91565 255 255 255
 0.507602 -0.183643    2.8215 255 255 255
-0.104245  0.384711   2.90969 255 255 255
 0.284983 -0.526034    2.7346 255 255 255
 0.745937 -0.237349   2.96419 255 255 255
 0.932099 -0.123529    2.9093 255 255 255
 1.11703 0.343445  2.93208 255 255 255
0.0810139  0.428623   2.93138 255 255 255
0.349515  0.42388  2.57168 255 255 255
0.105438 0.503273  2.59733 255 255 255
  1.15972 -0.380404   2.95263 255 255 255
  0.46153 -0.462393   2.80691 255 255 255
 0.403102 -0.039735   2.93153 255 255 255
 0.462704 -0.154381   2.97021 255 255 255
 0.431589 -0.488314   2.76502 255 255 255
 0.242147 -0.456474   2.78298 255 255 255
0.957468 0.557185  2.73662 255 255 255
 0.871576 -0.154748   2.93882 255 255 255
0.375149 0.556176  2.55606 255 255 255
 0.81512 0.528293  2.71331 255 255 255
0.656456 0.539928  2.74589 255 255 255
0.703862 0.557113   2.7034 255 255 255
  0.31373 -0.420862    2.8098 255 255 255
0.588912 0.564514  2.74631 255 255 255
0.785979 0.523886  2.70823 255 255 255
0.825325 0.388029  2.73516 255 255 255
0.0987059  0.469815   2.59554 255 255 255
 0.233993 -0.152321   2.85915 255 255 255
 0.308323 -0.613296   2.71319 255 255 255
 0.894268 -0.115042   2.93134 255 255 255
 0.974325 -0.109615   2.90374 255 255 255
  1.09975 -0.229539   2.77895 255 255 255
0.0107751 -0.282194   2.81196 255 255 255
 0.489856 -0.283221   2.81486 255 255 255
0.0614416 -0.496471   2.81091 255 255 255
 -0.134445 -0.0259049    2.91432 255 255 255
 0.299531 -0.274892   2.80427 255 255 255
0.0534919 -0.347215   2.82479 255 255 255
 0.301514 -0.433181   2.80002 255 255 255
0.108187 0.545558  2.60496 255 255 255
-0.187052  0.372081   2.90283 255 255 255
0.0883856  0.505005   2.59151 255 255 255
0.316264 0.437555  2.57081 255 255 255
-0.0234937  -0.395187    2.81289 255 255 255
-0.0644033   0.273042      2.917 255 255 255
-0.229543  0.457163   2.60866 255 255 255
 0.346714 -0.167404   2.81755 255 255 255
0.508449 0.424926  2.93516 255 255 255
  0.8722 0.628184  2.73551 255 255 255
0.0119029 -0.295797   2.81083 255 255 255
0.918336 0.488088   2.7514 255 255 255
 0.715669 -0.160088   2.96755 255 255 255
  0.86005 -0.125703   2.90033 255 255 255
0.918942 0.385302  2.74959 255 255 255
 0.979795 -0.435436    2.9407 255 255 255
 -0.0635925 -0.00430587     2.92197 255 255 255
  0.932739 0.00210344    2.95212 255 255 255
0.0648581  0.426722   2.93121 255 255 255
0.0801496 -0.581957    2.7793 255 255 255
 0.144605 -0.221929   2.81098 255 255 255
 0.392092 -0.500092   2.74792 255 255 255
 -0.217773 -0.0438683    2.91648 255 255 255
 0.60251 0.580194  2.75025 255 255 255
-0.0962894 -0.0641298    2.92296 255 255 255
0.0947785  0.551466   2.60399 255 255 255
  0.97917 -0.366083   2.94127 255 255 255
 0.723133 -0.470973   2.93731 255 255 255
-0.223731 -0.178732   2.91891 255 255 255
0.818886 0.170304   2.5897 255 255 255
