ply
format ascii 1.0
element vertex 694
property float x
property float y
property float z
property uchar red
property uchar green
property uchar blue
end_header
0.00211323   0.010591  0.0111917 0 255 0
-0.00433896    0.957727    0.236845 0 255 0
-0.0872921  -0.132608    2.72595 255 255 255
 0.257427 -0.218376   2.69046 255 255 255
  -0.25342 -0.0764678      2.705 255 255 255
 0.168894 -0.154403    2.7124 255 255 255
-0.0350175  0.0384507    2.75186 255 255 255
 0.278683 -0.409909   2.64006 255 255 255
 0.360801 -0.220698   2.69682 255 255 255
0.0343905 -0.476214   2.60392 255 255 255
 0.0111543 -0.0507992    2.74076 255 255 255
 0.309992 0.0722945   2.76861 255 255 255
 -0.237593 -0.0499325    2.72747 255 255 255
 0.250455 0.0731419   2.74015 255 255 255
-0.207634  0.134471   2.75778 255 255 255
-0.495726 -0.251294   2.66486 255 255 255
-0.197553 -0.118607   2.72246 255 255 255
 0.096297 -0.289729   2.68298 255 255 255
-0.450664 -0.204399   2.66698 255 255 255
 0.166088 0.0776901    2.7564 255 255 255
0.381771 0.194611  2.77221 255 255 255
-0.355278 -0.175257   2.68032 255 255 255
-0.0881466    0.12023    2.77392 255 255 255
0.866954 -0.39692   2.6587 255 255 255
  0.62057 -0.503759   2.63646 255 255 255
0.0538966  -0.56101   2.59275 255 255 255
0.529313 -0.46194  2.64731 255 255 255
0.0875619 -0.493167   2.60486 255 255 255
 0.208232 -0.423016   2.63737 255 255 255
-0.213498 -0.162351   2.70458 255 255 255
 0.555044 -0.426769   2.65526 255 255 255
 0.133374 -0.114114   2.70855 255 255 255
 0.571642 -0.460059   2.64748 255 255 255
-0.330969 -0.045949   2.73445 255 255 255
-0.940253 -0.213911   2.66118 255 255 255
  0.14656 -0.270089   2.69348 255 255 255
  -0.9794 -0.227489   2.65375 255 255 255
 0.157757 -0.416977   2.64848 255 255 255
0.323813 -0.07514  2.72298 255 255 255
-0.556485 -0.542491   2.59009 255 255 255
  0.53754 -0.395011   2.66595 255 255 255
-0.914795  0.161148   2.74912 255 255 255
0.372668  0.12058  2.75362 255 255 255
-0.949643 -0.258574   2.64025 255 255 255
 0.687255 -0.528081   2.63113 255 255 255
  0.806695 -0.0998621    2.71287 255 255 255
  0.04527 -0.200297   2.70676 255 255 255
 -0.40487 -0.213678   2.66913 255 255 255
 0.389321 -0.369849   2.65866 255 255 255
 0.859989 -0.177619   2.69453 255 255 255
0.247093 -0.55721  2.61486 255 255 255
-0.411873 -0.289014    2.6606 255 255 255
-0.932307 -0.531161   2.58559 255 255 255
 0.890902 -0.272141   2.67309 255 255 255
 0.227213 -0.330133   2.67644 255 255 255
 0.685659 -0.469316   2.62851 255 255 255
-0.940253 -0.213911   2.66118 255 255 255
 0.695794 -0.535059   2.62804 255 255 255
0.793416 -0.02732  2.72927 255 255 255
0.395158 0.219452  2.77309 255 255 255
-0.368085 -0.497567   2.60708 255 255 255
  0.125627 -0.0673399    2.72072 255 255 255
0.506373 -0.32585  2.68399 255 255 255
 0.172414 -0.273732   2.69138 255 255 255
 0.582361 -0.580063   2.61711 255 255 255
 0.512771 -0.493165   2.64007 255 255 255
 0.574769 -0.108927   2.71351 255 255 255
  0.15473 -0.560468   2.59159 255 255 255
0.303161 0.136991  2.75852 255 255 255
  0.173843 -0.0241315    2.72235 255 255 255
0.249897 0.130406  2.77674 255 255 255
 0.805398 -0.431799   2.64705 255 255 255
 0.650018 -0.279912   2.67087 255 255 255
  0.43502 -0.240253   2.68855 255 255 255
  0.358371 -0.0457986    2.72753 255 255 255
 -0.40487 -0.213678   2.66913 255 255 255
 0.23118 0.132069  2.75969 255 255 255
 0.592199 -0.321033   2.66154 255 255 255
   0.4296 -0.474084   2.63742 255 255 255
 0.58553 -0.25859  2.67664 255 255 255
 0.314836 -0.559493   2.60826 255 255 255
 -0.31352 0.0316266   2.75476 255 255 255
-0.496234 -0.213963   2.67022 255 255 255
-0.690181 -0.260704   2.66202 255 255 255
-0.740456 -0.140245   2.67388 255 255 255
0.851853 -0.24544  2.67637 255 255 255
0.662843 0.191908  2.77018 255 255 255
 0.746949 -0.338451   2.64962 255 255 255
 0.428559 -0.508059   2.62267 255 255 255
-0.162819  0.156688   2.77879 255 255 255
 -0.335155 -0.0794153    2.70919 255 255 255
-0.345035 -0.113323   2.68999 255 255 255
 0.292026 -0.102638   2.71167 255 255 255
 0.378529 -0.168947    2.7042 255 255 255
 -0.183581 -0.0124702    2.73821 255 255 255
 0.795827 -0.177675   2.69478 255 255 255
-0.505527 -0.463846   2.60708 255 255 255
 0.502856 -0.376127    2.6678 255 255 255
  -0.87886 -0.0102549    2.71937 255 255 255
-0.722192 -0.561253   2.59751 255 255 255
 0.803148 -0.210151   2.68522 255 255 255
  0.72784 -0.316162   2.65474 255 255 255
-0.913042 -0.188564   2.67377 255 255 255
0.160548 -0.30018  2.68423 255 255 255
 0.196366 -0.457589   2.62892 255 255 255
-0.318633 -0.130602   2.70798 255 255 255
0.770171 0.198352  2.76368 255 255 255
 0.384846 -0.335442   2.66006 255 255 255
 0.364473 -0.297735    2.6703 255 255 255
-0.903199  -0.34599   2.65475 255 255 255
-0.900332 -0.509225   2.60888 255 255 255
  0.153753 -0.0086442    2.72951 255 255 255
-0.487162 -0.239693   2.66107 255 255 255
 0.798229 -0.235347   2.67671 255 255 255
0.323813 -0.07514  2.72298 255 255 255
0.343864   0.1581   2.7661 255 255 255
-0.541554 -0.229191   2.66372 255 255 255
-0.314463 -0.189535   2.69583 255 255 255
-0.136242  0.102196   2.77647 255 255 255
 0.237833 -0.161499   2.70827 255 255 255
 0.0116749 -0.0622703    2.73399 255 255 255
 -0.280553 -0.0574259    2.71426 255 255 255
 0.588015 -0.564095   2.62323 255 255 255
 0.132492 -0.320885   2.64148 255 255 255
 0.131025 -0.520114    2.6043 255 255 255
0.0713556 -0.415491   2.63042 255 255 255
-0.255413 -0.213616   2.68004 255 255 255
-0.292365 -0.128798   2.70055 255 255 255
 0.834641 -0.195582   2.68772 255 255 255
 0.280324 -0.413858   2.63899 255 255 255
  0.862602 -0.0265298    2.72289 255 255 255
0.0118037 -0.244907   2.66695 255 255 255
  0.24043 -0.222769   2.68894 255 255 255
-0.492063 -0.154397   2.70121 255 255 255
 0.810902 0.0278792   2.73837 255 255 255
 0.668122 -0.233862   2.68018 255 255 255
 0.945278 -0.243253   2.67621 255 255 255
  0.124918 -0.0447818    2.72434 255 255 255
 0.120735 -0.168743   2.71186 255 255 255
-0.915657 -0.325524   2.65961 255 255 255
0.333301 0.110914  2.75785 255 255 255
-0.814459 -0.191603   2.66358 255 255 255
 0.134733 -0.362469   2.66351 255 255 255
-0.434634 -0.317531    2.6474 255 255 255
 0.323823 0.0217695   2.73853 255 255 255
0.461058 -0.33666   2.6895 255 255 255
-0.836629 -0.205023   2.66382 255 255 255
 0.179215 -0.364618   2.66853 255 255 255
   0.111138 -0.00216667     2.73218 255 255 255
 0.121778 -0.267169    2.6886 255 255 255
0.00329034  -0.261827    2.66404 255 255 255
 0.358132 -0.345602   2.65555 255 255 255
0.158663 0.114914  2.74377 255 255 255
-0.737529 -0.581576   2.59384 255 255 255
 0.158542 -0.107734   2.71193 255 255 255
0.221972 -0.34325   2.6738 255 255 255
 -1.02855 -0.337707   2.63526 255 255 255
0.339497 0.200922  2.76518 255 255 255
0.285609 -0.56244  2.61106 255 255 255
 0.786685 -0.103707   2.70987 255 255 255
 0.108361 -0.318897   2.67419 255 255 255
 0.567219 -0.496862    2.6368 255 255 255
 -0.64116 -0.140307   2.70631 255 255 255
0.602809 -0.28843  2.67089 255 255 255
-0.0913593   0.107952    2.77121 255 255 255
 0.261399 -0.539538   2.61578 255 255 255
 0.723786 -0.296725   2.66307 255 255 255
-0.19324 0.202881  2.77726 255 255 255
 0.558232 -0.369608   2.66472 255 255 255
 0.997563 -0.442274   2.65084 255 255 255
 0.195187 0.0903825   2.75753 255 255 255
  0.593728 -0.0715445    2.72179 255 255 255
 0.651828 -0.245759   2.68049 255 255 255
 0.286587 -0.319404   2.67432 255 255 255
-0.0351959  0.0754396    2.76557 255 255 255
 0.850836 -0.200558   2.68502 255 255 255
 0.118444 -0.337307   2.67115 255 255 255
-0.206613  0.142089   2.75544 255 255 255
0.100307 -0.22381  2.69702 255 255 255
 0.255186 -0.240481   2.69277 255 255 255
0.257278 0.100018  2.75747 255 255 255
  0.870406 -0.0584986    2.71797 255 255 255
 0.682559 -0.578961   2.61963 255 255 255
 0.254433 -0.066103   2.72464 255 255 255
0.726771 -0.49211  2.63692 255 255 255
0.414626 0.123033  2.75709 255 255 255
 0.157144 0.0329038   2.74023 255 255 255
0.261968  -0.1678  2.71021 255 255 255
-0.880738 -0.547196   2.59557 255 255 255
-0.948271 -0.323155   2.65184 255 255 255
 0.109543 -0.244225     2.695 255 255 255
 0.149314 -0.390853    2.6575 255 255 255
  0.149131 -0.0537584    2.72084 255 255 255
-0.992353 -0.294992   2.63807 255 255 255
 0.827484 -0.579912   2.61933 255 255 255
 0.156753 -0.337619    2.6705 255 255 255
 -1.05154 -0.367921   2.63071 255 255 255
 0.366314 0.0698719   2.74878 255 255 255
  0.49161 -0.354345   2.67657 255 255 255
0.603418  0.10268  2.76581 255 255 255
-0.805223 -0.243845   2.67212 255 255 255
 0.652675 -0.317448   2.66271 255 255 255
 0.530748 -0.355857   2.66924 255 255 255
0.0847145 -0.219142   2.70336 255 255 255
0.566719 0.166476  2.78451 255 255 255
0.0675328 -0.145388   2.71727 255 255 255
 0.516581 -0.357167   2.67357 255 255 255
0.0901165 -0.302058   2.67798 255 255 255
 0.890235 -0.224858   2.67845 255 255 255
0.545623 -0.54439  2.62615 255 255 255
-0.219756  0.151947   2.75539 255 255 255
 0.145393 -0.317209   2.67641 255 255 255
 0.478034 -0.331612   2.67791 255 255 255
  0.32083 -0.528091   2.62197 255 255 255
 0.672635 -0.496877   2.63787 255 255 255
 0.457604 -0.444734   2.65263 255 255 255
 0.639353 -0.515867   2.63247 255 255 255
  0.10191 -0.207961   2.70538 255 255 255
 0.331575 0.0925356   2.75606 255 255 255
0.0622908 -0.252004   2.69287 255 255 255
 0.271981 -0.549021    2.6158 255 255 255
-0.0469684  0.0528148    2.75937 255 255 255
 0.269339 -0.571658   2.60797 255 255 255
0.0385756 -0.149091   2.71698 255 255 255
0.289746 0.222097  2.77177 255 255 255
 0.67121 -0.21193   2.6884 255 255 255
 0.794841 0.0590321   2.75075 255 255 255
  0.377069 0.00021664    2.73968 255 255 255
 0.213577 -0.317631   2.67739 255 255 255
0.0947366 -0.024083   2.73295 255 255 255
  0.813913 -0.0762719    2.71552 255 255 255
-0.0729716  -0.281491    2.66136 255 255 255
 0.277204 -0.237662   2.69189 255 255 255
 0.844341 -0.393837   2.66034 255 255 255
 0.600556 -0.210856   2.69347 255 255 255
 -1.06091 -0.357699   2.62891 255 255 255
  0.111885 -0.0341952    2.72658 255 255 255
 0.304755 -0.510579   2.62446 255 255 255
 0.572868 -0.449343   2.65121 255 255 255
 0.298166 -0.498042   2.62593 255 255 255
-0.14895 0.114168  2.77269 255 255 255
-0.172495  0.108107    2.7686 255 255 255
  1.02469 -0.470986   2.64502 255 255 255
0.303267 0.174157  2.77022 255 255 255
 0.572399 -0.567379   2.61962 255 255 255
0.785079 0.225874  2.77223 255 255 255
  0.022602 -0.0349924    2.74191 255 255 255
  0.59888 -0.583391   2.61631 255 255 255
 0.531071 -0.500301   2.63734 255 255 255
 0.108415 0.0196587   2.72966 255 255 255
 0.10775 0.041388   2.7451 255 255 255
   0.4232 0.0012285   2.73462 255 255 255
 0.0603123 -0.0978669    2.72941 255 255 255
  0.265563 0.00826443     2.7362 255 255 255
 0.560751 -0.551593   2.62432 255 255 255
 0.674604 -0.142899    2.7041 255 255 255
  0.842729 -0.0539398     2.7194 255 255 255
0.0498412 -0.142682   2.71856 255 255 255
-0.172409  0.136317   2.77104 255 255 255
 0.870332 -0.241479   2.67182 255 255 255
0.97859 -0.4449 2.64872 255 255 255
 0.846897 -0.381584   2.66028 255 255 255
  1.03554 0.0975803   2.75782 255 255 255
 0.534114 -0.415899   2.65558 255 255 255
-0.058692   0.14556   2.77713 255 255 255
-0.0537835  0.0370221    2.75717 255 255 255
 0.257427 -0.218376   2.69046 255 255 255
 0.291575 -0.326371   2.67624 255 255 255
-0.00535944   -0.193071     2.69599 255 255 255
-0.135663  0.186293   2.78262 255 255 255
 0.280324 -0.413858   2.63899 255 255 255
  1.05914 -0.345535     2.673 255 255 255
0.0419303 -0.127157   2.72352 255 255 255
 0.595295 -0.276021   2.67997 255 255 255
 0.203887 -0.329814    2.6772 255 255 255
0.278107 -0.36842  2.66388 255 255 255
0.0118037 -0.244907   2.66695 255 255 255
0.0624158 -0.433357   2.61842 255 255 255
0.285609 -0.56244  2.61106 255 255 255
    0.130969 -8.57454e-05      2.73463 255 255 255
0.339545 0.222335  2.77508 255 255 255
-0.817337 -0.344848   2.65638 255 255 255
 0.928095 -0.264335   2.68955 255 255 255
 0.174646 -0.331643    2.6825 255 255 255
0.490869 0.064276  2.74294 255 255 255
 0.899726 -0.124944   2.69965 255 255 255
-0.598074 -0.266287   2.65847 255 255 255
 0.695116 -0.162788   2.70521 255 255 255
 0.250096 -0.124545   2.72008 255 255 255
 0.608739 -0.415505   2.66546 255 255 255
-0.308641 -0.330098   2.65228 255 255 255
  0.195502 -0.0872367    2.72904 255 255 255
 0.258498 -0.504621   2.62369 255 255 255
-0.495726 -0.251294   2.66486 255 255 255
  0.319339 0.00279547    2.72984 255 255 255
 0.286326 -0.192009   2.70061 255 255 255
 0.688756 -0.455616   2.64665 255 255 255
 0.506228 -0.337746   2.68053 255 255 255
-0.283972 -0.276726    2.6682 255 255 255
   0.45433 -0.0225748    2.73812 255 255 255
 0.434733 -0.423875   2.64915 255 255 255
0.763686 -0.19361  2.69025 255 255 255
 0.394898 0.0848602   2.75267 255 255 255
-0.349503 -0.412138   2.63122 255 255 255
-0.737711 -0.370675   2.65404 255 255 255
 0.946078 -0.167651   2.69555 255 255 255
 0.796215 -0.283782   2.66704 255 255 255
  0.411022 -0.0137477    2.73132 255 255 255
 0.354215 -0.513259   2.62684 255 255 255
0.381515  0.19672  2.76773 255 255 255
 -0.41706 -0.135709   2.69111 255 255 255
-0.922129 -0.398703   2.62762 255 255 255
-0.573243 -0.444237   2.60705 255 255 255
-0.700905 -0.412196   2.65135 255 255 255
-0.471904 -0.475063   2.60695 255 255 255
  1.02857 -0.221136   2.68162 255 255 255
 0.699099 -0.403659   2.64338 255 255 255
 0.752501 -0.112399   2.71227 255 255 255
 0.498739 0.0250206   2.74569 255 255 255
 -1.03275 -0.498865   2.60268 255 255 255
-0.479924 -0.177586    2.6974 255 255 255
 -1.00319 -0.435197   2.62483 255 255 255
-0.420666 -0.420356   2.63425 255 255 255
0.428131 0.102436  2.75443 255 255 255
 0.635708 -0.099408   2.72151 255 255 255
 0.517892 -0.537648    2.6198 255 255 255
 0.414287 -0.347814   2.67009 255 255 255
-0.184943 -0.298519   2.66471 255 255 255
-0.906829 -0.431925   2.62438 255 255 255
-0.711137  -0.45153   2.62901 255 255 255
0.649495 -0.12915  2.70832 255 255 255
 0.868946 -0.338853   2.65335 255 255 255
 0.538098 -0.185776   2.70018 255 255 255
-0.00621912   0.0787214     2.76762 255 255 255
0.0100377 0.0459545   2.76227 255 255 255
 0.487944 -0.531023   2.60633 255 255 255
 1.05131 0.027673  2.74317 255 255 255
 -1.00045 -0.498125   2.61313 255 255 255
-0.840501 -0.459952   2.61491 255 255 255
0.253365 0.168147  2.76324 255 255 255
  1.06898 -0.214033   2.69347 255 255 255
  0.18475 -0.193146   2.70866 255 255 255
-0.130248  -0.23595   2.69337 255 255 255
 -0.0278069 -0.00149594     2.75557 255 255 255
 0.248875 -0.375447   2.65744 255 255 255
  -0.40321 0.00478763    2.73594 255 255 255
  0.21391 -0.392845   2.65371 255 255 255
-0.205376 -0.307716   2.66597 255 255 255
 0.413821 0.0855957   2.75347 255 255 255
0.409964 0.152925  2.76413 255 255 255
-0.416268 -0.526285   2.58836 255 255 255
-0.838658 -0.509396   2.60896 255 255 255
 0.843888 0.0583509   2.74977 255 255 255
 0.196366 -0.457589   2.62892 255 255 255
 0.0116749 -0.0622703    2.73399 255 255 255
-0.486355 -0.103083   2.69596 255 255 255
 0.336722 -0.489671   2.63414 255 255 255
0.31039 0.18775 2.77086 255 255 255
 0.931776 -0.196985   2.69086 255 255 255
-0.946933 -0.426392   2.62522 255 255 255
-0.825509 -0.245981   2.67235 255 255 255
-0.871194 -0.375039   2.63554 255 255 255
 0.859013 -0.365251   2.65749 255 255 255
 0.728877 -0.195848   2.69345 255 255 255
 -0.200858 -0.0815782    2.72093 255 255 255
 0.814959 -0.310127   2.65711 255 255 255
  0.71632 -0.216283   2.68751 255 255 255
 0.308518 -0.298681   2.67029 255 255 255
   0.1637 -0.477643   2.62456 255 255 255
-0.883116 -0.432063   2.62436 255 255 255
  0.41516 -0.249272   2.68613 255 255 255
 0.734078 -0.249848   2.67602 255 255 255
 0.0679122 -0.0508343    2.73857 255 255 255
-0.633868 -0.187855    2.6778 255 255 255
   0.198141 -0.00899357     2.72599 255 255 255
 0.337531 -0.508397   2.62648 255 255 255
-0.527925 -0.272426   2.64126 255 255 255
  0.29421 0.0977027   2.75069 255 255 255
 -0.89947 -0.533028    2.6069 255 255 255
0.715688 0.153669  2.76013 255 255 255
-0.903497 -0.362302   2.63726 255 255 255
 -0.380508 -0.0787684    2.70535 255 255 255
-0.214217 -0.255055   2.68768 255 255 255
-0.918552 -0.493847   2.61354 255 255 255
  0.452381 -0.0672967    2.72002 255 255 255
0.334974 0.136704  2.76043 255 255 255
-0.570601 -0.404898   2.61596 255 255 255
  0.293504 -0.0658353    2.72003 255 255 255
   1.1049 -0.149042   2.70977 255 255 255
-0.399065  -0.43744   2.61952 255 255 255
-0.113565  0.174979   2.78394 255 255 255
0.736032 0.189516  2.77026 255 255 255
 0.944521 -0.303311   2.65913 255 255 255
 0.793923 -0.421344   2.65179 255 255 255
 0.805788 -0.285918   2.66465 255 255 255
  0.291901 -0.0302112    2.73105 255 255 255
 0.234781 -0.184445   2.70587 255 255 255
  0.17321 -0.497266   2.61733 255 255 255
0.0203526 0.0157858   2.75694 255 255 255
-0.388288 -0.492228   2.60003 255 255 255
 0.423733 -0.300303   2.68273 255 255 255
 0.678976 -0.113156   2.70796 255 255 255
 0.960671 -0.242794   2.66912 255 255 255
0.654955 0.227742  2.77877 255 255 255
  0.149131 -0.0537584    2.72084 255 255 255
 0.734938 -0.131144   2.72327 255 255 255
 0.563824 -0.534366   2.63209 255 255 255
  0.457019 -0.0873039    2.72384 255 255 255
 0.767596 -0.321444    2.6561 255 255 255
-0.792266 -0.488807   2.61413 255 255 255
-0.972241 -0.439882   2.61763 255 255 255
 0.152279 -0.465732   2.62686 255 255 255
-0.469692 -0.207159   2.66651 255 255 255
0.600544 0.170793  2.77913 255 255 255
  0.809969 -0.0628404    2.71822 255 255 255
 0.755991 -0.440066   2.64833 255 255 255
0.241055 0.182566  2.77509 255 255 255
-0.443823 -0.168369   2.68628 255 255 255
 0.261026 -0.389316   2.64941 255 255 255
0.698522 -0.44345  2.64891 255 255 255
0.0908921  0.012941   2.73823 255 255 255
-0.724858 -0.341457   2.65774 255 255 255
 0.232791 -0.266233    2.6838 255 255 255
 -0.93888 -0.334318   2.65512 255 255 255
-0.553498 -0.125238   2.68989 255 255 255
0.201781 0.180891  2.76192 255 255 255
 -0.175636 -0.0911716    2.72085 255 255 255
-0.225634 -0.186806   2.68408 255 255 255
   0.4858 -0.198977    2.6982 255 255 255
 0.908493 0.0138497   2.73793 255 255 255
0.602809 -0.28843  2.67089 255 255 255
-0.386903 -0.518535   2.60247 255 255 255
  -0.4474 -0.243717   2.66605 255 255 255
 0.109543 -0.244225     2.695 255 255 255
 0.320273 -0.321275   2.66926 255 255 255
-0.17932  -0.1717   2.6969 255 255 255
 0.324735 0.0773608   2.75559 255 255 255
-0.381574 -0.117414   2.69329 255 255 255
 0.230237 -0.537112   2.62041 255 255 255
 0.741473 -0.270136   2.67043 255 255 255
 0.469164 -0.573178   2.59115 255 255 255
 0.230335 0.0149269   2.73829 255 255 255
 0.988261 0.0492739   2.74994 255 255 255
  0.47761 -0.240414   2.68205 255 255 255
  0.791619 -0.0483648      2.725 255 255 255
0.110735 0.186808  2.77821 255 255 255
-0.972606 -0.428403   2.62648 255 255 255
-0.369531 0.0329057   2.72708 255 255 255
  0.547595 -0.0489846    2.73132 255 255 255
 0.681819 -0.421206   2.65998 255 255 255
-0.396593 -0.078172   2.70491 255 255 255
-0.349979 -0.445428   2.61914 255 255 255
  0.894719 -0.0228865     2.7248 255 255 255
  0.71568 -0.154601   2.69786 255 255 255
 0.156753 -0.337619    2.6705 255 255 255
 0.833336 -0.374934   2.66537 255 255 255
-0.183148 -0.292766   2.66946 255 255 255
 0.362123 0.0858653   2.75279 255 255 255
  0.272653 -0.0546823    2.72984 255 255 255
 0.595708 -0.238873   2.68638 255 255 255
 0.407412 -0.435396   2.65142 255 255 255
  0.21206 0.0724995   2.75232 255 255 255
  0.86722 -0.198103   2.68425 255 255 255
  0.894487 -0.0379302    2.72212 255 255 255
 0.548357 -0.120217    2.7177 255 255 255
-0.863968 -0.405788   2.64386 255 255 255
-0.0903309   0.142032    2.77771 255 255 255
  0.39802 0.0616872   2.74589 255 255 255
0.806596 -0.41498  2.65579 255 255 255
 0.916519 -0.231907   2.65612 255 255 255
  -0.4936 -0.352423   2.63195 255 255 255
-0.472487 -0.156712   2.69054 255 255 255
 -0.67747 -0.274901   2.65628 255 255 255
-0.819875 -0.513157   2.60194 255 255 255
-0.389063 -0.276312   2.65635 255 255 255
 0.220953 0.0979729   2.75509 255 255 255
-0.172495  0.108107    2.7686 255 255 255
-0.709418 -0.431311   2.64165 255 255 255
 0.0858293 -0.0344757    2.72381 255 255 255
-0.693045 -0.163965    2.6828 255 255 255
-0.730138 -0.400071   2.64421 255 255 255
-0.605771 -0.590821   2.59637 255 255 255
 -0.446934 -0.0957835     2.7085 255 255 255
-0.835405 -0.512075   2.60551 255 255 255
-0.735545 -0.498455   2.62139 255 255 255
-0.593841 -0.247518    2.6488 255 255 255
 0.186706 -0.266954   2.68858 255 255 255
 0.799686 -0.173402    2.6937 255 255 255
-0.927254 -0.429061   2.62341 255 255 255
  0.022602 -0.0349924    2.74191 255 255 255
-0.119588 -0.247382   2.68651 255 255 255
0.297113  0.19813  2.77312 255 255 255
-0.728065 -0.184503   2.68198 255 255 255
-0.365794 -0.301704   2.65309 255 255 255
-0.587889  -0.57897   2.61335 255 255 255
  0.31475 -0.480183   2.63703 255 255 255
0.635848 0.121132  2.77131 255 255 255
 0.269656 -0.230207   2.69573 255 255 255
-0.301063 0.0914838   2.74537 255 255 255
  0.29748 0.0796646   2.74912 255 255 255
 0.970949 -0.329721   2.65636 255 255 255
 0.690955 -0.374746   2.64317 255 255 255
-0.161715  -0.25857   2.69276 255 255 255
-0.215319  0.193165   2.76931 255 255 255
-0.196043 -0.287493   2.67418 255 255 255
0.273506 0.115968  2.75645 255 255 255
 0.485462 -0.156799   2.70697 255 255 255
-0.131156  0.150434   2.77428 255 255 255
-0.0295314  0.0617555     2.7619 255 255 255
-0.349433 -0.223728   2.67925 255 255 255
-0.664399 -0.123783    2.6864 255 255 255
 -0.546645 -0.0653891     2.7049 255 255 255
-0.263456 -0.323209   2.66689 255 255 255
 0.771845 -0.241931   2.67098 255 255 255
  0.87569 -0.215016   2.67804 255 255 255
 0.184434 -0.471207   2.62398 255 255 255
0.236695 0.147884  2.76562 255 255 255
0.203929 -0.43897   2.6383 255 255 255
 0.919041 -0.189969   2.69502 255 255 255
  0.110917 -0.0216782    2.73335 255 255 255
 -0.23474 -0.236016   2.67926 255 255 255
-0.540934 -0.542271   2.58798 255 255 255
-0.19519 0.174092  2.77753 255 255 255
  1.07164 -0.306727   2.67964 255 255 255
0.154584 0.145999  2.76453 255 255 255
  0.765056 0.00210386    2.73078 255 255 255
-0.420298 -0.297726   2.64233 255 255 255
 0.277996 0.0823723   2.74707 255 255 255
-0.658838 -0.556559   2.60841 255 255 255
  0.418755 -0.0885077    2.71924 255 255 255
-0.732177 -0.162286   2.68051 255 255 255
0.538628 0.167834  2.78357 255 255 255
-0.108643  0.157367   2.78003 255 255 255
-0.0591525   0.011063    2.75152 255 255 255
 0.117821 -0.350847     2.666 255 255 255
-0.170818 -0.180325   2.69272 255 255 255
-0.140071  0.141022   2.77363 255 255 255
-0.387863 0.0223678   2.72968 255 255 255
0.0959145 0.0901988   2.75693 255 255 255
-0.279684  0.092076   2.74368 255 255 255
0.211944 0.160895  2.76699 255 255 255
-0.407707 -0.474979   2.60686 255 255 255
 0.310572 -0.304646   2.66788 255 255 255
 0.996923 -0.267629   2.66947 255 255 255
0.609295 -0.16686  2.70106 255 255 255
-0.518446 -0.137188   2.70055 255 255 255
 -0.95032 -0.292948   2.64563 255 255 255
  0.671018 -0.0555641    2.71738 255 255 255
 0.302136 -0.367837   2.65302 255 255 255
-0.730694 -0.564076   2.59612 255 255 255
  1.08009 -0.278378   2.68094 255 255 255
-0.427097 -0.284177   2.63993 255 255 255
-0.266515 0.0986665    2.7457 255 255 255
-0.296249 0.0821639   2.74365 255 255 255
 -0.594733 -0.0849459    2.70248 255 255 255
  0.065174 -0.0862039    2.73342 255 255 255
  0.79305 -0.120354    2.7107 255 255 255
-0.000362612     0.218127      2.79367 255 255 255
 0.455042 0.0882899   2.75537 255 255 255
 0.196567 -0.232132   2.68862 255 255 255
-0.000248401   -0.0470887      2.73882 255 255 255
 0.408334 -0.507656   2.62033 255 255 255
 -0.86206 -0.242731   2.65522 255 255 255
 0.298539 -0.284361   2.67806 255 255 255
 0.172196 0.0137031   2.73523 255 255 255
0.726972 -0.14886  2.70414 255 255 255
-0.966521 -0.470301    2.6147 255 255 255
    0.4216 -0.0282918    2.72587 255 255 255
 0.304755 -0.510579   2.62446 255 255 255
 0.096031 0.0177057   2.74484 255 255 255
 0.660132 -0.483676   2.62349 255 255 255
0.792386 -0.19285  2.68878 255 255 255
-0.397779 -0.142823   2.69681 255 255 255
 0.106639 -0.258254   2.69157 255 255 255
-0.564094 -0.429631   2.61529 255 255 255
-0.474478  -0.37053   2.62172 255 255 255
 0.179471 0.0416141    2.7402 255 255 255
 0.855175 0.0427273   2.74082 255 255 255
-0.761225  -0.17874   2.67378 255 255 255
  0.67516 -0.309868   2.64916 255 255 255
-0.524848 -0.535222   2.59046 255 255 255
 0.176471 -0.438968   2.63759 255 255 255
   1.0492 -0.315423   2.67785 255 255 255
   0.236457 -0.00957264     2.73198 255 255 255
-0.248817  0.110001   2.74779 255 255 255
  0.748884 -0.0660703    2.72039 255 255 255
 0.356448 -0.130064   2.70971 255 255 255
  1.03633 0.0509095   2.74852 255 255 255
 0.143452 -0.122023   2.70857 255 255 255
-0.546927 -0.152858   2.68649 255 255 255
-0.342372 0.0560558   2.73784 255 255 255
 0.759046 -0.104218   2.71541 255 255 255
-0.597121 -0.227687   2.66122 255 255 255
 -0.532459 -0.0493197    2.71173 255 255 255
 -0.523939 -0.0446609    2.71224 255 255 255
 0.211437 -0.412722   2.64406 255 255 255
 0.034884 -0.163104   2.71802 255 255 255
-0.275379  0.104998   2.74454 255 255 255
 0.153702 -0.128986   2.71242 255 255 255
  1.04063 0.0419447   2.74501 255 255 255
 0.204765 -0.303922   2.67946 255 255 255
 0.164617 -0.434548   2.63766 255 255 255
0.701777  0.16433   2.7596 255 255 255
-0.699441 -0.465921   2.63855 255 255 255
 0.301112 -0.396652   2.64152 255 255 255
-0.777978 -0.186396   2.67037 255 255 255
-0.203766  0.191768   2.78014 255 255 255
0.0839884 -0.145073     2.718 255 255 255
 0.678397 -0.078046   2.72034 255 255 255
 -0.289003 -0.0381635    2.72357 255 255 255
 0.182177 -0.426653   2.63831 255 255 255
 0.682236 -0.303766   2.66248 255 255 255
 0.344797 -0.255755   2.68529 255 255 255
 0.808402 0.0075467   2.73722 255 255 255
  0.05768 -0.204733   2.70269 255 255 255
-0.453095 -0.305575   2.65836 255 255 255
 0.261699 -0.433403   2.63818 255 255 255
-0.0764671  0.0360683    2.75872 255 255 255
-0.228622  0.112488   2.74588 255 255 255
0.0580035 -0.171978   2.71304 255 255 255
  -0.4892 -0.024853   2.71492 255 255 255
-0.0644475  0.0239034    2.75063 255 255 255
 1.02935 -0.13309  2.71683 255 255 255
0.0263891 -0.148622   2.71907 255 255 255
-0.0477756 0.00954387    2.75258 255 255 255
 0.197184 -0.419143   2.64177 255 255 255
-0.393943  0.038161   2.73273 255 255 255
 0.871953 -0.352366   2.64866 255 255 255
-0.607243 -0.450962   2.61282 255 255 255
-0.972788 -0.306032   2.64641 255 255 255
 0.097297 -0.246444   2.69693 255 255 255
 0.942348 -0.185733   2.69214 255 255 255
 0.205879 -0.364642   2.66692 255 255 255
  0.810904 -0.0363646    2.71964 255 255 255
 -1.00817 -0.306565   2.64077 255 255 255
 0.329722 -0.339395   2.66002 255 255 255
  0.69804 -0.514942    2.6321 255 255 255
 0.287563 -0.406677   2.64477 255 255 255
 0.672461 -0.264622   2.67407 255 255 255
  1.03851 -0.319673   2.66871 255 255 255
-0.0140295  -0.136363    2.71767 255 255 255
 -0.59914 -0.569259   2.61014 255 255 255
-0.608789 -0.439154   2.61136 255 255 255
 -0.45507 -0.382062   2.62413 255 255 255
-0.900147 -0.256417   2.65199 255 255 255
 0.816236 0.0141649   2.73367 255 255 255
 0.841104 -0.576006    2.6142 255 255 255
  0.741455 -0.0967613     2.7154 255 255 255
-0.704125 -0.499671    2.6233 255 255 255
 0.216456 -0.368007   2.66481 255 255 255
  0.769686 -0.0219523    2.72886 255 255 255
-0.541912 -0.055077   2.70847 255 255 255
 0.766138 -0.283416   2.66617 255 255 255
 0.739683 -0.282575   2.66739 255 255 255
-0.825247 -0.212987    2.6638 255 255 255
 0.319758 -0.355223   2.65529 255 255 255
 0.576362 -0.439295   2.65457 255 255 255
 0.877563 0.0378099   2.74314 255 255 255
 0.517067 -0.455066   2.64652 255 255 255
  1.04749 -0.330729   2.67068 255 255 255
-0.408893 -0.250726   2.66184 255 255 255
 0.721263 -0.256753   2.67075 255 255 255
-0.456773 -0.286672   2.64268 255 255 255
  0.820545 -0.0534773    2.72022 255 255 255
  0.685357 -0.0956792    2.71276 255 255 255
 0.656235 -0.504096   2.63487 255 255 255
   0.798565 -0.00543017      2.7295 255 255 255
 0.814381 -0.575831   2.61764 255 255 255
   0.43683 0.00332312    2.73914 255 255 255
-0.899129 -0.428869   2.62449 255 255 255
 0.640161 -0.462879   2.64245 255 255 255
  0.89276 -0.383294   2.66009 255 255 255
 0.607449 -0.227298   2.68876 255 255 255
 0.381429 0.0465891   2.74646 255 255 255
 0.235563 -0.359978   2.66756 255 255 255
  0.529003 -0.0983776    2.71999 255 255 255
 0.984349 -0.214645   2.68039 255 255 255
-0.847409 -0.490304   2.60155 255 255 255
 0.337521 -0.518906   2.62705 255 255 255
 0.413303 -0.319991   2.68029 255 255 255
0.600464 0.126542  2.77402 255 255 255
  -0.23015 -0.0916487    2.71547 255 255 255
 0.572671 -0.422155    2.6553 255 255 255
 -0.33227 -0.210073   2.68351 255 255 255
 0.870583 -0.367771   2.65719 255 255 255
  0.18554 -0.305151   2.68056 255 255 255
-0.342811 0.0661713   2.73772 255 255 255
  0.73331 -0.216229   2.68355 255 255 255
 0.611668 -0.504114    2.6375 255 255 255
0.818805 -0.16122  2.69648 255 255 255
 0.631062 -0.247971   2.67919 255 255 255
 0.878894 -0.230711   2.67786 255 255 255
-0.514474 -0.119525    2.6893 255 255 255
 0.217159 -0.443175   2.63863 255 255 255
