<?xml version="1.0" standalone="yes"?>
<!-- SVG graphic -->
<svg xmlns='http://www.w3.org/2000/svg' xmlns:xlink='http://www.w3.org/1999/xlink'
 version="1.1">
<rect x="0" y="-1.52588e-05" width="6" height="200" stroke="black" stroke-width="1" fill="blue" tooltip="enable"><title>(0,42415)</title></rect><rect x="6" y="28.339" width="6" height="171.661" stroke="black" stroke-width="1" fill="blue" tooltip="enable"><title>(0.0399002,36405)</title></rect><rect x="12" y="46.6486" width="6" height="153.351" stroke="black" stroke-width="1" fill="blue" tooltip="enable"><title>(0.0798004,32522)</title></rect><rect x="18" y="65.458" width="6" height="134.542" stroke="black" stroke-width="1" fill="blue" tooltip="enable"><title>(0.119701,28533)</title></rect><rect x="24" y="84.3004" width="6" height="115.7" stroke="black" stroke-width="1" fill="blue" tooltip="enable"><title>(0.159601,24537)</title></rect><rect x="30" y="98.8094" width="6" height="101.191" stroke="black" stroke-width="1" fill="blue" tooltip="enable"><title>(0.199501,21460)</title></rect><rect x="36" y="112.828" width="6" height="87.172" stroke="black" stroke-width="1" fill="blue" tooltip="enable"><title>(0.239401,18487)</title></rect><rect x="42" y="124.786" width="6" height="75.214" stroke="black" stroke-width="1" fill="blue" tooltip="enable"><title>(0.279301,15951)</title></rect><rect x="48" y="135.711" width="6" height="64.2886" stroke="black" stroke-width="1" fill="blue" tooltip="enable"><title>(0.319201,13634)</title></rect><rect x="54" y="143.831" width="6" height="56.1688" stroke="black" stroke-width="1" fill="blue" tooltip="enable"><title>(0.359102,11912)</title></rect><rect x="60" y="152.946" width="6" height="47.0541" stroke="black" stroke-width="1" fill="blue" tooltip="enable"><title>(0.399002,9979)</title></rect><rect x="66" y="159.123" width="6" height="40.877" stroke="black" stroke-width="1" fill="blue" tooltip="enable"><title>(0.438902,8669)</title></rect><rect x="72" y="164.371" width="6" height="35.6289" stroke="black" stroke-width="1" fill="blue" tooltip="enable"><title>(0.478802,7556)</title></rect><rect x="78" y="169.115" width="6" height="30.8853" stroke="black" stroke-width="1" fill="blue" tooltip="enable"><title>(0.518702,6550)</title></rect><rect x="84" y="173.264" width="6" height="26.7358" stroke="black" stroke-width="1" fill="blue" tooltip="enable"><title>(0.558602,5670)</title></rect><rect x="90" y="177.352" width="6" height="22.6476" stroke="black" stroke-width="1" fill="blue" tooltip="enable"><title>(0.598503,4803)</title></rect><rect x="96" y="179.625" width="6" height="20.3749" stroke="black" stroke-width="1" fill="blue" tooltip="enable"><title>(0.638403,4321)</title></rect><rect x="102" y="182.214" width="6" height="17.7862" stroke="black" stroke-width="1" fill="blue" tooltip="enable"><title>(0.678303,3772)</title></rect><rect x="108" y="183.977" width="6" height="16.0226" stroke="black" stroke-width="1" fill="blue" tooltip="enable"><title>(0.718203,3398)</title></rect><rect x="114" y="185.953" width="6" height="14.0469" stroke="black" stroke-width="1" fill="blue" tooltip="enable"><title>(0.758103,2979)</title></rect><rect x="120" y="188.089" width="6" height="11.9109" stroke="black" stroke-width="1" fill="blue" tooltip="enable"><title>(0.798004,2526)</title></rect><rect x="126" y="189.31" width="6" height="10.6896" stroke="black" stroke-width="1" fill="blue" tooltip="enable"><title>(0.837904,2267)</title></rect><rect x="132" y="190.202" width="6" height="9.79842" stroke="black" stroke-width="1" fill="blue" tooltip="enable"><title>(0.877804,2078)</title></rect><rect x="138" y="191.432" width="6" height="8.56772" stroke="black" stroke-width="1" fill="blue" tooltip="enable"><title>(0.917704,1817)</title></rect><rect x="144" y="192.437" width="6" height="7.56336" stroke="black" stroke-width="1" fill="blue" tooltip="enable"><title>(0.957604,1604)</title></rect><rect x="150" y="193.196" width="6" height="6.8042" stroke="black" stroke-width="1" fill="blue" tooltip="enable"><title>(0.997504,1443)</title></rect><rect x="156" y="193.639" width="6" height="6.36096" stroke="black" stroke-width="1" fill="blue" tooltip="enable"><title>(1.0374,1349)</title></rect><rect x="162" y="194.318" width="6" height="5.68195" stroke="black" stroke-width="1" fill="blue" tooltip="enable"><title>(1.0773,1205)</title></rect><rect x="168" y="195.03" width="6" height="4.96994" stroke="black" stroke-width="1" fill="blue" tooltip="enable"><title>(1.1172,1054)</title></rect><rect x="174" y="195.535" width="6" height="4.4654" stroke="black" stroke-width="1" fill="blue" tooltip="enable"><title>(1.15711,947)</title></rect><rect x="180" y="195.775" width="6" height="4.22492" stroke="black" stroke-width="1" fill="blue" tooltip="enable"><title>(1.19701,896)</title></rect><rect x="186" y="195.921" width="6" height="4.07875" stroke="black" stroke-width="1" fill="blue" tooltip="enable"><title>(1.23691,865)</title></rect><rect x="192" y="196.6" width="6" height="3.39974" stroke="black" stroke-width="1" fill="blue" tooltip="enable"><title>(1.27681,721)</title></rect><rect x="198" y="196.699" width="6" height="3.30072" stroke="black" stroke-width="1" fill="blue" tooltip="enable"><title>(1.31671,700)</title></rect><rect x="204" y="196.982" width="6" height="3.0178" stroke="black" stroke-width="1" fill="blue" tooltip="enable"><title>(1.35661,640)</title></rect><rect x="210" y="197.364" width="6" height="2.63586" stroke="black" stroke-width="1" fill="blue" tooltip="enable"><title>(1.39651,559)</title></rect><rect x="216" y="197.355" width="6" height="2.64529" stroke="black" stroke-width="1" fill="blue" tooltip="enable"><title>(1.43641,561)</title></rect><rect x="222" y="197.52" width="6" height="2.48025" stroke="black" stroke-width="1" fill="blue" tooltip="enable"><title>(1.47631,526)</title></rect><rect x="228" y="197.798" width="6" height="2.20205" stroke="black" stroke-width="1" fill="blue" tooltip="enable"><title>(1.51621,467)</title></rect><rect x="234" y="198.128" width="6" height="1.87198" stroke="black" stroke-width="1" fill="blue" tooltip="enable"><title>(1.55611,397)</title></rect><rect x="240" y="198.119" width="6" height="1.88141" stroke="black" stroke-width="1" fill="blue" tooltip="enable"><title>(1.59601,399)</title></rect><rect x="246" y="198.368" width="6" height="1.6315" stroke="black" stroke-width="1" fill="blue" tooltip="enable"><title>(1.63591,346)</title></rect><rect x="252" y="198.359" width="6" height="1.64093" stroke="black" stroke-width="1" fill="blue" tooltip="enable"><title>(1.67581,348)</title></rect><rect x="258" y="198.288" width="6" height="1.71166" stroke="black" stroke-width="1" fill="blue" tooltip="enable"><title>(1.71571,363)</title></rect><rect x="264" y="198.727" width="6" height="1.27313" stroke="black" stroke-width="1" fill="blue" tooltip="enable"><title>(1.75561,270)</title></rect><rect x="270" y="198.576" width="6" height="1.42402" stroke="black" stroke-width="1" fill="blue" tooltip="enable"><title>(1.79551,302)</title></rect><rect x="276" y="198.76" width="6" height="1.24013" stroke="black" stroke-width="1" fill="blue" tooltip="enable"><title>(1.83541,263)</title></rect><rect x="282" y="198.925" width="6" height="1.07509" stroke="black" stroke-width="1" fill="blue" tooltip="enable"><title>(1.87531,228)</title></rect><rect x="288" y="198.92" width="6" height="1.07981" stroke="black" stroke-width="1" fill="blue" tooltip="enable"><title>(1.91521,229)</title></rect><rect x="294" y="199.062" width="6" height="0.938347" stroke="black" stroke-width="1" fill="blue" tooltip="enable"><title>(1.95511,199)</title></rect><rect x="300" y="199.222" width="6" height="0.778027" stroke="black" stroke-width="1" fill="blue" tooltip="enable"><title>(1.99501,165)</title></rect><rect x="306" y="199.217" width="6" height="0.782742" stroke="black" stroke-width="1" fill="blue" tooltip="enable"><title>(2.03491,166)</title></rect><rect x="312" y="199.128" width="6" height="0.872333" stroke="black" stroke-width="1" fill="blue" tooltip="enable"><title>(2.07481,185)</title></rect><rect x="318" y="199.302" width="6" height="0.697866" stroke="black" stroke-width="1" fill="blue" tooltip="enable"><title>(2.11471,148)</title></rect><rect x="324" y="199.401" width="6" height="0.598845" stroke="black" stroke-width="1" fill="blue" tooltip="enable"><title>(2.15461,127)</title></rect><rect x="330" y="199.378" width="6" height="0.622421" stroke="black" stroke-width="1" fill="blue" tooltip="enable"><title>(2.19451,132)</title></rect><rect x="336" y="199.411" width="6" height="0.589414" stroke="black" stroke-width="1" fill="blue" tooltip="enable"><title>(2.23441,125)</title></rect><rect x="342" y="199.349" width="6" height="0.650713" stroke="black" stroke-width="1" fill="blue" tooltip="enable"><title>(2.27431,138)</title></rect><rect x="348" y="199.505" width="6" height="0.495108" stroke="black" stroke-width="1" fill="blue" tooltip="enable"><title>(2.31421,105)</title></rect><rect x="354" y="199.557" width="6" height="0.443239" stroke="black" stroke-width="1" fill="blue" tooltip="enable"><title>(2.35411,94)</title></rect><rect x="360" y="199.58" width="6" height="0.419663" stroke="black" stroke-width="1" fill="blue" tooltip="enable"><title>(2.39401,89)</title></rect><rect x="366" y="199.566" width="6" height="0.433809" stroke="black" stroke-width="1" fill="blue" tooltip="enable"><title>(2.43391,92)</title></rect><rect x="372" y="199.618" width="6" height="0.38194" stroke="black" stroke-width="1" fill="blue" tooltip="enable"><title>(2.47381,81)</title></rect><rect x="378" y="199.67" width="6" height="0.330072" stroke="black" stroke-width="1" fill="blue" tooltip="enable"><title>(2.51371,70)</title></rect><rect x="384" y="199.632" width="6" height="0.367794" stroke="black" stroke-width="1" fill="blue" tooltip="enable"><title>(2.55361,78)</title></rect><rect x="390" y="199.651" width="6" height="0.348933" stroke="black" stroke-width="1" fill="blue" tooltip="enable"><title>(2.59351,74)</title></rect><rect x="396" y="199.632" width="6" height="0.367794" stroke="black" stroke-width="1" fill="blue" tooltip="enable"><title>(2.63341,78)</title></rect><rect x="402" y="199.646" width="6" height="0.353648" stroke="black" stroke-width="1" fill="blue" tooltip="enable"><title>(2.67331,75)</title></rect><rect x="408" y="199.731" width="6" height="0.268773" stroke="black" stroke-width="1" fill="blue" tooltip="enable"><title>(2.71321,57)</title></rect><rect x="414" y="199.712" width="6" height="0.287634" stroke="black" stroke-width="1" fill="blue" tooltip="enable"><title>(2.75311,61)</title></rect><rect x="420" y="199.722" width="6" height="0.278203" stroke="black" stroke-width="1" fill="blue" tooltip="enable"><title>(2.79301,59)</title></rect><rect x="426" y="199.764" width="6" height="0.235766" stroke="black" stroke-width="1" fill="blue" tooltip="enable"><title>(2.83291,50)</title></rect><rect x="432" y="199.783" width="6" height="0.216904" stroke="black" stroke-width="1" fill="blue" tooltip="enable"><title>(2.87281,46)</title></rect><rect x="438" y="199.807" width="6" height="0.193328" stroke="black" stroke-width="1" fill="blue" tooltip="enable"><title>(2.91271,41)</title></rect><rect x="444" y="199.788" width="6" height="0.212189" stroke="black" stroke-width="1" fill="blue" tooltip="enable"><title>(2.95261,45)</title></rect><rect x="450" y="199.788" width="6" height="0.212189" stroke="black" stroke-width="1" fill="blue" tooltip="enable"><title>(2.99251,45)</title></rect><rect x="456" y="199.854" width="6" height="0.146175" stroke="black" stroke-width="1" fill="blue" tooltip="enable"><title>(3.03241,31)</title></rect><rect x="462" y="199.868" width="6" height="0.132029" stroke="black" stroke-width="1" fill="blue" tooltip="enable"><title>(3.07231,28)</title></rect><rect x="468" y="199.877" width="6" height="0.122598" stroke="black" stroke-width="1" fill="blue" tooltip="enable"><title>(3.11221,26)</title></rect><rect x="474" y="199.873" width="6" height="0.127313" stroke="black" stroke-width="1" fill="blue" tooltip="enable"><title>(3.15211,27)</title></rect><rect x="480" y="199.873" width="6" height="0.127313" stroke="black" stroke-width="1" fill="blue" tooltip="enable"><title>(3.19201,27)</title></rect><rect x="486" y="199.835" width="6" height="0.165036" stroke="black" stroke-width="1" fill="blue" tooltip="enable"><title>(3.23191,35)</title></rect><rect x="492" y="199.892" width="6" height="0.108452" stroke="black" stroke-width="1" fill="blue" tooltip="enable"><title>(3.27181,23)</title></rect><rect x="498" y="199.868" width="6" height="0.132029" stroke="black" stroke-width="1" fill="blue" tooltip="enable"><title>(3.31171,28)</title></rect><rect x="504" y="199.906" width="6" height="0.0943063" stroke="black" stroke-width="1" fill="blue" tooltip="enable"><title>(3.35161,20)</title></rect><rect x="510" y="199.92" width="6" height="0.0801603" stroke="black" stroke-width="1" fill="blue" tooltip="enable"><title>(3.39152,17)</title></rect><rect x="516" y="199.939" width="6" height="0.0612991" stroke="black" stroke-width="1" fill="blue" tooltip="enable"><title>(3.43142,13)</title></rect><rect x="522" y="199.934" width="6" height="0.0660144" stroke="black" stroke-width="1" fill="blue" tooltip="enable"><title>(3.47132,14)</title></rect><rect x="528" y="199.91" width="6" height="0.089591" stroke="black" stroke-width="1" fill="blue" tooltip="enable"><title>(3.51122,19)</title></rect><rect x="534" y="199.896" width="6" height="0.103737" stroke="black" stroke-width="1" fill="blue" tooltip="enable"><title>(3.55112,22)</title></rect><rect x="540" y="199.892" width="6" height="0.108452" stroke="black" stroke-width="1" fill="blue" tooltip="enable"><title>(3.59102,23)</title></rect><rect x="546" y="199.934" width="6" height="0.0660144" stroke="black" stroke-width="1" fill="blue" tooltip="enable"><title>(3.63092,14)</title></rect><rect x="552" y="199.934" width="6" height="0.0660144" stroke="black" stroke-width="1" fill="blue" tooltip="enable"><title>(3.67082,14)</title></rect><rect x="558" y="199.958" width="6" height="0.0424378" stroke="black" stroke-width="1" fill="blue" tooltip="enable"><title>(3.71072,9)</title></rect><rect x="564" y="199.953" width="6" height="0.0471531" stroke="black" stroke-width="1" fill="blue" tooltip="enable"><title>(3.75062,10)</title></rect><rect x="570" y="199.976" width="6" height="0.0235766" stroke="black" stroke-width="1" fill="blue" tooltip="enable"><title>(3.79052,5)</title></rect><rect x="576" y="199.967" width="6" height="0.0330072" stroke="black" stroke-width="1" fill="blue" tooltip="enable"><title>(3.83042,7)</title></rect><rect x="582" y="199.981" width="6" height="0.0188613" stroke="black" stroke-width="1" fill="blue" tooltip="enable"><title>(3.87032,4)</title></rect><rect x="588" y="199.991" width="6" height="0.00943063" stroke="black" stroke-width="1" fill="blue" tooltip="enable"><title>(3.91022,2)</title></rect><rect x="594" y="199.981" width="6" height="0.0188613" stroke="black" stroke-width="1" fill="blue" tooltip="enable"><title>(3.95012,4)</title></rect><text x="30" y="240" font-size="20" fill="black">0</text>
<text x="600" y="240" font-size="20" fill="black">3.99002</text>
<polyline points="0,220,600,220" stroke="black" stroke-width="1" fill="none"/>
<text x="720" y="20" font-size="20" fill="black">42415</text>
<text x="720" y="200" font-size="20" fill="black">0</text>
<polyline points="660,0,660,200" stroke="black" stroke-width="1" fill="none"/>
</svg>