<?xml version="1.0" standalone="yes"?>
<!-- SVG graphic -->
<svg xmlns='http://www.w3.org/2000/svg' xmlns:xlink='http://www.w3.org/1999/xlink'
 version="1.1">
<rect x="0" y="0" width="6" height="200" stroke="black" stroke-width="1" fill="blue" tooltip="enable"><title>(0,42658)</title></rect><rect x="6" y="73.6884" width="6" height="126.312" stroke="black" stroke-width="1" fill="blue" tooltip="enable"><title>(0.039959,26941)</title></rect><rect x="12" y="97.1025" width="6" height="102.897" stroke="black" stroke-width="1" fill="blue" tooltip="enable"><title>(0.0799181,21947)</title></rect><rect x="18" y="110.713" width="6" height="89.2869" stroke="black" stroke-width="1" fill="blue" tooltip="enable"><title>(0.119877,19044)</title></rect><rect x="24" y="118.604" width="6" height="81.3962" stroke="black" stroke-width="1" fill="blue" tooltip="enable"><title>(0.159836,17361)</title></rect><rect x="30" y="126.387" width="6" height="73.6134" stroke="black" stroke-width="1" fill="blue" tooltip="enable"><title>(0.199795,15701)</title></rect><rect x="36" y="132.857" width="6" height="67.1433" stroke="black" stroke-width="1" fill="blue" tooltip="enable"><title>(0.239754,14321)</title></rect><rect x="42" y="137.165" width="6" height="62.8346" stroke="black" stroke-width="1" fill="blue" tooltip="enable"><title>(0.279713,13402)</title></rect><rect x="48" y="141.966" width="6" height="58.0337" stroke="black" stroke-width="1" fill="blue" tooltip="enable"><title>(0.319672,12378)</title></rect><rect x="54" y="144.55" width="6" height="55.4503" stroke="black" stroke-width="1" fill="blue" tooltip="enable"><title>(0.359631,11827)</title></rect><rect x="60" y="148.418" width="6" height="51.5824" stroke="black" stroke-width="1" fill="blue" tooltip="enable"><title>(0.39959,11002)</title></rect><rect x="66" y="149.566" width="6" height="50.4337" stroke="black" stroke-width="1" fill="blue" tooltip="enable"><title>(0.439549,10757)</title></rect><rect x="72" y="153.317" width="6" height="46.6829" stroke="black" stroke-width="1" fill="blue" tooltip="enable"><title>(0.479508,9957)</title></rect><rect x="78" y="155.422" width="6" height="44.5778" stroke="black" stroke-width="1" fill="blue" tooltip="enable"><title>(0.519467,9508)</title></rect><rect x="84" y="157.279" width="6" height="42.7212" stroke="black" stroke-width="1" fill="blue" tooltip="enable"><title>(0.559427,9112)</title></rect><rect x="90" y="160.05" width="6" height="39.9503" stroke="black" stroke-width="1" fill="blue" tooltip="enable"><title>(0.599386,8521)</title></rect><rect x="96" y="161.916" width="6" height="38.0843" stroke="black" stroke-width="1" fill="blue" tooltip="enable"><title>(0.639345,8123)</title></rect><rect x="102" y="164.124" width="6" height="35.876" stroke="black" stroke-width="1" fill="blue" tooltip="enable"><title>(0.679304,7652)</title></rect><rect x="108" y="164.705" width="6" height="35.2947" stroke="black" stroke-width="1" fill="blue" tooltip="enable"><title>(0.719263,7528)</title></rect><rect x="114" y="166.703" width="6" height="33.2974" stroke="black" stroke-width="1" fill="blue" tooltip="enable"><title>(0.759222,7102)</title></rect><rect x="120" y="168.442" width="6" height="31.558" stroke="black" stroke-width="1" fill="blue" tooltip="enable"><title>(0.799181,6731)</title></rect><rect x="126" y="170.36" width="6" height="29.6404" stroke="black" stroke-width="1" fill="blue" tooltip="enable"><title>(0.83914,6322)</title></rect><rect x="132" y="171.293" width="6" height="28.7074" stroke="black" stroke-width="1" fill="blue" tooltip="enable"><title>(0.879099,6123)</title></rect><rect x="138" y="172.629" width="6" height="27.3712" stroke="black" stroke-width="1" fill="blue" tooltip="enable"><title>(0.919058,5838)</title></rect><rect x="144" y="174.12" width="6" height="25.8803" stroke="black" stroke-width="1" fill="blue" tooltip="enable"><title>(0.959017,5520)</title></rect><rect x="150" y="175.334" width="6" height="24.6659" stroke="black" stroke-width="1" fill="blue" tooltip="enable"><title>(0.998976,5261)</title></rect><rect x="156" y="176.652" width="6" height="23.3485" stroke="black" stroke-width="1" fill="blue" tooltip="enable"><title>(1.03893,4980)</title></rect><rect x="162" y="177.95" width="6" height="22.0498" stroke="black" stroke-width="1" fill="blue" tooltip="enable"><title>(1.07889,4703)</title></rect><rect x="168" y="178.888" width="6" height="21.1121" stroke="black" stroke-width="1" fill="blue" tooltip="enable"><title>(1.11885,4503)</title></rect><rect x="174" y="179.765" width="6" height="20.2354" stroke="black" stroke-width="1" fill="blue" tooltip="enable"><title>(1.15881,4316)</title></rect><rect x="180" y="180.402" width="6" height="19.5977" stroke="black" stroke-width="1" fill="blue" tooltip="enable"><title>(1.19877,4180)</title></rect><rect x="186" y="181.799" width="6" height="18.2006" stroke="black" stroke-width="1" fill="blue" tooltip="enable"><title>(1.23873,3882)</title></rect><rect x="192" y="181.776" width="6" height="18.224" stroke="black" stroke-width="1" fill="blue" tooltip="enable"><title>(1.27869,3887)</title></rect><rect x="198" y="183.483" width="6" height="16.5174" stroke="black" stroke-width="1" fill="blue" tooltip="enable"><title>(1.31865,3523)</title></rect><rect x="204" y="184.266" width="6" height="15.7344" stroke="black" stroke-width="1" fill="blue" tooltip="enable"><title>(1.35861,3356)</title></rect><rect x="210" y="184.941" width="6" height="15.0593" stroke="black" stroke-width="1" fill="blue" tooltip="enable"><title>(1.39857,3212)</title></rect><rect x="216" y="185.588" width="6" height="14.4123" stroke="black" stroke-width="1" fill="blue" tooltip="enable"><title>(1.43853,3074)</title></rect><rect x="222" y="186.178" width="6" height="13.8216" stroke="black" stroke-width="1" fill="blue" tooltip="enable"><title>(1.47848,2948)</title></rect><rect x="228" y="186.671" width="6" height="13.3293" stroke="black" stroke-width="1" fill="blue" tooltip="enable"><title>(1.51844,2843)</title></rect><rect x="234" y="187.674" width="6" height="12.3259" stroke="black" stroke-width="1" fill="blue" tooltip="enable"><title>(1.5584,2629)</title></rect><rect x="240" y="188.059" width="6" height="11.9415" stroke="black" stroke-width="1" fill="blue" tooltip="enable"><title>(1.59836,2547)</title></rect><rect x="246" y="188.701" width="6" height="11.2992" stroke="black" stroke-width="1" fill="blue" tooltip="enable"><title>(1.63832,2410)</title></rect><rect x="252" y="188.949" width="6" height="11.0507" stroke="black" stroke-width="1" fill="blue" tooltip="enable"><title>(1.67828,2357)</title></rect><rect x="258" y="189.474" width="6" height="10.5256" stroke="black" stroke-width="1" fill="blue" tooltip="enable"><title>(1.71824,2245)</title></rect><rect x="264" y="189.892" width="6" height="10.1083" stroke="black" stroke-width="1" fill="blue" tooltip="enable"><title>(1.7582,2156)</title></rect><rect x="270" y="190.609" width="6" height="9.39097" stroke="black" stroke-width="1" fill="blue" tooltip="enable"><title>(1.79816,2003)</title></rect><rect x="276" y="190.947" width="6" height="9.0534" stroke="black" stroke-width="1" fill="blue" tooltip="enable"><title>(1.83812,1931)</title></rect><rect x="282" y="191.415" width="6" height="8.58456" stroke="black" stroke-width="1" fill="blue" tooltip="enable"><title>(1.87807,1831)</title></rect><rect x="288" y="191.856" width="6" height="8.14384" stroke="black" stroke-width="1" fill="blue" tooltip="enable"><title>(1.91803,1737)</title></rect><rect x="294" y="192.001" width="6" height="7.9985" stroke="black" stroke-width="1" fill="blue" tooltip="enable"><title>(1.95799,1706)</title></rect><rect x="300" y="192.306" width="6" height="7.69375" stroke="black" stroke-width="1" fill="blue" tooltip="enable"><title>(1.99795,1641)</title></rect><rect x="306" y="192.719" width="6" height="7.28117" stroke="black" stroke-width="1" fill="blue" tooltip="enable"><title>(2.03791,1553)</title></rect><rect x="312" y="192.991" width="6" height="7.00924" stroke="black" stroke-width="1" fill="blue" tooltip="enable"><title>(2.07787,1495)</title></rect><rect x="318" y="193.807" width="6" height="6.19345" stroke="black" stroke-width="1" fill="blue" tooltip="enable"><title>(2.11783,1321)</title></rect><rect x="324" y="193.75" width="6" height="6.24971" stroke="black" stroke-width="1" fill="blue" tooltip="enable"><title>(2.15779,1333)</title></rect><rect x="330" y="194.154" width="6" height="5.8465" stroke="black" stroke-width="1" fill="blue" tooltip="enable"><title>(2.19775,1247)</title></rect><rect x="336" y="194.285" width="6" height="5.71522" stroke="black" stroke-width="1" fill="blue" tooltip="enable"><title>(2.23771,1219)</title></rect><rect x="342" y="194.665" width="6" height="5.33546" stroke="black" stroke-width="1" fill="blue" tooltip="enable"><title>(2.27767,1138)</title></rect><rect x="348" y="194.913" width="6" height="5.08697" stroke="black" stroke-width="1" fill="blue" tooltip="enable"><title>(2.31762,1085)</title></rect><rect x="354" y="195.387" width="6" height="4.61344" stroke="black" stroke-width="1" fill="blue" tooltip="enable"><title>(2.35758,984)</title></rect><rect x="360" y="195.354" width="6" height="4.64626" stroke="black" stroke-width="1" fill="blue" tooltip="enable"><title>(2.39754,991)</title></rect><rect x="366" y="196.024" width="6" height="3.97581" stroke="black" stroke-width="1" fill="blue" tooltip="enable"><title>(2.4375,848)</title></rect><rect x="372" y="195.738" width="6" height="4.2618" stroke="black" stroke-width="1" fill="blue" tooltip="enable"><title>(2.47746,909)</title></rect><rect x="378" y="195.944" width="6" height="4.05551" stroke="black" stroke-width="1" fill="blue" tooltip="enable"><title>(2.51742,865)</title></rect><rect x="384" y="196.418" width="6" height="3.58198" stroke="black" stroke-width="1" fill="blue" tooltip="enable"><title>(2.55738,764)</title></rect><rect x="390" y="196.601" width="6" height="3.39913" stroke="black" stroke-width="1" fill="blue" tooltip="enable"><title>(2.59734,725)</title></rect><rect x="396" y="196.742" width="6" height="3.25847" stroke="black" stroke-width="1" fill="blue" tooltip="enable"><title>(2.6373,695)</title></rect><rect x="402" y="197.126" width="6" height="2.87402" stroke="black" stroke-width="1" fill="blue" tooltip="enable"><title>(2.67726,613)</title></rect><rect x="408" y="197.187" width="6" height="2.81307" stroke="black" stroke-width="1" fill="blue" tooltip="enable"><title>(2.71721,600)</title></rect><rect x="414" y="197.323" width="6" height="2.67711" stroke="black" stroke-width="1" fill="blue" tooltip="enable"><title>(2.75717,571)</title></rect><rect x="420" y="197.229" width="6" height="2.77088" stroke="black" stroke-width="1" fill="blue" tooltip="enable"><title>(2.79713,591)</title></rect><rect x="426" y="197.66" width="6" height="2.33954" stroke="black" stroke-width="1" fill="blue" tooltip="enable"><title>(2.83709,499)</title></rect><rect x="432" y="197.656" width="6" height="2.34423" stroke="black" stroke-width="1" fill="blue" tooltip="enable"><title>(2.87705,500)</title></rect><rect x="438" y="197.778" width="6" height="2.22233" stroke="black" stroke-width="1" fill="blue" tooltip="enable"><title>(2.91701,474)</title></rect><rect x="444" y="197.914" width="6" height="2.08636" stroke="black" stroke-width="1" fill="blue" tooltip="enable"><title>(2.95697,445)</title></rect><rect x="450" y="198.125" width="6" height="1.87538" stroke="black" stroke-width="1" fill="blue" tooltip="enable"><title>(2.99693,400)</title></rect><rect x="456" y="198.139" width="6" height="1.86132" stroke="black" stroke-width="1" fill="blue" tooltip="enable"><title>(3.03689,397)</title></rect><rect x="462" y="198.406" width="6" height="1.59407" stroke="black" stroke-width="1" fill="blue" tooltip="enable"><title>(3.07685,340)</title></rect><rect x="468" y="198.209" width="6" height="1.79099" stroke="black" stroke-width="1" fill="blue" tooltip="enable"><title>(3.11681,382)</title></rect><rect x="474" y="198.472" width="6" height="1.52844" stroke="black" stroke-width="1" fill="blue" tooltip="enable"><title>(3.15676,326)</title></rect><rect x="480" y="198.49" width="6" height="1.50968" stroke="black" stroke-width="1" fill="blue" tooltip="enable"><title>(3.19672,322)</title></rect><rect x="486" y="198.908" width="6" height="1.09241" stroke="black" stroke-width="1" fill="blue" tooltip="enable"><title>(3.23668,233)</title></rect><rect x="492" y="198.819" width="6" height="1.18149" stroke="black" stroke-width="1" fill="blue" tooltip="enable"><title>(3.27664,252)</title></rect><rect x="498" y="199.076" width="6" height="0.923625" stroke="black" stroke-width="1" fill="blue" tooltip="enable"><title>(3.3166,197)</title></rect><rect x="504" y="199.029" width="6" height="0.97051" stroke="black" stroke-width="1" fill="blue" tooltip="enable"><title>(3.35656,207)</title></rect><rect x="510" y="199.109" width="6" height="0.890806" stroke="black" stroke-width="1" fill="blue" tooltip="enable"><title>(3.39652,190)</title></rect><rect x="516" y="199.137" width="6" height="0.862675" stroke="black" stroke-width="1" fill="blue" tooltip="enable"><title>(3.43648,184)</title></rect><rect x="522" y="199.306" width="6" height="0.693891" stroke="black" stroke-width="1" fill="blue" tooltip="enable"><title>(3.47644,148)</title></rect><rect x="528" y="199.414" width="6" height="0.586057" stroke="black" stroke-width="1" fill="blue" tooltip="enable"><title>(3.5164,125)</title></rect><rect x="534" y="199.466" width="6" height="0.534484" stroke="black" stroke-width="1" fill="blue" tooltip="enable"><title>(3.55635,114)</title></rect><rect x="540" y="199.517" width="6" height="0.482911" stroke="black" stroke-width="1" fill="blue" tooltip="enable"><title>(3.59631,103)</title></rect><rect x="546" y="199.592" width="6" height="0.407895" stroke="black" stroke-width="1" fill="blue" tooltip="enable"><title>(3.63627,87)</title></rect><rect x="552" y="199.658" width="6" height="0.342257" stroke="black" stroke-width="1" fill="blue" tooltip="enable"><title>(3.67623,73)</title></rect><rect x="558" y="199.653" width="6" height="0.346945" stroke="black" stroke-width="1" fill="blue" tooltip="enable"><title>(3.71619,74)</title></rect><rect x="564" y="199.78" width="6" height="0.220357" stroke="black" stroke-width="1" fill="blue" tooltip="enable"><title>(3.75615,47)</title></rect><rect x="570" y="199.831" width="6" height="0.168784" stroke="black" stroke-width="1" fill="blue" tooltip="enable"><title>(3.79611,36)</title></rect><rect x="576" y="199.794" width="6" height="0.206292" stroke="black" stroke-width="1" fill="blue" tooltip="enable"><title>(3.83607,44)</title></rect><rect x="582" y="199.916" width="6" height="0.0843921" stroke="black" stroke-width="1" fill="blue" tooltip="enable"><title>(3.87603,18)</title></rect><rect x="588" y="199.911" width="6" height="0.0890806" stroke="black" stroke-width="1" fill="blue" tooltip="enable"><title>(3.91599,19)</title></rect><rect x="594" y="199.953" width="6" height="0.0468845" stroke="black" stroke-width="1" fill="blue" tooltip="enable"><title>(3.95595,10)</title></rect><text x="30" y="240" font-size="20" fill="black">0</text>
<text x="600" y="240" font-size="20" fill="black">3.9959</text>
<polyline points="0,220,600,220" stroke="black" stroke-width="1" fill="none"/>
<text x="720" y="20" font-size="20" fill="black">42658</text>
<text x="720" y="200" font-size="20" fill="black">0</text>
<polyline points="660,0,660,200" stroke="black" stroke-width="1" fill="none"/>
</svg>