<?xml version="1.0" standalone="yes"?>
<!-- SVG graphic -->
<svg xmlns='http://www.w3.org/2000/svg' xmlns:xlink='http://www.w3.org/1999/xlink'
 version="1.1">
<rect x="0" y="0" width="6" height="200" stroke="black" stroke-width="1" fill="blue" tooltip="enable"><title>(0,87574)</title></rect><rect x="6" y="35.6087" width="6" height="164.391" stroke="black" stroke-width="1" fill="blue" tooltip="enable"><title>(0.0399242,71982)</title></rect><rect x="12" y="54.1531" width="6" height="145.847" stroke="black" stroke-width="1" fill="blue" tooltip="enable"><title>(0.0798484,63862)</title></rect><rect x="18" y="69.5526" width="6" height="130.447" stroke="black" stroke-width="1" fill="blue" tooltip="enable"><title>(0.119773,57119)</title></rect><rect x="24" y="85.3678" width="6" height="114.632" stroke="black" stroke-width="1" fill="blue" tooltip="enable"><title>(0.159697,50194)</title></rect><rect x="30" y="97.5701" width="6" height="102.43" stroke="black" stroke-width="1" fill="blue" tooltip="enable"><title>(0.199621,44851)</title></rect><rect x="36" y="110.608" width="6" height="89.3918" stroke="black" stroke-width="1" fill="blue" tooltip="enable"><title>(0.239545,39142)</title></rect><rect x="42" y="121.438" width="6" height="78.5621" stroke="black" stroke-width="1" fill="blue" tooltip="enable"><title>(0.27947,34400)</title></rect><rect x="48" y="131.891" width="6" height="68.1093" stroke="black" stroke-width="1" fill="blue" tooltip="enable"><title>(0.319394,29823)</title></rect><rect x="54" y="140.147" width="6" height="59.8534" stroke="black" stroke-width="1" fill="blue" tooltip="enable"><title>(0.359318,26208)</title></rect><rect x="60" y="148.297" width="6" height="51.7026" stroke="black" stroke-width="1" fill="blue" tooltip="enable"><title>(0.399242,22639)</title></rect><rect x="66" y="155.249" width="6" height="44.7507" stroke="black" stroke-width="1" fill="blue" tooltip="enable"><title>(0.439166,19595)</title></rect><rect x="72" y="160.159" width="6" height="39.8406" stroke="black" stroke-width="1" fill="blue" tooltip="enable"><title>(0.479091,17445)</title></rect><rect x="78" y="165.698" width="6" height="34.3024" stroke="black" stroke-width="1" fill="blue" tooltip="enable"><title>(0.519015,15020)</title></rect><rect x="84" y="170.427" width="6" height="29.5727" stroke="black" stroke-width="1" fill="blue" tooltip="enable"><title>(0.558939,12949)</title></rect><rect x="90" y="173.122" width="6" height="26.8778" stroke="black" stroke-width="1" fill="blue" tooltip="enable"><title>(0.598863,11769)</title></rect><rect x="96" y="176.947" width="6" height="23.0525" stroke="black" stroke-width="1" fill="blue" tooltip="enable"><title>(0.638787,10094)</title></rect><rect x="102" y="179.154" width="6" height="20.8464" stroke="black" stroke-width="1" fill="blue" tooltip="enable"><title>(0.678712,9128)</title></rect><rect x="108" y="181.501" width="6" height="18.4986" stroke="black" stroke-width="1" fill="blue" tooltip="enable"><title>(0.718636,8100)</title></rect><rect x="114" y="183.639" width="6" height="16.361" stroke="black" stroke-width="1" fill="blue" tooltip="enable"><title>(0.75856,7164)</title></rect><rect x="120" y="185.352" width="6" height="14.6482" stroke="black" stroke-width="1" fill="blue" tooltip="enable"><title>(0.798484,6414)</title></rect><rect x="126" y="187.03" width="6" height="12.9696" stroke="black" stroke-width="1" fill="blue" tooltip="enable"><title>(0.838409,5679)</title></rect><rect x="132" y="188.136" width="6" height="11.8643" stroke="black" stroke-width="1" fill="blue" tooltip="enable"><title>(0.878333,5195)</title></rect><rect x="138" y="189.732" width="6" height="10.2679" stroke="black" stroke-width="1" fill="blue" tooltip="enable"><title>(0.918257,4496)</title></rect><rect x="144" y="190.655" width="6" height="9.34524" stroke="black" stroke-width="1" fill="blue" tooltip="enable"><title>(0.958181,4092)</title></rect><rect x="150" y="191.434" width="6" height="8.56647" stroke="black" stroke-width="1" fill="blue" tooltip="enable"><title>(0.998105,3751)</title></rect><rect x="156" y="192.436" width="6" height="7.56389" stroke="black" stroke-width="1" fill="blue" tooltip="enable"><title>(1.03803,3312)</title></rect><rect x="162" y="192.929" width="6" height="7.07059" stroke="black" stroke-width="1" fill="blue" tooltip="enable"><title>(1.07795,3096)</title></rect><rect x="168" y="193.87" width="6" height="6.12967" stroke="black" stroke-width="1" fill="blue" tooltip="enable"><title>(1.11788,2684)</title></rect><rect x="174" y="194.188" width="6" height="5.81223" stroke="black" stroke-width="1" fill="blue" tooltip="enable"><title>(1.1578,2545)</title></rect><rect x="180" y="194.581" width="6" height="5.41942" stroke="black" stroke-width="1" fill="blue" tooltip="enable"><title>(1.19773,2373)</title></rect><rect x="186" y="195.213" width="6" height="4.78681" stroke="black" stroke-width="1" fill="blue" tooltip="enable"><title>(1.23765,2096)</title></rect><rect x="192" y="195.64" width="6" height="4.35974" stroke="black" stroke-width="1" fill="blue" tooltip="enable"><title>(1.27757,1909)</title></rect><rect x="198" y="195.901" width="6" height="4.09939" stroke="black" stroke-width="1" fill="blue" tooltip="enable"><title>(1.3175,1795)</title></rect><rect x="204" y="196.047" width="6" height="3.95323" stroke="black" stroke-width="1" fill="blue" tooltip="enable"><title>(1.35742,1731)</title></rect><rect x="210" y="196.474" width="6" height="3.52616" stroke="black" stroke-width="1" fill="blue" tooltip="enable"><title>(1.39735,1544)</title></rect><rect x="216" y="196.762" width="6" height="3.2384" stroke="black" stroke-width="1" fill="blue" tooltip="enable"><title>(1.43727,1418)</title></rect><rect x="222" y="197.113" width="6" height="2.8867" stroke="black" stroke-width="1" fill="blue" tooltip="enable"><title>(1.4772,1264)</title></rect><rect x="228" y="197.285" width="6" height="2.71542" stroke="black" stroke-width="1" fill="blue" tooltip="enable"><title>(1.51712,1189)</title></rect><rect x="234" y="197.36" width="6" height="2.64005" stroke="black" stroke-width="1" fill="blue" tooltip="enable"><title>(1.55704,1156)</title></rect><rect x="240" y="197.52" width="6" height="2.48019" stroke="black" stroke-width="1" fill="blue" tooltip="enable"><title>(1.59697,1086)</title></rect><rect x="246" y="197.65" width="6" height="2.35001" stroke="black" stroke-width="1" fill="blue" tooltip="enable"><title>(1.63689,1029)</title></rect><rect x="252" y="197.977" width="6" height="2.02343" stroke="black" stroke-width="1" fill="blue" tooltip="enable"><title>(1.67682,886)</title></rect><rect x="258" y="197.981" width="6" height="2.01886" stroke="black" stroke-width="1" fill="blue" tooltip="enable"><title>(1.71674,884)</title></rect><rect x="264" y="198.221" width="6" height="1.77907" stroke="black" stroke-width="1" fill="blue" tooltip="enable"><title>(1.75667,779)</title></rect><rect x="270" y="198.303" width="6" height="1.69685" stroke="black" stroke-width="1" fill="blue" tooltip="enable"><title>(1.79659,743)</title></rect><rect x="276" y="198.493" width="6" height="1.5073" stroke="black" stroke-width="1" fill="blue" tooltip="enable"><title>(1.83651,660)</title></rect><rect x="282" y="198.605" width="6" height="1.39539" stroke="black" stroke-width="1" fill="blue" tooltip="enable"><title>(1.87644,611)</title></rect><rect x="288" y="198.694" width="6" height="1.30632" stroke="black" stroke-width="1" fill="blue" tooltip="enable"><title>(1.91636,572)</title></rect><rect x="294" y="198.728" width="6" height="1.27207" stroke="black" stroke-width="1" fill="blue" tooltip="enable"><title>(1.95629,557)</title></rect><rect x="300" y="198.785" width="6" height="1.21497" stroke="black" stroke-width="1" fill="blue" tooltip="enable"><title>(1.99621,532)</title></rect><rect x="306" y="198.856" width="6" height="1.14418" stroke="black" stroke-width="1" fill="blue" tooltip="enable"><title>(2.03613,501)</title></rect><rect x="312" y="199" width="6" height="1.0003" stroke="black" stroke-width="1" fill="blue" tooltip="enable"><title>(2.07606,438)</title></rect><rect x="318" y="198.997" width="6" height="1.00258" stroke="black" stroke-width="1" fill="blue" tooltip="enable"><title>(2.11598,439)</title></rect><rect x="324" y="199.064" width="6" height="0.936351" stroke="black" stroke-width="1" fill="blue" tooltip="enable"><title>(2.15591,410)</title></rect><rect x="330" y="199.176" width="6" height="0.824446" stroke="black" stroke-width="1" fill="blue" tooltip="enable"><title>(2.19583,361)</title></rect><rect x="336" y="199.244" width="6" height="0.755932" stroke="black" stroke-width="1" fill="blue" tooltip="enable"><title>(2.23576,331)</title></rect><rect x="342" y="199.169" width="6" height="0.831297" stroke="black" stroke-width="1" fill="blue" tooltip="enable"><title>(2.27568,364)</title></rect><rect x="348" y="199.274" width="6" height="0.726243" stroke="black" stroke-width="1" fill="blue" tooltip="enable"><title>(2.3156,318)</title></rect><rect x="354" y="199.322" width="6" height="0.678284" stroke="black" stroke-width="1" fill="blue" tooltip="enable"><title>(2.35553,297)</title></rect><rect x="360" y="199.393" width="6" height="0.607486" stroke="black" stroke-width="1" fill="blue" tooltip="enable"><title>(2.39545,266)</title></rect><rect x="366" y="199.527" width="6" height="0.472743" stroke="black" stroke-width="1" fill="blue" tooltip="enable"><title>(2.43538,207)</title></rect><rect x="372" y="199.42" width="6" height="0.580081" stroke="black" stroke-width="1" fill="blue" tooltip="enable"><title>(2.4753,254)</title></rect><rect x="378" y="199.511" width="6" height="0.48873" stroke="black" stroke-width="1" fill="blue" tooltip="enable"><title>(2.51523,214)</title></rect><rect x="384" y="199.484" width="6" height="0.516135" stroke="black" stroke-width="1" fill="blue" tooltip="enable"><title>(2.55515,226)</title></rect><rect x="390" y="199.514" width="6" height="0.486446" stroke="black" stroke-width="1" fill="blue" tooltip="enable"><title>(2.59507,213)</title></rect><rect x="396" y="199.564" width="6" height="0.436203" stroke="black" stroke-width="1" fill="blue" tooltip="enable"><title>(2.635,191)</title></rect><rect x="402" y="199.552" width="6" height="0.447621" stroke="black" stroke-width="1" fill="blue" tooltip="enable"><title>(2.67492,196)</title></rect><rect x="408" y="199.667" width="6" height="0.333432" stroke="black" stroke-width="1" fill="blue" tooltip="enable"><title>(2.71485,146)</title></rect><rect x="414" y="199.655" width="6" height="0.344851" stroke="black" stroke-width="1" fill="blue" tooltip="enable"><title>(2.75477,151)</title></rect><rect x="420" y="199.655" width="6" height="0.344851" stroke="black" stroke-width="1" fill="blue" tooltip="enable"><title>(2.7947,151)</title></rect><rect x="426" y="199.657" width="6" height="0.342567" stroke="black" stroke-width="1" fill="blue" tooltip="enable"><title>(2.83462,150)</title></rect><rect x="432" y="199.735" width="6" height="0.264919" stroke="black" stroke-width="1" fill="blue" tooltip="enable"><title>(2.87454,116)</title></rect><rect x="438" y="199.747" width="6" height="0.2535" stroke="black" stroke-width="1" fill="blue" tooltip="enable"><title>(2.91447,111)</title></rect><rect x="444" y="199.728" width="6" height="0.27177" stroke="black" stroke-width="1" fill="blue" tooltip="enable"><title>(2.95439,119)</title></rect><rect x="450" y="199.731" width="6" height="0.269486" stroke="black" stroke-width="1" fill="blue" tooltip="enable"><title>(2.99432,118)</title></rect><rect x="456" y="199.781" width="6" height="0.219243" stroke="black" stroke-width="1" fill="blue" tooltip="enable"><title>(3.03424,96)</title></rect><rect x="462" y="199.715" width="6" height="0.285473" stroke="black" stroke-width="1" fill="blue" tooltip="enable"><title>(3.07416,125)</title></rect><rect x="468" y="199.79" width="6" height="0.210108" stroke="black" stroke-width="1" fill="blue" tooltip="enable"><title>(3.11409,92)</title></rect><rect x="474" y="199.801" width="6" height="0.198689" stroke="black" stroke-width="1" fill="blue" tooltip="enable"><title>(3.15401,87)</title></rect><rect x="480" y="199.861" width="6" height="0.139311" stroke="black" stroke-width="1" fill="blue" tooltip="enable"><title>(3.19394,61)</title></rect><rect x="486" y="199.831" width="6" height="0.169" stroke="black" stroke-width="1" fill="blue" tooltip="enable"><title>(3.23386,74)</title></rect><rect x="492" y="199.849" width="6" height="0.15073" stroke="black" stroke-width="1" fill="blue" tooltip="enable"><title>(3.27379,66)</title></rect><rect x="498" y="199.858" width="6" height="0.141595" stroke="black" stroke-width="1" fill="blue" tooltip="enable"><title>(3.31371,62)</title></rect><rect x="504" y="199.895" width="6" height="0.105054" stroke="black" stroke-width="1" fill="blue" tooltip="enable"><title>(3.35363,46)</title></rect><rect x="510" y="199.858" width="6" height="0.141595" stroke="black" stroke-width="1" fill="blue" tooltip="enable"><title>(3.39356,62)</title></rect><rect x="516" y="199.881" width="6" height="0.118757" stroke="black" stroke-width="1" fill="blue" tooltip="enable"><title>(3.43348,52)</title></rect><rect x="522" y="199.895" width="6" height="0.105054" stroke="black" stroke-width="1" fill="blue" tooltip="enable"><title>(3.47341,46)</title></rect><rect x="528" y="199.909" width="6" height="0.0913513" stroke="black" stroke-width="1" fill="blue" tooltip="enable"><title>(3.51333,40)</title></rect><rect x="534" y="199.915" width="6" height="0.0845" stroke="black" stroke-width="1" fill="blue" tooltip="enable"><title>(3.55326,37)</title></rect><rect x="540" y="199.931" width="6" height="0.0685135" stroke="black" stroke-width="1" fill="blue" tooltip="enable"><title>(3.59318,30)</title></rect><rect x="546" y="199.929" width="6" height="0.0707973" stroke="black" stroke-width="1" fill="blue" tooltip="enable"><title>(3.6331,31)</title></rect><rect x="552" y="199.911" width="6" height="0.0890675" stroke="black" stroke-width="1" fill="blue" tooltip="enable"><title>(3.67303,39)</title></rect><rect x="558" y="199.947" width="6" height="0.052527" stroke="black" stroke-width="1" fill="blue" tooltip="enable"><title>(3.71295,23)</title></rect><rect x="564" y="199.952" width="6" height="0.0479594" stroke="black" stroke-width="1" fill="blue" tooltip="enable"><title>(3.75288,21)</title></rect><rect x="570" y="199.952" width="6" height="0.0479594" stroke="black" stroke-width="1" fill="blue" tooltip="enable"><title>(3.7928,21)</title></rect><rect x="576" y="199.952" width="6" height="0.0479594" stroke="black" stroke-width="1" fill="blue" tooltip="enable"><title>(3.83272,21)</title></rect><rect x="582" y="199.982" width="6" height="0.0182703" stroke="black" stroke-width="1" fill="blue" tooltip="enable"><title>(3.87265,8)</title></rect><rect x="588" y="199.982" width="6" height="0.0182703" stroke="black" stroke-width="1" fill="blue" tooltip="enable"><title>(3.91257,8)</title></rect><rect x="594" y="199.991" width="6" height="0.00913513" stroke="black" stroke-width="1" fill="blue" tooltip="enable"><title>(3.9525,4)</title></rect><text x="30" y="240" font-size="20" fill="black">0</text>
<text x="600" y="240" font-size="20" fill="black">3.99242</text>
<polyline points="0,220,600,220" stroke="black" stroke-width="1" fill="none"/>
<text x="720" y="20" font-size="20" fill="black">87574</text>
<text x="720" y="200" font-size="20" fill="black">0</text>
<polyline points="660,0,660,200" stroke="black" stroke-width="1" fill="none"/>
</svg>