ply
format ascii 1.0
element vertex 1000
property float x
property float y
property float z
property uchar red
property uchar green
property uchar blue
end_header
0 0 0 0 255 0
  0.941003 -0.0931945   0.325312 0 255 0
-0.503107 -0.364147   1.92604 255 255 255
0.0712794 -0.323617    2.1562 255 255 255
-0.160385  0.352778    1.9171 255 255 255
-0.0615638  -0.353655    2.10535 255 255 255
-0.120898 0.0374322   1.93168 255 255 255
-0.0336103  -0.353442    2.12037 255 255 255
0.300409 0.253089  2.01238 255 255 255
-0.080005 0.0197752   1.94945 255 255 255
-0.135769  0.368587   1.92079 255 255 255
-0.029331 -0.309724    2.1114 255 255 255
 0.241161 0.0756306   2.12474 255 255 255
-0.00661052   -0.457844     2.15672 255 255 255
-0.142854 -0.414492   2.07969 255 255 255
-0.432285  0.225718   1.83211 255 255 255
-0.276427  0.287488   1.87859 255 255 255
0.067748 0.336355  2.00745 255 255 255
  0.27922 0.0856167   2.13715 255 255 255
-0.0433911   0.397034    1.94837 255 255 255
-0.384117  0.264907   1.84947 255 255 255
 0.26578 0.108397  2.12575 255 255 255
-0.0901997 -0.0515578    1.95266 255 255 255
  -0.1786 -0.442589    2.0741 255 255 255
0.230045 0.101434  2.11369 255 255 255
-0.478432  0.207076   1.81396 255 255 255
0.207225 0.123841  2.10366 255 255 255
-0.349254 -0.391253   1.99565 255 255 255
0.154937  0.19118    2.064 255 255 255
-0.373946  0.303764   1.84768 255 255 255
 -0.32363 -0.392045   2.00246 255 255 255
 -0.287455 -0.0589539    1.89573 255 255 255
0.0661054  0.271638   2.01668 255 255 255
0.161889 0.183041  2.07119 255 255 255
0.0747968 -0.440651   2.18787 255 255 255
-0.288332 -0.315387   2.00122 255 255 255
0.0157823 -0.101643   2.00686 255 255 255
-0.0110974 -0.0786941    1.99029 255 255 255
0.0641061  0.283928   2.01595 255 255 255
0.0587884  0.287491   2.01198 255 255 255
  0.199601 -0.0141174    2.11695 255 255 255
0.283589  0.13502  2.12701 255 255 255
0.0953478  0.265183   2.03035 255 255 255
-0.547702 0.0637996   1.79156 255 255 255
-0.280349  -0.39506   2.02614 255 255 255
  0.11036 -0.306023   2.16543 255 255 255
   -0.157314 -3.03968e-05       1.9274 255 255 255
-0.349766  0.298964   1.85512 255 255 255
-0.540145 0.0720744   1.78867 255 255 255
0.0764295 -0.417871   2.18998 255 255 255
 -0.162653 -0.0134565    1.92662 255 255 255
0.122556 0.299577  2.03544 255 255 255
0.256059 0.131099  2.11954 255 255 255
 0.16522 0.153119   2.0783 255 255 255
0.160646  0.15796  2.07733 255 255 255
-0.300576 -0.311125   1.99283 255 255 255
-0.0682541  -0.416186    2.12217 255 255 255
-0.303352 -0.323409   1.99291 255 255 255
 0.203386 0.0659372   2.11028 255 255 255
0.0795667 -0.423708     2.187 255 255 255
-0.379307 -0.383459   1.97981 255 255 255
0.0866762  0.372682   2.00645 255 255 255
0.0173445  -0.42913   2.15571 255 255 255
 0.284108 0.0438221   2.14126 255 255 255
-0.118177  0.356134   1.93082 255 255 255
-0.429027  0.113901   1.81912 255 255 255
-0.0678285 -0.0654129    1.96323 255 255 255
 0.147238 -0.231934   2.17298 255 255 255
-0.323405  -0.31173   1.98841 255 255 255
-0.22919 0.288261  1.89572 255 255 255
-0.291719 -0.355873   1.99881 255 255 255
-0.539917  0.256183   1.79661 255 255 255
-0.397543 -0.320848   1.96657 255 255 255
-0.578416 -0.275099   1.87515 255 255 255
0.145082 0.081909  2.08849 255 255 255
-0.446588  0.203696   1.82675 255 255 255
-0.441375  0.275138   1.83035 255 255 255
-0.236755 -0.285698   2.00858 255 255 255
   0.11591 -0.0141791    2.08867 255 255 255
-0.470802  0.389662   1.79573 255 255 255
 0.132738 0.0456217   2.09272 255 255 255
-0.180656 -0.279014   2.03625 255 255 255
 0.115531 0.0199552   2.08487 255 255 255
-0.0311486   0.344358    1.96207 255 255 255
-0.0336103  -0.353442    2.12037 255 255 255
-0.256124 -0.181545    1.9227 255 255 255
-0.236042 -0.254602   2.00719 255 255 255
-0.331472 -0.260928   1.96963 255 255 255
-0.445999  0.341545   1.81054 255 255 255
-0.581328  0.224874   1.78601 255 255 255
-0.390473    0.2962   1.83956 255 255 255
-0.0442519   0.378175    1.95536 255 255 255
0.272224 0.126141   2.1236 255 255 255
-0.639573 -0.275597   1.85073 255 255 255
0.0155348   0.37747   1.97619 255 255 255
-0.363988  0.290091   1.84631 255 255 255
-0.0668327   0.344956    1.94378 255 255 255
-0.516034 -0.271891    1.9001 255 255 255
 0.0327246 -0.0930372     2.0113 255 255 255
 0.238239 -0.026194   2.13113 255 255 255
-0.122435 -0.415934   2.09492 255 255 255
-0.590611 -0.216292   1.86016 255 255 255
-0.0112398  -0.014751     1.9746 255 255 255
-0.439192  0.394825   1.80657 255 255 255
0.0485102 -0.336012   2.14447 255 255 255
-0.0452486   -0.26283    2.09632 255 255 255
-0.401362 -0.407726   1.97559 255 255 255
  0.180882 -0.0468853    2.11685 255 255 255
0.333503 0.209532  2.04011 255 255 255
-0.171082  -0.30092   2.04611 255 255 255
-0.607724   0.27655   1.76043 255 255 255
-0.0128804  -0.425881    2.14901 255 255 255
0.335919 0.237064   2.0311 255 255 255
-0.715634 -0.260735   1.81416 255 255 255
-0.337583 -0.283293   1.97026 255 255 255
-0.111052  -0.13919   1.96858 255 255 255
-0.119682 -0.125405   1.95991 255 255 255
-0.128843  -0.11387    1.9557 255 255 255
0.205737 0.110498  2.10612 255 255 255
-0.054332  -0.41605   2.12663 255 255 255
-0.407876  0.330914   1.82447 255 255 255
-0.555323  0.177996   1.79689 255 255 255
 0.135315 -0.246542   2.17557 255 255 255
  0.167245 -0.0280141    2.10591 255 255 255
  0.249723 -0.0334375    2.14191 255 255 255
0.00277455   0.221043    1.99621 255 255 255
-0.634388  0.330133   1.74431 255 255 255
-0.0045611  -0.105531    2.00477 255 255 255
 0.133982 0.0157485   2.08899 255 255 255
-0.0639956  -0.105499    1.97609 255 255 255
-0.523797 -0.366223   1.91624 255 255 255
3.11997e-05   -0.390004     2.14679 255 255 255
-0.182121 -0.344307   2.04784 255 255 255
-0.606611  0.112332   1.73921 255 255 255
-0.0185761   0.376583    1.97097 255 255 255
   0.18514 -0.0229614    2.11252 255 255 255
-0.39901 0.263275  1.84239 255 255 255
-0.0332254  -0.251396      2.099 255 255 255
-0.323243 -0.359963   1.98577 255 255 255
 0.134035 -0.256621   2.17161 255 255 255
-0.643194  0.385834   1.73255 255 255 255
0.284363 0.145013  2.12741 255 255 255
-0.0358679  -0.418586    2.13615 255 255 255
-0.584671  0.284996   1.76805 255 255 255
-0.589961  0.191485   1.78535 255 255 255
-0.0649694   0.320282    1.93942 255 255 255
-0.058984 -0.399978   2.12254 255 255 255
 -0.54336 -0.375114   1.90907 255 255 255
 0.0156664 -0.0725982    2.00055 255 255 255
-0.127207 -0.103407   1.95393 255 255 255
-0.472983 -0.117675    1.8598 255 255 255
-0.257426 -0.401965   2.04064 255 255 255
-0.649657  0.376068   1.73203 255 255 255
-0.369548 -0.387439   1.98449 255 255 255
  -0.148051 -0.00609687     1.93112 255 255 255
-0.0368382  -0.226107    2.07594 255 255 255
0.00549239  -0.371139    2.14453 255 255 255
-0.154203 -0.340892   2.06221 255 255 255
-0.0131623 -0.0942186    1.99512 255 255 255
0.0014846 -0.380131   2.14568 255 255 255
-0.729972 -0.255508   1.80479 255 255 255
 0.169106 -0.263204   2.18255 255 255 255
-0.080991 -0.277142   2.08253 255 255 255
 -0.48427 -0.368841   1.93506 255 255 255
-0.00103465  -0.0910913     1.99796 255 255 255
-0.0481194  -0.396275    2.12613 255 255 255
-0.0308819  -0.222616     2.0786 255 255 255
-0.101105 -0.260677   2.06786 255 255 255
-0.509885 -0.359414   1.92438 255 255 255
 -0.58561 -0.196992   1.86292 255 255 255
-0.415712 -0.339631   1.94909 255 255 255
-0.472323 0.0907549   1.81038 255 255 255
 -0.124834 -0.0754733    1.94502 255 255 255
 0.163817 0.0253093   2.10155 255 255 255
-0.571687  0.191497   1.79206 255 255 255
-0.716632 -0.249621     1.815 255 255 255
  0.28264 0.0552469   2.13993 255 255 255
 0.123688 -0.161684   2.09871 255 255 255
-0.267293  0.108505   1.86231 255 255 255
  0.009785 -0.0907305    2.00175 255 255 255
  0.171775 -0.0579085    2.11294 255 255 255
  0.19172 0.0266681   2.10574 255 255 255
-0.450161   0.40416   1.80105 255 255 255
 -0.212547 0.00256072    1.90553 255 255 255
 -0.147283 -0.0710427    1.93883 255 255 255
-0.532827 -0.379438   1.91554 255 255 255
-0.61349 0.349903  1.75042 255 255 255
-0.161659 -0.237082   2.03211 255 255 255
-0.0935778  -0.408444    2.11137 255 255 255
 0.0831847 -0.0694473    2.06325 255 255 255
-0.617256   0.38022   1.74453 255 255 255
0.0254876 -0.318111   2.13705 255 255 255
-0.377992 -0.390009   1.98158 255 255 255
-0.429027  0.113901   1.81912 255 255 255
0.0103944  0.406939   1.96911 255 255 255
-0.654069  0.349781   1.73566 255 255 255
-0.570321 -0.196958   1.86526 255 255 255
 -0.051132 -0.0616949    1.96992 255 255 255
-0.401518 -0.342504   1.95401 255 255 255
0.0285691  0.360532   1.98739 255 255 255
  -0.171585 -0.00869717     1.92212 255 255 255
-0.606232  0.347578   1.75153 255 255 255
-0.121149 -0.462632    2.1073 255 255 255
-0.613099  0.384633   1.74685 255 255 255
-0.463536  -0.36746   1.94248 255 255 255
 0.23165 0.127355  2.10927 255 255 255
  0.161766 -0.0187407    2.10565 255 255 255
 -0.132351 -0.0728317     1.9424 255 255 255
-0.201013  0.337656     1.903 255 255 255
 -0.111964 -0.0741452    1.95274 255 255 255
-0.0684669  -0.102442    1.97352 255 255 255
-0.632701  0.357077   1.74103 255 255 255
0.0213287   0.37856    1.9801 255 255 255
-0.659443  0.347247   1.73327 255 255 255
-0.613414 -0.366892   1.88103 255 255 255
-0.0230968  -0.103296    1.99278 255 255 255
-0.577649  0.289266   1.77171 255 255 255
-0.250855 -0.282985   2.00408 255 255 255
-0.135769  0.368587   1.92079 255 255 255
0.00795399  -0.273017    2.11913 255 255 255
-0.000117738   -0.0760901      1.99644 255 255 255
0.0198958 -0.115654   2.00867 255 255 255
0.326167 0.241039  2.02709 255 255 255
-0.204408  0.327039   1.90271 255 255 255
-0.0316577 -0.0415448    1.97424 255 255 255
 0.166759 -0.257127   2.18518 255 255 255
-0.0760514  -0.151183    1.98259 255 255 255
  0.190785 -0.0138299    2.11492 255 255 255
-0.47325 0.035795  1.79539 255 255 255
-0.208166 -0.236215   2.01928 255 255 255
0.0147888 -0.108184   2.00279 255 255 255
0.109077 0.255508  2.03793 255 255 255
-0.216213 -0.366631   2.03851 255 255 255
-0.553464  0.208897   1.79256 255 255 255
-0.447784 -0.196386   1.89514 255 255 255
-0.139684 -0.365244   2.05949 255 255 255
-0.103678 -0.322088    2.0922 255 255 255
-0.647331  0.106627   1.72336 255 255 255
-0.24664 0.245643  1.89626 255 255 255
-0.559339 -0.234797   1.87516 255 255 255
 0.079111 -0.382223    2.1792 255 255 255
0.0350398  0.294046   1.99926 255 255 255
  -0.5777 -0.117677   1.82227 255 255 255
-0.465873  0.242295   1.82285 255 255 255
-0.366614  0.325688   1.84546 255 255 255
-0.180202 -0.317529   2.04767 255 255 255
 0.0242034 -0.0524195    2.00166 255 255 255
 -0.18827 -0.426763   2.06813 255 255 255
-0.506062  0.296046   1.79263 255 255 255
-0.473751  0.281845    1.8125 255 255 255
-0.479884 -0.311709   1.92115 255 255 255
-0.409628 -0.076814   1.86457 255 255 255
-0.650454  0.329216   1.73587 255 255 255
 -0.120759 0.00865589    1.93862 255 255 255
-0.360044 -0.345428   1.96952 255 255 255
 -0.474601 -0.0917147    1.85254 255 255 255
-0.199731  0.272986   1.89632 255 255 255
-0.58301 0.316585    1.764 255 255 255
 -0.516411 -0.0583089    1.83836 255 255 255
0.0303049 -0.435985   2.16997 255 255 255
-0.525662 -0.210416   1.88283 255 255 255
-0.565809  0.276477   1.78197 255 255 255
-0.614368 0.0138447   1.77201 255 255 255
-0.575058  -0.33812    1.8882 255 255 255
 -0.396921 -0.0453462    1.85397 255 255 255
-0.315358  0.293603   1.86191 255 255 255
-0.115629  0.202171   1.91271 255 255 255
-0.417902  0.307582   1.83113 255 255 255
-0.249885  0.294331   1.88462 255 255 255
-0.205283  0.172876   1.88339 255 255 255
 -0.348645 -0.0582165    1.86552 255 255 255
-0.668805 -0.332681    1.8505 255 255 255
-0.248723 -0.313035   2.01273 255 255 255
-0.430535 -0.333162   1.94183 255 255 255
0.0126182 -0.281239   2.12098 255 255 255
-0.556319  0.201356   1.79705 255 255 255
 0.115531 0.0199552   2.08487 255 255 255
-0.147406 -0.280037   2.04986 255 255 255
 -0.147398 -0.0507898    1.93405 255 255 255
-0.288144 0.0792845   1.86082 255 255 255
-0.159902 -0.437976   2.08089 255 255 255
 0.128855 -0.274393   2.17249 255 255 255
-0.405656 -0.214418   1.93083 255 255 255
-0.148573 -0.253601   2.03227 255 255 255
-0.366053  0.248912   1.84891 255 255 255
-0.390473    0.2962   1.83956 255 255 255
-0.135769  0.368587   1.92079 255 255 255
-0.42864 0.160606  1.82562 255 255 255
-0.0901795   0.226914    1.92421 255 255 255
-0.495904  0.137454   1.80765 255 255 255
-0.346652 -0.304772   1.98694 255 255 255
-0.363988  0.290091   1.84631 255 255 255
 -0.255957 -0.0220355     1.9084 255 255 255
-0.562974  0.114552   1.78818 255 255 255
-0.409556  0.036397   1.82112 255 255 255
-0.203871 -0.264837   2.02484 255 255 255
-0.314522 -0.356266   1.98763 255 255 255
 -0.326148 -0.0575524    1.87475 255 255 255
-0.374323 -0.229946   1.94312 255 255 255
-0.432518 -0.264939   1.92722 255 255 255
-0.270655 -0.329803   2.00523 255 255 255
0.106248 0.192594  2.04594 255 255 255
-0.208296  0.192779   1.88258 255 255 255
-0.0996684    0.24382    1.91768 255 255 255
-0.541061   0.16996   1.80134 255 255 255
 0.122183 -0.243446   2.16553 255 255 255
-0.0779798  -0.387232    2.12137 255 255 255
-0.0400596  -0.451737    2.13668 255 255 255
-0.467772  -0.06399   1.85006 255 255 255
-0.548421    0.3277   1.77785 255 255 255
-0.051218  0.137791   1.93227 255 255 255
-0.253704 -0.371084    2.0199 255 255 255
0.0948461 0.0407673   2.07453 255 255 255
0.0455672  0.335168   1.99521 255 255 255
-0.586445 0.0478578   1.78636 255 255 255
 -0.514833 -0.0812609    1.82777 255 255 255
0.253284 0.167142  2.10801 255 255 255
-0.0902424   0.111105    1.90814 255 255 255
0.0525023 -0.353571   2.14645 255 255 255
0.137681 0.188589  2.05992 255 255 255
-0.655016 0.0799691   1.72686 255 255 255
-0.609282 0.0848494   1.75745 255 255 255
-0.302851 0.0118998   1.87724 255 255 255
-0.425953 -0.103818   1.87082 255 255 255
-0.641544 0.0799597   1.74158 255 255 255
-0.309907 -0.291566   1.99297 255 255 255
 0.111126 0.0692245   2.07826 255 255 255
-0.561311  0.348726   1.77051 255 255 255
0.272224 0.126141   2.1236 255 255 255
-0.0811785 -0.0041046    1.95831 255 255 255
0.223105 0.115004  2.10737 255 255 255
-0.558597 -0.296857    1.8874 255 255 255
-0.244213  -0.40661   2.03936 255 255 255
-0.362822 -0.287081    1.9643 255 255 255
-0.645937  0.141973   1.71587 255 255 255
-0.501003 -0.193798   1.89494 255 255 255
  -0.12706 -0.0599876    1.94021 255 255 255
-0.110306  0.257462   1.92225 255 255 255
-0.101951 -0.149985   1.97333 255 255 255
0.134847   0.2181  2.05545 255 255 255
-0.0426901   0.181242    1.94422 255 255 255
0.150269 0.227343  2.05776 255 255 255
-0.457421  0.359207     1.806 255 255 255
-0.0594516   -0.44541    2.12981 255 255 255
 0.201633 0.0958883   2.10746 255 255 255
-0.389088 -0.288968   1.94078 255 255 255
0.0484526 -0.454368    2.1791 255 255 255
-0.614797 -0.302549     1.864 255 255 255
0.165456 0.212098  2.06689 255 255 255
 0.0139836 -0.0138802    1.98015 255 255 255
0.0772957  0.270661   2.02114 255 255 255
-0.405945 -0.236864   1.93163 255 255 255
-0.627618 -0.283887   1.85799 255 255 255
-0.136984 -0.100783   1.94976 255 255 255
 -0.612647 -0.0299944    1.78628 255 255 255
-0.663509  0.107718   1.71548 255 255 255
-0.681563  0.118042   1.70521 255 255 255
-0.453345 -0.358631   1.94058 255 255 255
-0.00863992    0.115016     1.97254 255 255 255
-0.424445 -0.346515    1.9451 255 255 255
-0.090112 -0.449143    2.1195 255 255 255
-0.462969  0.264813   1.82066 255 255 255
-0.536647 -0.311232   1.89883 255 255 255
0.350173 0.205112  2.05341 255 255 255
 -0.361347 -0.0404257    1.86242 255 255 255
 0.34604 0.192251   2.0533 255 255 255
  -0.614657 -0.00979907     1.77923 255 255 255
-0.494945 -0.288739    1.9119 255 255 255
-0.37329 0.366994  1.83602 255 255 255
0.320204 0.203848  2.03957 255 255 255
-0.202279 -0.320391   2.03751 255 255 255
0.12569 0.31639 2.03031 255 255 255
-0.539162  0.288748   1.78695 255 255 255
0.115065 0.306414  2.03092 255 255 255
-0.127006 0.0742764   1.92504 255 255 255
-0.439329  0.382424   1.80792 255 255 255
-0.033615 -0.125916   1.99079 255 255 255
-0.623983 0.0660191   1.75173 255 255 255
-0.362575  -0.40451    1.9881 255 255 255
-0.192458 -0.299519   2.03681 255 255 255
0.0518785 -0.118955   2.02181 255 255 255
-0.574999  0.208791   1.78974 255 255 255
 0.169814 -0.144662   2.14416 255 255 255
 -0.263618 -0.0655051    1.90624 255 255 255
0.0208791 -0.124958   2.01146 255 255 255
0.0208791 -0.124958   2.01146 255 255 255
-0.562211  0.328243   1.77366 255 255 255
-0.414096 0.0548808   1.81757 255 255 255
0.0870645 -0.371464   2.16531 255 255 255
 -0.683515 -0.0495066    1.77168 255 255 255
-0.688559   0.10872   1.70529 255 255 255
-0.724453 -0.246327   1.80899 255 255 255
-0.696682 -0.178605   1.81207 255 255 255
0.365606 0.238147    2.038 255 255 255
-0.533164  0.279179   1.78897 255 255 255
 -0.640501 -0.0635703    1.80463 255 255 255
-0.00746157  -0.0434432     1.98354 255 255 255
-0.648802  0.298253   1.74283 255 255 255
-0.328801 -0.272459   1.97002 255 255 255
-0.0943314  0.0143829     1.9464 255 255 255
   0.18514 -0.0229614    2.11252 255 255 255
-0.513895 -0.367065   1.92136 255 255 255
 -0.319716 -0.0717817    1.88228 255 255 255
 -0.102225 -0.0980177    1.96157 255 255 255
-0.453268  0.305361   1.81738 255 255 255
-0.0745943 -0.0633871    1.96106 255 255 255
-0.427499 -0.129292   1.88956 255 255 255
0.0988849 0.0841891   2.07131 255 255 255
-0.502018 -0.284687   1.90654 255 255 255
  0.131956 -0.0384607    2.09665 255 255 255
-0.058984 -0.399978   2.12254 255 255 255
0.0797142 -0.460145   2.19167 255 255 255
0.28375 0.12601  2.1302 255 255 255
-0.0482112   -0.46655    2.13299 255 255 255
0.119981 0.192923  2.05449 255 255 255
 -0.648494 -0.0682818     1.8002 255 255 255
  0.150824 -0.0205838     2.0986 255 255 255
-0.449766 -0.120168    1.8741 255 255 255
  0.205493 -0.0329587    2.12104 255 255 255
0.270679 0.251555  2.00907 255 255 255
-0.534937 0.0691739   1.79376 255 255 255
-0.472983 -0.117675    1.8598 255 255 255
0.352192 0.221522  2.04276 255 255 255
 -0.11057 -0.405197   2.10282 255 255 255
0.0630094  0.310976   2.00903 255 255 255
0.0163447 0.0151999   1.98826 255 255 255
-0.367511 -0.323532   1.96543 255 255 255
-0.253312 -0.392255   2.03855 255 255 255
 -0.253955 -0.0317402    1.90766 255 255 255
0.326017 0.226285  2.03111 255 255 255
-0.242536 -0.118884   1.92902 255 255 255
-0.0777827 -0.0792999    1.96489 255 255 255
-0.310555 -0.327319   1.99152 255 255 255
0.0802071 -0.472558   2.19231 255 255 255
0.0868191  0.254985   2.02703 255 255 255
0.117939 0.184026  2.05371 255 255 255
 -0.116948 0.00290846    1.93978 255 255 255
0.161889 0.183041  2.07119 255 255 255
 -0.266522 -0.0554487    1.90925 255 255 255
0.0993718 -0.116735   2.08176 255 255 255
 -0.24854 -0.421666   2.04745 255 255 255
-0.00351657   -0.340204     2.13278 255 255 255
-0.0435307   0.154285    1.93515 255 255 255
0.158077 0.171386  2.07535 255 255 255
-0.498611   0.27721    1.8013 255 255 255
0.0135019 -0.389834   2.15174 255 255 255
-0.613646 0.0712768   1.75578 255 255 255
-0.191668 -0.108576    1.9367 255 255 255
-0.314454  0.306877   1.86925 255 255 255
-0.643657  0.196793   1.71011 255 255 255
0.0654885 -0.350444   2.15427 255 255 255
-0.0493926 -0.0712641    1.98555 255 255 255
0.163063 0.199689  2.06787 255 255 255
 -0.125175 0.00185145     1.9378 255 255 255
-0.328447 -0.290311   1.97145 255 255 255
-0.662213  0.162003   1.70744 255 255 255
-0.665739 -0.312633   1.84623 255 255 255
0.355243  0.24231  2.03741 255 255 255
0.0394904  0.270537   2.00754 255 255 255
-0.67024 0.353074  1.73059 255 255 255
-0.659522   0.12291    1.7111 255 255 255
-0.541782  0.330303   1.77598 255 255 255
 -0.240407 -0.0499773    1.91718 255 255 255
-0.366232 0.0226296   1.84363 255 255 255
-0.595636  0.117601   1.74548 255 255 255
-0.415712 -0.339631   1.94909 255 255 255
-0.641388  0.106765   1.72422 255 255 255
-0.632781 -0.278636   1.85361 255 255 255
-0.0464171   0.225238    1.94285 255 255 255
-0.645976 -0.303387   1.85564 255 255 255
0.305582 0.122065  2.13866 255 255 255
-0.667996 0.0640088   1.72873 255 255 255
-0.0322209  0.0246192    1.96105 255 255 255
 -0.70796 -0.128689   1.78275 255 255 255
-0.0742026   0.323089    1.93371 255 255 255
0.0411325  0.348035   1.99055 255 255 255
-0.384977 -0.223591   1.93913 255 255 255
-0.505469 -0.194625   1.88931 255 255 255
0.0773408   0.25278   2.02376 255 255 255
0.223373 0.273249  1.98859 255 255 255
-0.675516 0.0863944   1.71383 255 255 255
0.0865338  0.245689   2.02504 255 255 255
-0.506066  0.277585   1.79905 255 255 255
0.0761152  0.316558   2.01275 255 255 255
0.0692287 -0.449642    2.1874 255 255 255
-0.218059 -0.357889    2.0334 255 255 255
-0.242657 -0.236709   1.99924 255 255 255
-0.115732 -0.109047   1.96257 255 255 255
0.167215 0.169727  2.07624 255 255 255
-0.683346 0.0987139   1.70976 255 255 255
-0.474173 -0.386483   1.93997 255 255 255
0.0200172 -0.085406   2.00495 255 255 255
-0.193821 -0.279198   2.03035 255 255 255
 -0.325611 -0.0272883    1.87327 255 255 255
 0.37006 0.215171  2.05157 255 255 255
0.232755  0.16785  2.10159 255 255 255
-0.596677  0.130821   1.74353 255 255 255
-0.675183  0.158937   1.69848 255 255 255
-0.256385  0.106582   1.86247 255 255 255
-0.110973 -0.127353   1.96386 255 255 255
-0.676836 -0.332044   1.84513 255 255 255
-0.147089  0.371734   1.91578 255 255 255
-0.147089  0.371734   1.91578 255 255 255
-0.472015  0.371417    1.7986 255 255 255
-0.632363 0.0365036   1.76149 255 255 255
-0.127073 -0.324498   2.07379 255 255 255
-0.0965937  -0.414855    2.10955 255 255 255
-0.00856302   0.0137711     1.96022 255 255 255
  0.247897 0.00534031    2.14061 255 255 255
-0.141703  -0.34008   2.06873 255 255 255
0.0956747 -0.104232   2.07493 255 255 255
 -0.310767 -0.0480589    1.89014 255 255 255
-0.257559 -0.421125   2.03827 255 255 255
-0.189634 -0.272339   2.03385 255 255 255
-0.083587 -0.239519   2.07529 255 255 255
-0.0410702  -0.367058     2.1149 255 255 255
-0.0480435  -0.365614    2.11178 255 255 255
-0.00152423   -0.364417     2.14577 255 255 255
0.286113 0.224593  2.02044 255 255 255
0.00377452 -0.0108807    1.97355 255 255 255
0.299535 0.243946  2.01693 255 255 255
0.131216 0.104997  2.07783 255 255 255
-0.636147 -0.283449   1.85252 255 255 255
-0.446859 0.0981162   1.81851 255 255 255
0.0606181  0.201908   2.02662 255 255 255
0.130541 0.241191  2.04574 255 255 255
-0.174009 -0.427484   2.07543 255 255 255
-0.00457202  -0.0337528     1.98173 255 255 255
-0.532185 -0.362636   1.91323 255 255 255
-0.391179 0.0420868   1.83155 255 255 255
-0.652227  0.181824   1.70474 255 255 255
-0.213974  0.294913   1.89631 255 255 255
  -0.15495 -0.0109618    1.92908 255 255 255
-0.664612  0.115369   1.71425 255 255 255
-0.594394  0.110951   1.74534 255 255 255
-0.0954541 -0.0503051     1.9494 255 255 255
-0.690083   0.13166   1.69988 255 255 255
-0.13208 -0.24375  2.04839 255 255 255
  0.03587 -0.210565   2.10235 255 255 255
0.0588643 -0.111617   2.02386 255 255 255
-0.303352 -0.323409   1.99291 255 255 255
-0.273581 -0.432469   2.03951 255 255 255
-0.233562 -0.279252   2.01142 255 255 255
-0.575029  0.346435   1.76536 255 255 255
0.0913802  0.270776   2.02694 255 255 255
-0.267402 -0.418843   2.02918 255 255 255
-0.231084  0.289461   1.89366 255 255 255
-0.58474 0.342452  1.76222 255 255 255
-0.286902 -0.308258   2.00244 255 255 255
0.297196 0.280395  2.00703 255 255 255
-0.0776671   0.165848    1.91711 255 255 255
-0.258571 -0.429153   2.03935 255 255 255
-0.485491 -0.274188   1.91388 255 255 255
  -0.1106 -0.152497   1.96777 255 255 255
 0.139152 -0.175714   2.10692 255 255 255
-0.629834  0.192184   1.71836 255 255 255
-0.286454 -0.421834   2.03002 255 255 255
 -0.133272 -0.0792452    1.94305 255 255 255
-0.0685156   -0.42353    2.12151 255 255 255
 -0.274032 -0.0902915    1.90676 255 255 255
-0.0145659 -0.0424378    1.98019 255 255 255
-0.601456 0.0830426   1.76254 255 255 255
 0.162517 -0.091727   2.14163 255 255 255
-0.0693148  -0.410052     2.1234 255 255 255
-0.527045 -0.354784   1.90516 255 255 255
-0.351351 -0.427643   1.99429 255 255 255
-0.405225 -0.133232    1.8979 255 255 255
-0.294701 -0.437689    2.0293 255 255 255
  0.21008 0.0673856   2.11518 255 255 255
-0.294176  -0.40869   2.02271 255 255 255
-0.673367 0.0922058   1.71432 255 255 255
 -0.45169 -0.355246   1.93882 255 255 255
0.0574824 -0.346952   2.14902 255 255 255
-0.0917206  -0.238379    2.07448 255 255 255
 0.264889 0.0102452   2.13157 255 255 255
-0.0351972 -0.0365944    1.96935 255 255 255
  0.210307 -0.0120526     2.1236 255 255 255
-0.383699  0.350573   1.83646 255 255 255
-0.102619   0.35712   1.91981 255 255 255
-0.704522 0.0553235   1.71549 255 255 255
0.105572 0.262755  2.03339 255 255 255
-0.551394 0.0740969   1.78415 255 255 255
0.0414019 -0.455476   2.17492 255 255 255
0.0200917  0.230681   2.00692 255 255 255
-0.381894  0.232368   1.84855 255 255 255
 -0.109887 0.00428113    1.94078 255 255 255
  0.202015 -0.0447836    2.12162 255 255 255
0.0798237  -0.35859   2.16344 255 255 255
0.256639 0.152273  2.11049 255 255 255
0.362182 0.231298  2.04363 255 255 255
  -0.158226 -0.00614356     1.92664 255 255 255
 0.31015 0.221082  2.02704 255 255 255
 0.118801 -0.274169   2.16431 255 255 255
0.0574766  0.267978   2.01511 255 255 255
-0.507625 -0.266609   1.90381 255 255 255
  0.202576 -0.0206365    2.11989 255 255 255
-0.207583  -0.42615   2.06304 255 255 255
-0.075211 -0.055685   1.95862 255 255 255
 -0.33594 -0.024776   1.87074 255 255 255
-0.0230968  -0.103296    1.99278 255 255 255
0.0545001  0.311436   2.00401 255 255 255
-0.203776  0.332476   1.90201 255 255 255
-0.0307903 -0.0461532    1.97326 255 255 255
-0.0208513  -0.111528     1.9951 255 255 255
-0.0446898  -0.225078    2.07067 255 255 255
  0.253238 -0.0398629    2.14453 255 255 255
 0.32098 0.276056  2.01407 255 255 255
0.00661575   -0.33008    2.13778 255 255 255
-0.0926377 -0.0850198    1.96071 255 255 255
-0.256211 -0.285458   2.00313 255 255 255
-0.0686691  -0.242212      2.085 255 255 255
0.170188  0.12905  2.08626 255 255 255
-0.0138715  -0.115405     1.9987 255 255 255
 -0.173585 -0.0630409    1.92004 255 255 255
-0.0138458  -0.473271    2.14961 255 255 255
-0.596231   -0.2495   1.87056 255 255 255
-0.0468823 -0.0831888    1.97946 255 255 255
0.0146401 -0.220975    2.0931 255 255 255
-0.0336795 -0.0606334    1.97953 255 255 255
0.208592 0.075518  2.11143 255 255 255
-0.214098 -0.404795   2.05597 255 255 255
0.0386513 -0.349592   2.14237 255 255 255
-0.575646  0.236975   1.78362 255 255 255
-0.200371 -0.419535   2.06485 255 255 255
 0.173807 0.0810255   2.10079 255 255 255
 0.176386 0.0291238    2.1022 255 255 255
-0.684718  0.352129   1.71796 255 255 255
-0.697901  0.366317   1.71357 255 255 255
-0.677214  0.318361   1.73111 255 255 255
-0.657522  0.332443   1.73444 255 255 255
-0.354944  -0.17482   1.90821 255 255 255
-0.388582 -0.259446   1.94405 255 255 255
-0.0836605   0.176987    1.93111 255 255 255
  0.145473 -0.0592146    2.11086 255 255 255
-0.293275 -0.253571   1.98204 255 255 255
-0.559339 -0.234797   1.87516 255 255 255
-0.338007  0.151218   1.85035 255 255 255
-0.0781358   0.223142    1.93484 255 255 255
-0.389044  0.156491   1.83957 255 255 255
 -0.18827 -0.426763   2.06813 255 255 255
-0.392367 0.0554051   1.82922 255 255 255
 -0.186008 -0.0158486    1.91544 255 255 255
 -0.68362 -0.165177   1.82808 255 255 255
-0.458746 -0.241045    1.9156 255 255 255
 0.0981896 -0.0522294    2.07988 255 255 255
  0.120613 -0.0957209    2.09486 255 255 255
  0.204342 -0.0571406    2.12592 255 255 255
0.00160278   0.202644     1.9922 255 255 255
-0.404289  -0.15093   1.89793 255 255 255
-0.0338123 -0.0450475    1.96597 255 255 255
-0.379922 -0.202319   1.94066 255 255 255
-0.0838366  -0.254916    2.07749 255 255 255
 -0.383231 -0.0234722    1.85072 255 255 255
-0.0457473  0.0281729     1.9576 255 255 255
 -0.278555 0.00744102    1.90495 255 255 255
-0.453692  0.368152    1.8054 255 255 255
0.304494 0.140801  2.13386 255 255 255
-0.351298 -0.233598   1.95169 255 255 255
-0.442576 -0.293782   1.93234 255 255 255
 -0.36057 0.0148097   1.84732 255 255 255
-0.370755  0.119316   1.83655 255 255 255
-0.602446   0.19339   1.78217 255 255 255
-0.022848  0.269562   1.97526 255 255 255
-0.543326  0.308367   1.78131 255 255 255
0.00408704   0.333838     1.9733 255 255 255
-0.495904  0.137454   1.80765 255 255 255
-0.342703  0.243183   1.85825 255 255 255
-0.657932 0.0934979   1.71949 255 255 255
-0.374323 -0.229946   1.94312 255 255 255
-0.0462563 0.00252119    1.95912 255 255 255
-0.394508 -0.164643   1.91876 255 255 255
-0.634269 0.0553925   1.74695 255 255 255
0.0240464 -0.216171   2.09885 255 255 255
-0.709921 -0.275363   1.80797 255 255 255
 -0.456839 -0.0670862    1.85119 255 255 255
 0.119624 -0.200193   2.13024 255 255 255
-0.446213 -0.396623   1.96046 255 255 255
-0.0480246  0.0478993    1.95014 255 255 255
0.112903 0.165726  2.05982 255 255 255
0.274478 0.219117  2.01995 255 255 255
 -0.13351 -0.128255   1.95836 255 255 255
0.150269 0.227343  2.05776 255 255 255
 0.082471 0.0748454   2.06483 255 255 255
-0.359667 -0.273472    1.9641 255 255 255
-0.197031 -0.100519   1.94018 255 255 255
  -0.372742 -0.00647113     1.85173 255 255 255
 -0.41783 -0.374022   1.96515 255 255 255
-0.0172954  -0.249404    2.10728 255 255 255
-0.000841617     0.239356      1.99324 255 255 255
-0.167956 -0.449934   2.08193 255 255 255
0.131291 0.118465  2.07452 255 255 255
-0.497488  0.153852   1.80683 255 255 255
-0.405083 -0.192525   1.93288 255 255 255
0.0163447 0.0151999   1.98826 255 255 255
-0.618783  0.104299   1.73997 255 255 255
-0.0942996  -0.276434    2.06919 255 255 255
-0.228882 -0.304086   2.01821 255 255 255
0.291136 0.155807  2.12809 255 255 255
0.0213317    0.3216   1.97639 255 255 255
-0.673171   0.11505   1.71099 255 255 255
-0.181471 -0.199203   2.01561 255 255 255
-0.389145  0.118701   1.83042 255 255 255
0.0982274 0.0611213   2.06126 255 255 255
-0.124729 -0.207729   2.01169 255 255 255
-0.373896  0.184587   1.84165 255 255 255
-0.458265  0.325944   1.81193 255 255 255
0.326176 0.226115  2.03066 255 255 255
-0.0372584  -0.136583    1.99245 255 255 255
-0.0116633   0.281804    1.98453 255 255 255
-0.403366  0.338898   1.82602 255 255 255
-0.0943314  0.0143829     1.9464 255 255 255
0.334688  0.22024  2.03406 255 255 255
-0.0626612  0.0228495    1.95576 255 255 255
0.172253 0.224062  2.06477 255 255 255
-0.0528669  -0.333262    2.10658 255 255 255
-0.262744  0.393327   1.83777 255 255 255
 -0.178489 -0.0716718    1.91853 255 255 255
-0.186001 -0.129736   1.97095 255 255 255
0.0153733 -0.338634   2.14137 255 255 255
-0.236305 -0.377792   2.03028 255 255 255
-0.0536016   -0.32184    2.09973 255 255 255
-0.0550403  -0.116951    1.98382 255 255 255
0.355243  0.24231  2.03741 255 255 255
-0.216199 -0.334586    2.0359 255 255 255
 -0.640501 -0.0635703    1.80463 255 255 255
-0.719775 -0.240355   1.81231 255 255 255
  0.215087 0.00609036    2.12779 255 255 255
 0.221323 0.0575022   2.12221 255 255 255
0.326167 0.241039  2.02709 255 255 255
-0.58634 0.179917  1.78755 255 255 255
0.0873165 0.0595495   2.05771 255 255 255
0.157569 0.260066  2.05071 255 255 255
 0.113077 -0.122989   2.08463 255 255 255
-0.707584  -0.22525   1.80179 255 255 255
 -0.309955 -0.0748506    1.89493 255 255 255
-0.566236   0.33483   1.76869 255 255 255
-0.0208108 -0.0379653    1.97495 255 255 255
-0.103656 0.0113575   1.94327 255 255 255
-0.471373  0.198637   1.82146 255 255 255
 0.176744 -0.154695   2.14905 255 255 255
-0.625877 -0.349987   1.87083 255 255 255
0.255123 0.223516  2.01095 255 255 255
-0.417967  0.320584   1.82235 255 255 255
-0.046163 -0.425588   2.13502 255 255 255
-0.642523 -0.346844   1.86459 255 255 255
-0.298431 -0.426585    2.0228 255 255 255
-0.614937 -0.254048   1.85807 255 255 255
 0.27981 0.227799  2.01816 255 255 255
-0.344314 -0.427411   1.99739 255 255 255
-0.477644 -0.110928   1.85408 255 255 255
-0.633565  0.051108   1.74702 255 255 255
0.120911 -0.21745  2.13762 255 255 255
0.0648115  0.319639    2.0096 255 255 255
-0.104629 -0.276863   2.06995 255 255 255
-0.628597  0.105025   1.73001 255 255 255
-0.266971 -0.413277   2.03421 255 255 255
0.265429 0.174605  2.11063 255 255 255
-0.357743 -0.190356   1.95186 255 255 255
0.130541 0.241191  2.04574 255 255 255
 0.37006 0.215171  2.05157 255 255 255
-0.0973282   0.256799    1.92341 255 255 255
 0.2312 0.28722 1.98643 255 255 255
 -0.248659 -0.0641049    1.90836 255 255 255
 -0.39188 -0.303829   1.93858 255 255 255
0.256171 0.241104  2.01082 255 255 255
0.304561 0.157981  2.12939 255 255 255
0.299192  0.20657  2.03309 255 255 255
-0.0407236  -0.390458    2.13084 255 255 255
-0.391423 0.0495083   1.83392 255 255 255
0.291326 0.274709  2.00514 255 255 255
-0.536189 -0.240406   1.88719 255 255 255
 0.135914 0.0180099   2.09046 255 255 255
-0.354359 -0.366302   1.97199 255 255 255
-0.354359 -0.366302   1.97199 255 255 255
0.132832 0.181554  2.05732 255 255 255
 -0.11359 -0.386244   2.08416 255 255 255
0.335827  0.25633  2.02453 255 255 255
-0.468774  0.249438   1.81819 255 255 255
-0.380569 0.0396486   1.83576 255 255 255
-0.707819 -0.294101   1.82242 255 255 255
-0.689064  0.164594     1.695 255 255 255
-0.679989 0.0564134   1.72143 255 255 255
 -0.40416 -0.360969   1.95263 255 255 255
-0.414231 -0.135623   1.89549 255 255 255
-0.651823  0.139243   1.71155 255 255 255
0.293184 0.222163  2.02213 255 255 255
-0.0413686   0.321443    1.96357 255 255 255
0.111437 0.230277  2.04151 255 255 255
 -0.153341 -0.0678491    1.93387 255 255 255
-0.00349008   -0.136627     2.00875 255 255 255
0.328143 0.219129  2.03473 255 255 255
0.330077 0.248031  2.02522 255 255 255
0.330077 0.248031  2.02522 255 255 255
-0.67691 0.370157  1.72317 255 255 255
-0.665242 0.0542983   1.73386 255 255 255
-0.556571  0.322053   1.77729 255 255 255
-0.61349 0.349903  1.75042 255 255 255
-0.671804  0.130391   1.70691 255 255 255
-0.457394 -0.230764   1.92153 255 255 255
0.331521 0.178034  2.14145 255 255 255
-0.379307 -0.383459   1.97981 255 255 255
-0.357887 -0.246393   1.95202 255 255 255
-0.230909 -0.214606   2.00954 255 255 255
-0.231084  0.289461   1.89366 255 255 255
-0.343529 -0.190184   1.95782 255 255 255
-0.60934 0.200497  1.77959 255 255 255
-0.415022 -0.282027   1.93606 255 255 255
0.0443108 -0.476169   2.18551 255 255 255
   0.251563 -0.00238559     2.13434 255 255 255
0.299815  0.15213  2.13112 255 255 255
-0.659855 0.0734426   1.73221 255 255 255
 -0.318873 -0.0438557    1.87955 255 255 255
    0.1867 -0.0554381    2.11541 255 255 255
 0.110495 -0.211986   2.13329 255 255 255
-0.368449 -0.184209   1.94604 255 255 255
-0.351351 -0.427643   1.99429 255 255 255
-0.354112  -0.18461   1.95361 255 255 255
-0.561499  0.268791   1.78131 255 255 255
-0.0153157  -0.100887    1.99453 255 255 255
-0.628555  0.046072   1.74732 255 255 255
 0.205906 -0.053933   2.12547 255 255 255
 0.118801 -0.274169   2.16431 255 255 255
 -0.060778 -0.0476465    1.96471 255 255 255
 0.135854 -0.169187   2.10267 255 255 255
-0.486691 -0.377034   1.93504 255 255 255
-0.0972157  -0.285694    2.07879 255 255 255
0.299533 0.232648  2.02356 255 255 255
-0.434066 -0.101619   1.86626 255 255 255
-0.59202 0.198588  1.78536 255 255 255
-0.499124 -0.388575   1.92764 255 255 255
-0.57403  0.10424  1.78455 255 255 255
-0.508581  0.252738   1.81225 255 255 255
-0.551394 0.0740969   1.78415 255 255 255
-0.368858 -0.303757   1.96582 255 255 255
0.249496 0.250479  2.00296 255 255 255
-0.121149 -0.462632    2.1073 255 255 255
0.307017 0.260455   2.0154 255 255 255
0.361021 0.203501  2.05407 255 255 255
 0.190406 0.0728962   2.10552 255 255 255
-0.351561 -0.268687   1.95978 255 255 255
-0.631965 -0.285229   1.85487 255 255 255
 0.150656 0.0548748   2.09621 255 255 255
-0.673495 -0.076055   1.79236 255 255 255
0.341819 0.262609   2.0246 255 255 255
 0.0107522 -0.0404195    1.98773 255 255 255
0.316703 0.273189  2.01373 255 255 255
-0.0919068 -0.0803968    1.96037 255 255 255
-0.214899 -0.246467   2.02034 255 255 255
-0.668926 0.0717823   1.72284 255 255 255
-0.00787686   -0.224063     2.07627 255 255 255
-0.678558 -0.327396   1.84304 255 255 255
0.0540884 -0.126081   2.01405 255 255 255
-0.267396  -0.10015   1.91339 255 255 255
0.361858 0.235785  2.04182 255 255 255
  -0.158226 -0.00614356     1.92664 255 255 255
 0.111437 -0.110883   2.08128 255 255 255
0.319686 0.265202  2.01584 255 255 255
0.0359933 -0.340081   2.14197 255 255 255
-0.123955  0.206811   1.91046 255 255 255
0.128266 0.191116  2.05571 255 255 255
-0.0380192  -0.474234    2.13717 255 255 255
-0.0223382 -0.0738555    1.98644 255 255 255
-0.507625 -0.266609   1.90381 255 255 255
-0.244798 -0.128007   1.92973 255 255 255
-0.124984 -0.429289   2.10353 255 255 255
0.164434 0.228673  2.06488 255 255 255
-0.236755 -0.285698   2.00858 255 255 255
-0.0881117   -0.41174    2.11268 255 255 255
 -0.472413 -0.0684347    1.85854 255 255 255
0.055871 0.236973  2.01811 255 255 255
-0.510096  0.182518   1.80676 255 255 255
-0.479884 -0.311709   1.92115 255 255 255
-0.0472774   0.242546    1.94874 255 255 255
-0.148103 -0.474776   2.09165 255 255 255
-0.0675499   0.124627    1.91905 255 255 255
-0.121075  0.268524   1.92029 255 255 255
-0.197864  0.415136   1.88844 255 255 255
0.0591571  0.319295   2.00385 255 255 255
-0.245619 -0.446903    2.0488 255 255 255
-0.609883  0.197907   1.74135 255 255 255
  0.121581 -0.0755659    2.09766 255 255 255
0.0380807 -0.115186   2.01403 255 255 255
 -0.38906 -0.352729   1.96453 255 255 255
0.12569 0.31639 2.03031 255 255 255
0.0971914 -0.306572   2.15968 255 255 255
  0.0166533 0.000582546     1.98895 255 255 255
 0.019503 -0.423666   2.16744 255 255 255
  0.146412 -0.0845206    2.11783 255 255 255
 0.141788 -0.270482   2.17424 255 255 255
 -0.226677 -0.0490612    1.91762 255 255 255
-0.533841 -0.291615   1.89954 255 255 255
-0.502018 -0.284687   1.90654 255 255 255
-0.608059  0.314386   1.75646 255 255 255
-0.311788 -0.409435   2.00956 255 255 255
0.116084 0.152663  2.06105 255 255 255
-0.105656  0.232561    1.9192 255 255 255
-0.203516 -0.453906   2.06352 255 255 255
 -0.223057 0.00568418    1.88894 255 255 255
-0.405512  0.222324   1.83918 255 255 255
-0.0729594   -0.43216    2.12313 255 255 255
 -0.573742 -0.0370193    1.79711 255 255 255
 -0.45948 -0.389285   1.94867 255 255 255
-0.154727 -0.351198   2.06046 255 255 255
 0.14587 0.163448  2.07168 255 255 255
 -0.13515 -0.242958   2.04639 255 255 255
-0.549053 -0.261296   1.88862 255 255 255
0.377495 0.237556  2.04437 255 255 255
-0.176469 -0.130834   1.97739 255 255 255
 0.30082 0.169797  2.12634 255 255 255
 -0.571843 -0.0531944    1.80107 255 255 255
 -0.127324 -0.0912002     1.9542 255 255 255
0.0773408   0.25278   2.02376 255 255 255
0.311578  0.28195  2.01078 255 255 255
 0.170265 -0.050939    2.1131 255 255 255
-0.262111 -0.330259   2.01148 255 255 255
-0.0420483  -0.478977    2.13721 255 255 255
-0.286375 -0.448956   2.03407 255 255 255
-0.115732 -0.109047   1.96257 255 255 255
 -0.162653 -0.0134565    1.92662 255 255 255
  0.139126 -0.0840993    2.11391 255 255 255
-0.432134 -0.244352   1.93083 255 255 255
-0.0765536  -0.256389    2.08547 255 255 255
 0.104286 -0.111595    2.0823 255 255 255
0.233097   0.1209   2.1111 255 255 255
  -0.1991 -0.255095   2.03049 255 255 255
-0.475818  -0.32379   1.92697 255 255 255
-0.119199 -0.115192   1.95768 255 255 255
0.137361 0.355688  2.02159 255 255 255
-0.177727 -0.113221   1.94319 255 255 255
-0.354469 -0.252749   1.95191 255 255 255
-0.523734  0.307298   1.78755 255 255 255
-0.0345929   0.114945     1.9483 255 255 255
-0.286503 -0.439578   2.03424 255 255 255
-0.276864 -0.449482   2.04037 255 255 255
-0.634236  0.110203   1.72719 255 255 255
-0.440249 -0.161384   1.87969 255 255 255
-0.187616 -0.207904   2.01166 255 255 255
-0.261256 -0.408718   2.03472 255 255 255
-0.0722237  -0.352136    2.09871 255 255 255
-0.126439 -0.464829    2.1045 255 255 255
-0.124492  0.347757   1.92756 255 255 255
-0.356691 -0.427263    1.9911 255 255 255
-0.193362 -0.464983   2.06796 255 255 255
-0.301182 -0.343636   1.99461 255 255 255
-0.638288 0.0290128     1.762 255 255 255
 -0.11378 -0.444498   2.10814 255 255 255
-0.478727 0.0435094   1.81937 255 255 255
0.260739 0.228747  2.01245 255 255 255
 -0.213151 -0.0192818    1.89776 255 255 255
-0.216871 -0.344412   2.03181 255 255 255
-0.405364 -0.116551   1.89754 255 255 255
 -0.403625 -0.0570887    1.86026 255 255 255
  0.173065 -0.0778188    2.11594 255 255 255
 -0.15353 -0.408732   2.05934 255 255 255
-0.563362 -0.271733   1.88231 255 255 255
-0.620341 -0.040149   1.79137 255 255 255
0.0549866  0.109117   2.04178 255 255 255
0.132577 0.347798  2.02489 255 255 255
-0.679605  0.122831   1.70554 255 255 255
0.0101277  0.387157   1.97073 255 255 255
 -0.08777 -0.418805   2.11219 255 255 255
-0.296965 -0.453936   2.03206 255 255 255
-0.279703 -0.443274   2.03465 255 255 255
  -0.48547 -0.0326285    1.82806 255 255 255
 0.169879 0.0277768   2.10251 255 255 255
-0.598728 -0.348397   1.88109 255 255 255
-0.593704  0.256198   1.77427 255 255 255
-0.263624   -0.3142    2.0094 255 255 255
-0.680975  0.167218   1.69736 255 255 255
-0.119686 -0.456289   2.10629 255 255 255
0.275106 0.231988  2.01507 255 255 255
-0.625817  0.388461   1.74133 255 255 255
-0.044624 -0.108081   1.98682 255 255 255
0.0114452 -0.110278     2.007 255 255 255
-0.126417  0.315551   1.92375 255 255 255
  -0.57585 -0.0406059    1.79743 255 255 255
-0.315725 -0.428448   2.01229 255 255 255
-0.0150903 -0.0875913    1.98914 255 255 255
-0.0968003  -0.055764    1.95221 255 255 255
-0.395692 0.0543657   1.82995 255 255 255
-0.367848 0.0276263   1.84217 255 255 255
-0.508869 -0.189802   1.89342 255 255 255
0.0401438 -0.094694   2.01373 255 255 255
-0.421782  -0.17027    1.8935 255 255 255
-0.109933 0.0134685    1.9408 255 255 255
-0.573918  0.254586   1.78126 255 255 255
-0.657522  0.332443   1.73444 255 255 255
-0.351439 -0.195246   1.94763 255 255 255
-0.560931 -0.368357   1.89387 255 255 255
-0.495248 -0.260128   1.91325 255 255 255
0.0712362 -0.358677   2.15514 255 255 255
-0.0357684     0.2445    1.95694 255 255 255
-0.0129726  -0.353383    2.12504 255 255 255
 -0.48427 -0.368841   1.93506 255 255 255
-0.103756 -0.284667    2.0754 255 255 255
-0.0769262  -0.167691    2.02299 255 255 255
-0.476048  0.372895    1.7948 255 255 255
-0.0257752  -0.372858    2.12327 255 255 255
 -0.301995 -0.0570864    1.89201 255 255 255
 0.132919 0.0546867   2.07931 255 255 255
