ply
format ascii 1.0
element vertex 950
property float x
property float y
property float z
property uchar red
property uchar green
property uchar blue
end_header
-0.0131764 0.00353203 -0.0170589 0 255 0
  0.962168 -0.0987738   0.326166 0 255 0
 -0.49875 -0.364697   1.90797 255 255 255
0.0760704 -0.322867   2.13639 255 255 255
-0.161059  0.353612   1.90921 255 255 255
-0.0569323  -0.353349     2.0869 255 255 255
-0.119809 0.0370377   1.92186 255 255 255
-0.0288627  -0.352874    2.10146 255 255 255
-0.0785735  0.0193802    1.93939 255 255 255
-0.136446  0.369584   1.91325 255 255 255
-0.0248714  -0.309454    2.09326 255 255 255
 0.244314 0.0756937   2.11012 255 255 255
-0.00117542    -0.45677     2.13541 255 255 255
-0.138062 -0.414218   2.06117 255 255 255
-0.432806  0.225208   1.82078 255 255 255
-0.277216  0.287732   1.86948 255 255 255
0.0685772  0.337107   1.99919 255 255 255
 0.28245 0.085772    2.122 255 255 255
-0.0437138   0.398301    1.94142 255 255 255
-0.384852  0.264651   1.83891 255 255 255
0.268858 0.108479  2.11136 255 255 255
-0.0884049 -0.0521099    1.94188 255 255 255
-0.173649 -0.442241   2.05526 255 255 255
0.233025 0.101451  2.09981 255 255 255
-0.478794  0.206445   1.80196 255 255 255
0.210031 0.123931   2.0904 255 255 255
-0.344869  -0.39152   1.97792 255 255 255
0.157118 0.191392  2.05284 255 255 255
-0.374939  0.303694   1.83756 255 255 255
-0.319278 -0.392291   1.98486 255 255 255
 -0.286275 -0.0598143    1.88406 255 255 255
0.0673294  0.272173    2.0075 255 255 255
0.164158 0.183195  2.05971 255 255 255
0.0802574 -0.439132   2.16548 255 255 255
-0.284528 -0.315877   1.98464 255 255 255
0.0185039 -0.102102   1.99468 255 255 255
-0.00867799  -0.0791891     1.97871 255 255 255
0.0652413  0.284448   2.00692 255 255 255
0.0598549  0.288021   2.00309 255 255 255
  0.203008 -0.0140591     2.1018 255 255 255
0.286596 0.135069  2.11281 255 255 255
0.0967862  0.265633   2.02084 255 255 255
-0.547073 0.0625639   1.77788 255 255 255
-0.275867 -0.395177   2.00829 255 255 255
 0.115124 -0.305118   2.14541 255 255 255
   -0.156125 -0.000569668      1.91702 255 255 255
-0.35073 0.298989  1.84528 255 255 255
-0.539673 0.0709581   1.77528 255 255 255
0.0818088 -0.416437   2.16774 255 255 255
 -0.161413 -0.0140346    1.91611 255 255 255
 0.12396 0.300123   2.0262 255 255 255
0.259009 0.131201  2.10566 255 255 255
0.167668  0.15322  2.06628 255 255 255
0.163057 0.158084  2.06538 255 255 255
-0.296856 -0.311664   1.97639 255 255 255
-0.0631792  -0.415535    2.10244 255 255 255
-0.299555  -0.32392   1.97636 255 255 255
 0.206447 0.0659788   2.09619 255 255 255
0.0849465 -0.422272   2.16483 255 255 255
-0.375011 -0.383808   1.96219 255 255 255
0.0874198  0.373685   1.99863 255 255 255
0.0226213 -0.428097   2.13478 255 255 255
 0.287511 0.0439672   2.12549 255 255 255
-0.118659  0.357055   1.92316 255 255 255
-0.429193  0.113206    1.8077 255 255 255
-0.0658309 -0.0659727    1.95222 255 255 255
 0.151725 -0.231238   2.15337 255 255 255
-0.319643 -0.312289   1.97177 255 255 255
-0.229813  0.288588   1.88695 255 255 255
-0.287736 -0.356264   1.98204 255 255 255
-0.540216  0.255302   1.78372 255 255 255
-0.393622 -0.321518   1.94936 255 255 255
-0.574491 -0.276133   1.85729 255 255 255
 0.147857 0.0820364   2.07534 255 255 255
-0.446988  0.202988   1.81513 255 255 255
-0.442104  0.274743   1.81908 255 255 255
-0.233165 -0.286203   1.99262 255 255 255
  0.119025 -0.0141995    2.07459 255 255 255
-0.472328  0.389781   1.78504 255 255 255
 0.135628 0.0455029    2.0791 255 255 255
-0.176905 -0.279363   2.02002 255 255 255
0.118476 0.019943  2.07125 255 255 255
-0.0310435   0.345286    1.95442 255 255 255
-0.0288627  -0.352874    2.10146 255 255 255
-0.254047 -0.182446   1.90999 255 255 255
-0.23263 -0.25517   1.9915 255 255 255
-0.328179 -0.261678   1.95379 255 255 255
-0.447273  0.341598    1.7999 255 255 255
-0.581188  0.223614    1.7722 255 255 255
-0.391463  0.296048   1.82925 255 255 255
-0.0444335   0.379268    1.94806 255 255 255
0.275236 0.126203  2.10947 255 255 255
-0.635253 -0.276552   1.83213 255 255 255
0.0157557  0.378585   1.96882 255 255 255
-0.364969  0.290125   1.83637 255 255 255
-0.0670329   0.345882    1.93635 255 255 255
-0.512416 -0.272832   1.88294 255 255 255
  0.035466 -0.0935438    1.99915 255 255 255
  0.241803 -0.0261131    2.11521 255 255 255
-0.117524 -0.415534   2.07595 255 255 255
-0.587075 -0.217492   1.84267 255 255 255
-0.00925268  -0.0151712     1.96406 255 255 255
-0.440816  0.395078    1.7964 255 255 255
0.0532915 -0.335328     2.125 255 255 255
-0.0411172  -0.262755    2.07909 255 255 255
-0.396856  -0.40801   1.95759 255 255 255
  0.184391 -0.0468079     2.1014 255 255 255
-0.167131 -0.301159   2.02945 255 255 255
-0.607852  0.275484   1.74665 255 255 255
-0.00762492   -0.424941     2.12832 255 255 255
-0.710783 -0.261719   1.79465 255 255 255
-0.334142 -0.283993   1.95419 255 255 255
-0.108715  -0.13987   1.95646 255 255 255
-0.117499 -0.126078   1.94806 255 255 255
-0.126774  -0.11456   1.94399 255 255 255
0.208608 0.110596  2.09262 255 255 255
-0.0492413  -0.415362     2.1068 255 255 255
-0.409143  0.330942   1.81431 255 255 255
-0.555089   0.17687   1.78333 255 255 255
 0.139883 -0.245732   2.15571 255 255 255
  0.170601 -0.0280063    2.09109 255 255 255
  0.253371 -0.0332554    2.12542 255 255 255
0.00386927   0.221348    1.98685 255 255 255
-0.634628  0.329001   1.73032 255 255 255
-0.00187847   -0.105981     1.99251 255 255 255
 0.137002 0.0157208   2.07522 255 255 255
-0.0616764  -0.106072    1.96438 255 255 255
 -0.51938 -0.366776   1.89804 255 255 255
0.00509886  -0.389188    2.12658 255 255 255
-0.177919 -0.344439   2.03069 255 255 255
 -0.6063 0.111207   1.7254 255 255 255
-0.0185319    0.37762    1.96346 255 255 255
  0.188535 -0.0229426    2.09748 255 255 255
-0.399762  0.262938   1.83168 255 255 255
-0.0291306  -0.251336    2.08184 255 255 255
-0.319271 -0.360406   1.96895 255 255 255
0.138616 -0.25587  2.15181 255 255 255
-0.643745  0.384604   1.71874 255 255 255
 0.28732 0.144981  2.11331 255 255 255
-0.0307114  -0.417785    2.11599 255 255 255
-0.58502 0.284003  1.75475 255 255 255
-0.58957 0.190124  1.77121 255 255 255
-0.0650545   0.321133    1.93192 255 255 255
-0.0539938  -0.399379    2.10299 255 255 255
-0.538804 -0.375649   1.89063 255 255 255
 0.0182051 -0.0730438    1.98883 255 255 255
-0.125204 -0.104082   1.94236 255 255 255
-0.471117 -0.118912   1.84536 255 255 255
-0.252823 -0.401979   2.02251 255 255 255
-0.650071  0.374801   1.71802 255 255 255
-0.365217 -0.387778   1.96682 255 255 255
  -0.146785 -0.00663883      1.9207 255 255 255
-0.0330539  -0.226239    2.05987 255 255 255
0.0104563 -0.370395   2.12461 255 255 255
-0.149919  -0.34094   2.04483 255 255 255
-0.0106378 -0.0947309    1.98324 255 255 255
0.00649975  -0.379355    2.12562 255 255 255
-0.725031 -0.256627   1.78512 255 255 255
 0.173751 -0.262299   2.16215 255 255 255
-0.0768984  -0.277168    2.06548 255 255 255
-0.479918 -0.369389   1.91704 255 255 255
0.00152657 -0.0915842    1.98608 255 255 255
-0.0431307  -0.395657    2.10653 255 255 255
-0.0270921  -0.222744    2.06249 255 255 255
-0.0972107  -0.260825    2.05135 255 255 255
-0.505511 -0.359995   1.90623 255 255 255
-0.582188 -0.198244   1.84554 255 255 255
-0.411832 -0.340275   1.93206 255 255 255
-0.472214 0.0898305   1.79812 255 255 255
 -0.123057 -0.0761229    1.93396 255 255 255
 0.166926 0.0253342   2.08741 255 255 255
-0.571407  0.190321   1.77825 255 255 255
-0.711802 -0.250659   1.79547 255 255 255
 0.285999 0.0554152   2.12433 255 255 255
 0.127487 -0.161671   2.08288 255 255 255
-0.267399    0.1082   1.85284 255 255 255
 0.0123994 -0.0912115    1.98981 255 255 255
  0.175293 -0.0578691    2.09755 255 255 255
 0.194897 0.0266785   2.09145 255 255 255
-0.451824  0.404497   1.79078 255 255 255
  -0.21164 0.00195734    1.89509 255 255 255
  -0.14561 -0.0717064    1.92774 255 255 255
-0.528261 -0.379936   1.89712 255 255 255
-0.614013  0.348986   1.73694 255 255 255
-0.158183 -0.237502   2.01653 255 255 255
-0.0885955  -0.407925      2.092 255 255 255
 0.0862832 -0.0697986     2.0496 255 255 255
-0.617935  0.379441   1.73116 255 255 255
0.0301583 -0.317521     2.118 255 255 255
-0.373642 -0.390336   1.96387 255 255 255
-0.429193  0.113206    1.8077 255 255 255
0.0103955  0.408253   1.96215 255 255 255
-0.654227   0.34859   1.72136 255 255 255
-0.567047 -0.198156   1.84819 255 255 255
-0.0490553 -0.0622197    1.95886 255 255 255
 -0.39765 -0.343109   1.93707 255 255 255
0.0289959  0.361485   1.97967 255 255 255
  -0.170422 -0.00927558     1.91167 255 255 255
-0.606828  0.346664   1.73821 255 255 255
-0.115902 -0.461965   2.08745 255 255 255
-0.61382 0.383885  1.73355 255 255 255
 -0.45926 -0.367979   1.92466 255 255 255
0.234518 0.127418  2.09581 255 255 255
  0.165079 -0.0186893    2.09093 255 255 255
 -0.130618 -0.0734799    1.93135 255 255 255
-0.201798  0.338326   1.89478 255 255 255
 -0.110099 -0.0747709    1.94158 255 255 255
-0.0661986  -0.103038    1.96189 255 255 255
-0.633127  0.356047   1.72724 255 255 255
0.0215855  0.379642   1.97269 255 255 255
-0.659539  0.346047   1.71886 255 255 255
-0.608519 -0.367404   1.86192 255 255 255
-0.020567 -0.103814   1.98084 255 255 255
-0.578058   0.28821   1.75853 255 255 255
-0.247301 -0.283523   1.98812 255 255 255
-0.136446  0.369584   1.91325 255 255 255
0.0122991 -0.272723   2.10117 255 255 255
0.00236656 -0.0765548    1.98474 255 255 255
 0.022704 -0.116125   1.99634 255 255 255
-0.205145  0.327643   1.89438 255 255 255
-0.0295973 -0.0420226    1.96335 255 255 255
 0.171394 -0.256218   2.16474 255 255 255
-0.0734758  -0.151797    1.97022 255 255 255
  0.194167 -0.0137842    2.09987 255 255 255
-0.473077 0.0349783   1.78328 255 255 255
0.0175022 -0.108688    1.9907 255 255 255
 0.11065 0.255884  2.02815 255 255 255
-0.211933  -0.36678   2.02119 255 255 255
-0.553461  0.207813   1.77925 255 255 255
 -0.44521 -0.197362   1.87992 255 255 255
-0.135343 -0.365286   2.04217 255 255 255
-0.0992626   -0.32197    2.07425 255 255 255
-0.646675  0.105396   1.70879 255 255 255
-0.247047   0.24576   1.88697 255 255 255
-0.555844 -0.235886   1.85792 255 255 255
0.0842798 -0.381021   2.15781 255 255 255
0.0358757  0.294571   1.99072 255 255 255
-0.575421 -0.118694   1.80656 255 255 255
-0.46638 0.241655  1.81106 255 255 255
-0.367769  0.325854   1.83565 255 255 255
-0.176139 -0.317734   2.03074 255 255 255
 0.0266868 -0.0527962    1.99011 255 255 255
-0.183444 -0.426541   2.04956 255 255 255
-0.50694 0.295279  1.78081 255 255 255
-0.474525  0.281454   1.80093 255 255 255
-0.476074  -0.31248   1.90394 255 255 255
 -0.408325 -0.0778503    1.85151 255 255 255
-0.650569  0.328067    1.7216 255 255 255
  -0.11945 0.00818953    1.92838 255 255 255
-0.356172 -0.346018   1.95271 255 255 255
 -0.472961 -0.0929374    1.83838 255 255 255
-0.200269  0.273391   1.88793 255 255 255
-0.583585  0.315651   1.75094 255 255 255
 -0.514789 -0.0597324    1.82376 255 255 255
0.0356946 -0.434762   2.14839 255 255 255
-0.522509 -0.211698   1.86616 255 255 255
-0.566136  0.275544   1.76883 255 255 255
-0.613015 0.0122661   1.75694 255 255 255
-0.570681 -0.338718    1.8699 255 255 255
 -0.395992 -0.0462747    1.84162 255 255 255
-0.316307  0.293702   1.85254 255 255 255
-0.115531  0.202447   1.90462 255 255 255
-0.41892 0.307348  1.82049 255 255 255
-0.250666  0.294725   1.87586 255 255 255
-0.20548 0.172924   1.8747 255 255 255
 -0.347696 -0.0591148    1.85368 255 255 255
-0.663758 -0.333507   1.83096 255 255 255
-0.244926 -0.313468   1.99632 255 255 255
-0.426685 -0.333872   1.92478 255 255 255
 0.017006 -0.280956    2.1029 255 255 255
-0.556187  0.200188   1.78354 255 255 255
0.118476 0.019943  2.07125 255 255 255
-0.143561 -0.280317   2.03348 255 255 255
 -0.145877 -0.0514227    1.92324 255 255 255
-0.288088 0.0787629   1.85085 255 255 255
-0.154957 -0.437637     2.062 255 255 255
 0.133503 -0.273673   2.15248 255 255 255
-0.402745 -0.215398   1.91521 255 255 255
-0.145043 -0.254033   2.01673 255 255 255
-0.366792  0.248774   1.83867 255 255 255
-0.391463  0.296048   1.82925 255 255 255
-0.136446  0.369584   1.91325 255 255 255
-0.428951  0.159992   1.81424 255 255 255
-0.0900407   0.227304    1.91627 255 255 255
-0.49588  0.13653   1.7951 255 255 255
-0.342847 -0.305324   1.97007 255 255 255
-0.364969  0.290125   1.83637 255 255 255
 -0.254857 -0.0227977    1.89706 255 255 255
-0.562479  0.113318    1.7744 255 255 255
-0.409414 0.0355456   1.80971 255 255 255
-0.200267 -0.265273   2.00884 255 255 255
-0.310581 -0.356715   1.97089 255 255 255
 -0.325153 -0.0584229    1.86307 255 255 255
-0.371341 -0.230842   1.92761 255 255 255
-0.429215 -0.265884   1.91093 255 255 255
 -0.26679 -0.330236   1.98866 255 255 255
0.108144 0.192738  2.03532 255 255 255
-0.208594  0.192878   1.87396 255 255 255
-0.0997032   0.244303    1.90994 255 255 255
-0.540874  0.168822   1.78799 255 255 255
 0.126695 -0.242698   2.14614 255 255 255
-0.0730227  -0.386648    2.10188 255 255 255
-0.0347476  -0.450824    2.11617 255 255 255
 -0.466361 -0.0651628    1.83625 255 255 255
-0.549223  0.327107   1.76541 255 255 255
-0.249516 -0.371329   2.00278 255 255 255
0.0975829 0.0406906   2.06144 255 255 255
0.0462573  0.336027   1.98714 255 255 255
-0.585389 0.0464785    1.7718 255 255 255
 -0.513264 -0.0826771    1.81339 255 255 255
0.256035 0.167207  2.09498 255 255 255
-0.0896849   0.111045     1.8999 255 255 255
0.0573727  -0.35277   2.12673 255 255 255
0.139789 0.188763  2.04885 255 255 255
-0.654078 0.0786222   1.71194 255 255 255
-0.608548 0.0834766   1.74307 255 255 255
 -0.30223 0.0111558   1.86623 255 255 255
-0.424327 -0.104947   1.85712 255 255 255
-0.640585 0.0786118   1.72671 255 255 255
-0.306245 -0.292155    1.9765 255 255 255
0.113778 0.069089  2.06536 255 255 255
-0.562174  0.348129   1.75798 255 255 255
0.275236 0.126203  2.10947 255 255 255
 -0.0795603 -0.00458149     1.94779 255 255 255
0.225996 0.115058  2.09387 255 255 255
-0.554597 -0.297804   1.86955 255 255 255
-0.239645 -0.406624   2.02141 255 255 255
 -0.35932 -0.287792   1.94799 255 255 255
-0.645562  0.140935   1.70159 255 255 255
-0.498001  -0.19494   1.87859 255 255 255
 -0.125406 -0.0606103    1.92938 255 255 255
-0.110372  0.257963   1.91429 255 255 255
-0.0995011  -0.150642    1.96105 255 255 255
0.136787 0.218345   2.0448 255 255 255
-0.0420113   0.181421    1.93587 255 255 255
0.152233 0.227616  2.04716 255 255 255
-0.458766  0.359205   1.79528 255 255 255
-0.0541986  -0.444629    2.10956 255 255 255
 0.204555 0.0959429   2.09378 255 255 255
-0.385756 -0.289755   1.92477 255 255 255
0.0539628  -0.45284   2.15696 255 255 255
 -0.61045 -0.303532   1.84549 255 255 255
 0.16759 0.212337  2.05585 255 255 255
 0.0160997 -0.0142154    1.96958 255 255 255
0.0785835  0.271149   2.01189 255 255 255
-0.402894 -0.237868   1.91582 255 255 255
-0.623298 -0.284869   1.83944 255 255 255
-0.135056 -0.101487   1.93827 255 255 255
 -0.610897 -0.0312976    1.77084 255 255 255
-0.662732  0.106494   1.70064 255 255 255
-0.680696  0.116869   1.69011 255 255 255
-0.449219 -0.359226   1.92303 255 255 255
-0.00727983    0.114954     1.96309 255 255 255
-0.420529 -0.347144   1.92801 255 255 255
-0.0848735  -0.448407    2.09947 255 255 255
-0.463637  0.264247   1.80908 255 255 255
-0.532656 -0.311965   1.88114 255 255 255
 -0.360482 -0.0413207    1.85053 255 255 255
  -0.61308 -0.0112576    1.76394 255 255 255
-0.491238 -0.289741   1.89469 255 255 255
-0.374737  0.367373   1.82649 255 255 255
-0.198263 -0.320645   2.02068 255 255 255
0.127003 0.317044   2.0214 255 255 255
-0.53975 0.288087  1.77442 255 255 255
0.116377 0.306985  2.02187 255 255 255
-0.126177 0.0739935    1.9156 255 255 255
-0.440873  0.382666   1.79766 255 255 255
-0.0310148  -0.126459    1.97866 255 255 255
-0.623051 0.0647531   1.73707 255 255 255
-0.358156 -0.404754   1.97035 255 255 255
-0.188582  -0.29984   2.02029 255 255 255
0.0548709 -0.119386   2.00913 255 255 255
-0.574804  0.207494   1.77595 255 255 255
 0.173826 -0.144339   2.12663 255 255 255
 -0.262317 -0.0663348     1.8946 255 255 255
0.0237507 -0.125439   1.99896 255 255 255
0.0237507 -0.125439   1.99896 255 255 255
-0.56293 0.327541  1.76097 255 255 255
-0.414073 0.0541205   1.80624 255 255 255
0.0920944  -0.37046   2.14462 255 255 255
 -0.680869 -0.0510743    1.75464 255 255 255
-0.687541  0.107386   1.68997 255 255 255
-0.719601 -0.247364   1.78942 255 255 255
-0.692572 -0.179958   1.79333 255 255 255
-0.533737  0.278548    1.7765 255 255 255
 -0.637926 -0.0651883    1.78787 255 255 255
-0.00524879  -0.0438759     1.97249 255 255 255
-0.648713  0.296978   1.72838 255 255 255
-0.325456 -0.273185   1.95415 255 255 255
-0.0929307  0.0139601    1.93624 255 255 255
  0.188535 -0.0229426    2.09748 255 255 255
 -0.50949 -0.367626   1.90319 255 255 255
 -0.318572 -0.0726608    1.87042 255 255 255
  -0.10014 -0.0986473    1.95005 255 255 255
-0.454239  0.305056   1.80627 255 255 255
-0.0726407 -0.0639541    1.95007 255 255 255
-0.425471 -0.130411   1.87518 255 255 255
 0.101422 0.0841814   2.05873 255 255 255
-0.498374 -0.285543   1.88944 255 255 255
  0.135239 -0.0385208    2.08208 255 255 255
-0.0539938  -0.399379    2.10299 255 255 255
0.0852664 -0.458493   2.16891 255 255 255
0.286807 0.126095  2.11576 255 255 255
-0.0428468  -0.465586    2.11246 255 255 255
0.121978 0.193088   2.0436 255 255 255
 -0.645847 -0.0699807    1.78331 255 255 255
  0.154078 -0.0206258    2.08413 255 255 255
-0.447853 -0.121358   1.85974 255 255 255
  0.208996 -0.0329172    2.10553 255 255 255
-0.534429  0.067985   1.78036 255 255 255
-0.471117 -0.118912   1.84536 255 255 255
-0.105653 -0.404758   2.08371 255 255 255
0.0639641  0.311637   2.00045 255 255 255
0.0183867 0.0149083   1.97767 255 255 255
-0.363775 -0.324172   1.94878 255 255 255
-0.248789 -0.392311    2.0206 255 255 255
  -0.25282 -0.0325066    1.89632 255 255 255
-0.240726 -0.119721   1.91671 255 255 255
-0.0757189 -0.0798784    1.95363 255 255 255
-0.306729 -0.327824   1.97488 255 255 255
0.0858057 -0.470893   2.16937 255 255 255
0.0882515  0.255399    2.0175 255 255 255
 0.11997 0.184197  2.04276 255 255 255
 -0.115592 0.00243403     1.9295 255 255 255
0.164158 0.183195  2.05971 255 255 255
  -0.26523 -0.0562777    1.89753 255 255 255
  0.10283 -0.116961     2.067 255 255 255
-0.243788 -0.421569   2.02904 255 255 255
0.00123458  -0.339636    2.11361 255 255 255
-0.0427916     0.1544    1.92687 255 255 255
0.160399  0.17147  2.06361 255 255 255
-0.499318  0.276745   1.78939 255 255 255
 0.018589 -0.388971   2.13136 255 255 255
-0.612815 0.0700321   1.74131 255 255 255
-0.189846 -0.109345   1.92488 255 255 255
-0.315381  0.307023   1.85977 255 255 255
-0.64364 0.195818  1.69614 255 255 255
 0.070388 -0.349573   2.13427 255 255 255
-0.0471201 -0.0717389    1.97388 255 255 255
0.165246  0.19988  2.05668 255 255 255
 -0.123848 0.00136196    1.92749 255 255 255
-0.324991    -0.291   1.95543 255 255 255
-0.661807  0.160922   1.69294 255 255 255
-0.660924 -0.313443   1.82699 255 255 255
0.0405382  0.270995   1.99852 255 255 255
-0.670221  0.351872   1.71594 255 255 255
-0.658932  0.121838    1.6965 255 255 255
-0.542686  0.329815   1.76376 255 255 255
 -0.239081 -0.0507525    1.90565 255 255 255
-0.365905 0.0217309    1.8324 255 255 255
-0.595394  0.116508   1.73183 255 255 255
-0.411832 -0.340275   1.93206 255 255 255
-0.640804  0.105599   1.70979 255 255 255
-0.628494 -0.279586   1.83509 255 255 255
-0.0459533    0.22565    1.93478 255 255 255
-0.641333 -0.304336   1.83662 255 255 255
0.308705 0.122097  2.12376 255 255 255
-0.666764 0.0625626   1.71337 255 255 255
-0.0305942  0.0242708    1.95109 255 255 255
 -0.70436 -0.130214   1.76456 255 255 255
-0.0744019   0.323951    1.92633 255 255 255
0.0417079  0.348971   1.98269 255 255 255
-0.382025 -0.224513   1.92359 255 255 255
-0.502504 -0.195794   1.87301 255 255 255
0.0787266  0.253181   2.01427 255 255 255
-0.674486 0.0850304   1.69864 255 255 255
0.0879885  0.246051   2.01551 255 255 255
-0.50675 0.276945  1.78701 255 255 255
0.0771119  0.317219   2.00419 255 255 255
0.0747273 -0.448136   2.16493 255 255 255
-0.213879   -0.3581   2.01631 255 255 255
-0.239416 -0.237341   1.98386 255 255 255
-0.113598 -0.109693   1.95079 255 255 255
 0.16959 0.169883  2.06445 255 255 255
-0.682305 0.0973564   1.69446 255 255 255
-0.469749 -0.386936   1.92193 255 255 255
 0.0226562 -0.0858702      1.993 255 255 255
-0.190112  -0.27959   2.01418 255 255 255
 -0.324782 -0.0281725    1.86176 255 255 255
0.235429 0.167943  2.08884 255 255 255
-0.596513  0.129719   1.72994 255 255 255
-0.674685  0.157945   1.68379 255 255 255
-0.25648 0.106256  1.85314 255 255 255
-0.108732 -0.128012   1.95197 255 255 255
-0.671779 -0.332727    1.8256 255 255 255
-0.147854  0.372746   1.90825 255 255 255
-0.147854  0.372746   1.90825 255 255 255
-0.473416  0.371359   1.78775 255 255 255
-0.631036 0.0350838    1.7463 255 255 255
-0.122794  -0.32451   2.05633 255 255 255
-0.091592 -0.414321   2.09018 255 255 255
-0.00681103   0.0134431     1.95039 255 255 255
  0.251403 0.00557701    2.12458 255 255 255
 -0.13737 -0.340055   2.05121 255 255 255
0.0990324 -0.104481   2.06054 255 255 255
 -0.309674 -0.0488612    1.87835 255 255 255
-0.252885 -0.421086    2.0201 255 255 255
-0.185927 -0.272721   2.01766 255 255 255
-0.0797369  -0.239663    2.05881 255 255 255
-0.0363136  -0.366607    2.09605 255 255 255
-0.043316 -0.365219   2.09304 255 255 255
0.00342851  -0.363681    2.12585 255 255 255
0.00578249 -0.0112714    1.96317 255 255 255
0.133785 0.105059   2.0653 255 255 255
-0.631813 -0.284335   1.83395 255 255 255
-0.446848  0.097271   1.80664 255 255 255
0.0622173  0.202166   2.01648 255 255 255
0.132316  0.24157  2.03562 255 255 255
-0.169128 -0.427178    2.0567 255 255 255
-0.00241706  -0.0341912     1.97085 255 255 255
-0.527737 -0.363261   1.89493 255 255 255
-0.391012 0.0412643   1.82027 255 255 255
-0.652089  0.180919   1.69061 255 255 255
-0.21463 0.295378  1.88783 255 255 255
 -0.153687 -0.0115235     1.9186 255 255 255
-0.66387 0.114178  1.69943 255 255 255
-0.594139  0.109842    1.7317 255 255 255
-0.0937082 -0.0508685    1.93868 255 255 255
-0.689216  0.130404   1.68468 255 255 255
-0.128436 -0.244066   2.03247 255 255 255
0.0398255 -0.210448   2.08573 255 255 255
0.0618616 -0.111997   2.01119 255 255 255
-0.299555  -0.32392   1.97636 255 255 255
-0.268776 -0.432368   2.02102 255 255 255
-0.229986 -0.279758   1.99546 255 255 255
-0.575794  0.345801   1.75257 255 255 255
0.0927559  0.271253   2.01757 255 255 255
-0.262812 -0.418868   2.01123 255 255 255
-0.23174 0.289822  1.88494 255 255 255
-0.585434  0.341597   1.74924 255 255 255
-0.283127 -0.308756   1.98589 255 255 255
-0.0772572   0.166015     1.9091 255 255 255
-0.253841 -0.429079   2.02107 255 255 255
-0.481932 -0.275098   1.89693 255 255 255
-0.108196 -0.153161   1.95556 255 255 255
 0.143081 -0.175567   2.09062 255 255 255
-0.62987 0.191295  1.70459 255 255 255
-0.281765 -0.421828   2.01178 255 255 255
 -0.131511 -0.0799162    1.93195 255 255 255
-0.0634112  -0.422848    2.10175 255 255 255
 -0.272575 -0.0911953    1.89479 255 255 255
-0.0124052 -0.0428851    1.96922 255 255 255
-0.600735 0.0817846   1.74826 255 255 255
  0.166264 -0.0917542    2.12476 255 255 255
-0.0642545  -0.409407    2.10368 255 255 255
-0.522817 -0.355456   1.88726 255 255 255
-0.346793 -0.427778   1.97638 255 255 255
-0.403194 -0.134308    1.8837 255 255 255
-0.289906 -0.437622   2.01087 255 255 255
 0.213168 0.0674338    2.1009 255 255 255
-0.289611 -0.408774    2.0047 255 255 255
-0.672387 0.0909126   1.69919 255 255 255
-0.447622 -0.355852   1.92138 255 255 255
0.0623323 -0.346203   2.12926 255 255 255
-0.0878827  -0.238556    2.05798 255 255 255
 0.268358 0.0103353   2.11592 255 255 255
-0.0332084 -0.0370632    1.95863 255 255 255
  0.213751 -0.0119713    2.10819 255 255 255
-0.385019  0.350773   1.82662 255 255 255
-0.103201  0.358192   1.91272 255 255 255
-0.702854 0.0539371    1.6994 255 255 255
0.107074 0.263179  2.02381 255 255 255
-0.550883 0.0729315    1.7706 255 255 255
0.0468947 -0.454051   2.15294 255 255 255
0.021266 0.230977  1.99744 255 255 255
-0.382491  0.232015    1.8379 255 255 255
 -0.108521 0.00381386    1.93056 255 255 255
  0.205569 -0.0446787    2.10597 255 255 255
0.0847944 -0.357674   2.14297 255 255 255
0.259474 0.152366  2.09719 255 255 255
  -0.157016 -0.00669814     1.91623 255 255 255
  0.12342 -0.273433   2.14466 255 255 255
0.0586536  0.268419   2.00593 255 255 255
-0.504057 -0.267559   1.88674 255 255 255
  0.206014 -0.0206469    2.10457 255 255 255
-0.202765 -0.425962   2.04448 255 255 255
-0.0733154 -0.0562337    1.94776 255 255 255
 -0.335129 -0.0256479    1.85914 255 255 255
-0.020567 -0.103814   1.98084 255 255 255
0.055404 0.312168  1.99551 255 255 255
-0.204546  0.333109   1.89374 255 255 255
-0.0287135 -0.0466386    1.96237 255 255 255
-0.0182597   -0.11205    1.98302 255 255 255
-0.0409558  -0.225243    2.05476 255 255 255
  0.256917 -0.0396938    2.12786 255 255 255
0.0113467 -0.329543   2.11853 255 255 255
-0.0906144  -0.085636    1.94941 255 255 255
 -0.25264 -0.285998   1.98712 255 255 255
-0.0647212   -0.24226    2.06823 255 255 255
 0.17279 0.129095  2.07372 255 255 255
-0.0112207  -0.115931    1.98652 255 255 255
 -0.172176 -0.0637351    1.90928 255 255 255
-0.00837375   -0.472093     2.12844 255 255 255
-0.592298  -0.25056   1.85253 255 255 255
-0.0446101 -0.0837249    1.96794 255 255 255
0.0185536 -0.220985   2.07667 255 255 255
-0.0314883 -0.0611382     1.9683 255 255 255
  0.21163 0.0755712   2.09739 255 255 255
-0.209438 -0.404711   2.03775 255 255 255
 0.043486 -0.348853   2.12284 255 255 255
-0.575658  0.235856   1.77006 255 255 255
-0.195582 -0.419351   2.04634 255 255 255
 0.176701 0.0810823   2.08721 255 255 255
 0.179509 0.0291516   2.08808 255 255 255
-0.684649  0.350784   1.70315 255 255 255
-0.697722  0.364957    1.6985 255 255 255
-0.676935  0.316993   1.71616 255 255 255
-0.657569  0.331212   1.72001 255 255 255
-0.352804 -0.175837   1.89441 255 255 255
 -0.38537 -0.260229   1.92814 255 255 255
-0.0831626   0.177172    1.92264 255 255 255
  0.148921 -0.0593463    2.09556 255 255 255
-0.290015 -0.254262   1.96645 255 255 255
-0.555844 -0.235886   1.85792 255 255 255
-0.338338  0.150847   1.84015 255 255 255
-0.0778696   0.223469    1.92674 255 255 255
-0.389354  0.156019   1.82867 255 255 255
-0.183444 -0.426541   2.04956 255 255 255
 -0.39229 0.0545734   1.81803 255 255 255
 -0.184891 -0.0164613    1.90496 255 255 255
-0.679508 -0.166911   1.80921 255 255 255
-0.455548 -0.242041   1.89929 255 255 255
  0.101359 -0.0524408    2.06578 255 255 255
  0.124108 -0.0957899     2.0798 255 255 255
  0.207966 -0.0570118    2.10996 255 255 255
0.00274438   0.202879    1.98283 255 255 255
-0.402177 -0.151966   1.88367 255 255 255
-0.0317952 -0.0454896    1.95529 255 255 255
-0.377091 -0.203243   1.92528 255 255 255
-0.0798908  -0.255006     2.0608 255 255 255
 -0.382518 -0.0243611    1.83881 255 255 255
-0.0442013  0.0278314    1.94766 255 255 255
 -0.277608 0.00664574     1.8935 255 255 255
-0.45511 0.368248  1.79481 255 255 255
0.307517 0.140722  2.11939 255 255 255
-0.348298 -0.234442   1.93629 255 255 255
-0.438993 -0.294558   1.91561 255 255 255
-0.360175 0.0138935   1.83607 255 255 255
-0.370994  0.118774   1.82591 255 255 255
-0.601954  0.192015   1.76779 255 255 255
-0.022247  0.270071   1.96674 255 255 255
-0.544035  0.307839   1.76886 255 255 255
0.00446678   0.334748    1.96555 255 255 255
-0.49588  0.13653   1.7951 255 255 255
-0.343376  0.243034    1.8482 255 255 255
-0.657116 0.0923089   1.70469 255 255 255
-0.371341 -0.230842   1.92761 255 255 255
-0.0445721 0.00212105    1.94893 255 255 255
-0.392075 -0.165775   1.90393 255 255 255
-0.633219 0.0540669   1.73209 255 255 255
0.0279975 -0.216062   2.08227 255 255 255
-0.705211 -0.276222   1.78877 255 255 255
 -0.455471 -0.0683036    1.83755 255 255 255
 0.123766 -0.199815   2.11275 255 255 255
-0.441676 -0.396916   1.94227 255 255 255
-0.0466669   0.047562    1.94061 255 255 255
0.115024 0.165781  2.04848 255 255 255
0.276818 0.219322  2.01079 255 255 255
-0.131353 -0.128969   1.94643 255 255 255
0.152233 0.227616  2.04716 255 255 255
0.0849681 0.0748043   2.05236 255 255 255
-0.356267 -0.274166   1.94797 255 255 255
-0.195217  -0.10128   1.92825 255 255 255
  -0.372138 -0.00740553     1.84005 255 255 255
-0.413539 -0.374447    1.9474 255 255 255
-0.0131434  -0.249268     2.0899 255 255 255
0.000118516      0.2397     1.98411 255 255 255
-0.162908 -0.449475   2.06282 255 255 255
 0.13378 0.118533  2.06223 255 255 255
-0.49754  0.15302  1.79434 255 255 255
-0.402261 -0.193529   1.91732 255 255 255
0.0183867 0.0149083   1.97767 255 255 255
-0.618269  0.103093   1.72579 255 255 255
-0.090326 -0.276556   2.05256 255 255 255
-0.225121 -0.304513   2.00192 255 255 255
0.294085 0.155887  2.11403 255 255 255
0.0218278  0.322397   1.96867 255 255 255
-0.672341  0.113853     1.696 255 255 255
-0.178336 -0.199761   2.00067 255 255 255
-0.389384   0.11806   1.81955 255 255 255
 0.100801 0.0610606   2.04886 255 255 255
-0.121632 -0.208253   1.99744 255 255 255
-0.374381  0.184189   1.83112 255 255 255
-0.459365  0.325828   1.80092 255 255 255
-0.0346035  -0.137144    1.98016 255 255 255
-0.0110055   0.282354     1.9759 255 255 255
-0.404679  0.338892   1.81596 255 255 255
-0.0929307  0.0139601    1.93624 255 255 255
-0.0611474  0.0224798    1.94569 255 255 255
0.174342 0.224314  2.05395 255 255 255
-0.0483284  -0.333012    2.08831 255 255 255
-0.264543  0.394633   1.83051 255 255 255
 -0.177047 -0.0723894    1.90768 255 255 255
-0.183691 -0.130449   1.95794 255 255 255
0.0201647 -0.338008   2.12193 255 255 255
-0.232011 -0.377959   2.01295 255 255 255
-0.0491675  -0.321627    2.08181 255 255 255
-0.0525877  -0.117535    1.97184 255 255 255
-0.212114 -0.334848   2.01891 255 255 255
 -0.637926 -0.0651883    1.78787 255 255 255
-0.714977 -0.241442   1.79279 255 255 255
  0.218475 0.00613409     2.1124 255 255 255
  0.2245 0.057556  2.10754 255 255 255
-0.585903  0.178607   1.77342 255 255 255
0.0898472  0.059478   2.04539 255 255 255
0.159377 0.260465  2.04069 255 255 255
 0.116619 -0.123082    2.0697 255 255 255
-0.703231 -0.226456   1.78289 255 255 255
-0.308664  -0.07571   1.88286 255 255 255
-0.567005  0.334184   1.75602 255 255 255
-0.0187312 -0.0384185    1.96414 255 255 255
-0.102288 0.0109175   1.93309 255 255 255
-0.471647  0.197871    1.8094 255 255 255
 0.180816 -0.154368    2.1312 255 255 255
-0.621064 -0.350583   1.85178 255 255 255
-0.419157  0.320578   1.81198 255 255 255
-0.0409701  -0.424783    2.11479 255 255 255
-0.637592 -0.347451   1.84533 255 255 255
-0.293764 -0.426598   2.00464 255 255 255
-0.610943 -0.255074   1.83994 255 255 255
-0.339751  -0.42754   1.97946 255 255 255
-0.475861 -0.112148   1.83973 255 255 255
-0.632503 0.0499524   1.73218 255 255 255
 0.125155 -0.217067   2.11966 255 255 255
0.065741 0.320352  2.00108 255 255 255
-0.100635 -0.276966    2.0532 255 255 255
-0.628099  0.103853   1.71579 255 255 255
-0.262351 -0.413288   2.01612 255 255 255
0.268195 0.174713  2.09754 255 255 255
-0.354932 -0.191275   1.93657 255 255 255
0.132316  0.24157  2.03562 255 255 255
-0.0973577   0.257324    1.91559 255 255 255
 -0.247355 -0.0649175    1.89689 255 255 255
-0.388475 -0.304636   1.92249 255 255 255
0.307531 0.158045  2.11525 255 255 255
-0.0357286  -0.389795    2.11113 255 255 255
-0.391262  0.048723   1.82261 255 255 255
-0.532725 -0.241482   1.87009 255 255 255
 0.138932 0.0179589   2.07666 255 255 255
-0.350387 -0.366787   1.95512 255 255 255
-0.350387 -0.366787   1.95512 255 255 255
0.134932 0.181669  2.04628 255 255 255
-0.108941 -0.386035   2.06592 255 255 255
-0.469358  0.248838   1.80648 255 255 255
-0.380378 0.0388061   1.82455 255 255 255
 -0.70281 -0.294942   1.80282 255 255 255
-0.688421   0.16345      1.68 255 255 255
-0.678643 0.0549745   1.70588 255 255 255
-0.400197 -0.361536   1.93559 255 255 255
-0.412167  -0.13673   1.88116 255 255 255
-0.651411  0.138243    1.6972 255 255 255
-0.041161  0.322233   1.95558 255 255 255
0.11314  0.2305 2.03141 255 255 255
 -0.151741 -0.0685196    1.92289 255 255 255
-0.000633939    -0.137111       1.9961 255 255 255
-0.67698 0.368823  1.70854 255 255 255
-0.663932 0.0529006   1.71844 255 255 255
-0.557266  0.321421   1.76464 255 255 255
-0.614013  0.348986   1.73694 255 255 255
-0.671122  0.129213   1.69208 255 255 255
-0.454174  -0.23177   1.90511 255 255 255
0.334476 0.178008  2.12694 255 255 255
-0.375011 -0.383808   1.96219 255 255 255
-0.354786 -0.247217   1.93643 255 255 255
 -0.22768 -0.215221    1.9941 255 255 255
-0.23174 0.289822  1.88494 255 255 255
-0.340704 -0.191085   1.94258 255 255 255
-0.608835  0.199032   1.76511 255 255 255
-0.41163 -0.28286  1.91976 255 255 255
0.0499513 -0.474565   2.16285 255 255 255
  0.255069 -0.0022729    2.11849 255 255 255
  0.3028 0.152189  2.11687 255 255 255
-0.658737 0.0721194   1.71703 255 255 255
 -0.317899 -0.0447498     1.8679 255 255 255
  0.190242 -0.0553934    2.09993 255 255 255
 0.114688 -0.211644   2.11556 255 255 255
-0.365685 -0.185212   1.93075 255 255 255
-0.346793 -0.427778   1.97638 255 255 255
-0.351322 -0.185538   1.93835 255 255 255
-0.561844  0.267917   1.76826 255 255 255
-0.0127677  -0.101401     1.9826 255 255 255
-0.627534 0.0449786    1.7326 255 255 255
  0.209509 -0.0538693    2.10958 255 255 255
  0.12342 -0.273433   2.14466 255 255 255
-0.0588355 -0.0481588    1.95384 255 255 255
 0.139731 -0.169069    2.0866 255 255 255
-0.482278 -0.377537   1.91695 255 255 255
-0.0931058  -0.285742     2.0617 255 255 255
-0.432465  -0.10276   1.85253 255 255 255
-0.591636  0.197259    1.7712 255 255 255
 -0.49466 -0.389012   1.90951 255 255 255
-0.573415  0.102992   1.77054 255 255 255
-0.508945  0.251897   1.79975 255 255 255
-0.550883 0.0729315    1.7706 255 255 255
-0.365218  -0.30442   1.94927 255 255 255
-0.115902 -0.461965   2.08745 255 255 255
 0.193389 0.0729347    2.0917 255 255 255
-0.348268  -0.26946    1.9439 255 255 255
-0.627633  -0.28618    1.8363 255 255 255
 0.153583 0.0548879   2.08255 255 255 255
 -0.670565 -0.0775294    1.77504 255 255 255
  0.01303 -0.040845   1.97669 255 255 255
-0.0899079 -0.0810055    1.94912 255 255 255
-0.211425 -0.246978   2.00451 255 255 255
-0.667802  0.070315   1.70759 255 255 255
-0.00409214   -0.224195     2.06037 255 255 255
-0.67354 -0.32804  1.82357 255 255 255
0.0570621 -0.126565    2.0016 255 255 255
-0.265823 -0.101035   1.90127 255 255 255
  -0.157016 -0.00669814     1.91623 255 255 255
 0.114895 -0.111064   2.06661 255 255 255
0.0407855 -0.339388   2.12254 255 255 255
-0.12393 0.207099  1.90237 255 255 255
0.130308 0.191295  2.04479 255 255 255
-0.0326001  -0.473169    2.11644 255 255 255
-0.0199981 -0.0743519    1.97495 255 255 255
-0.504057 -0.267559   1.88674 255 255 255
-0.242926  -0.12886   1.91729 255 255 255
-0.119925 -0.428792   2.08409 255 255 255
0.166465  0.22888  2.05409 255 255 255
-0.233165 -0.286203   1.99262 255 255 255
-0.0831124  -0.411205    2.09327 255 255 255
 -0.470819 -0.0697109    1.84435 255 255 255
0.0572304   0.23736   2.00853 255 255 255
-0.510188  0.181451   1.79407 255 255 255
-0.476074  -0.31248   1.90394 255 255 255
-0.0468501   0.243005    1.94061 255 255 255
-0.142887 -0.474156   2.07213 255 255 255
-0.0668721   0.124652    1.91078 255 255 255
-0.121233  0.269056   1.91231 255 255 255
-0.199187  0.416386   1.88112 255 255 255
0.0600245  0.320022   1.99548 255 255 255
-0.240732 -0.446701   2.03019 255 255 255
-0.609876  0.197165   1.72768 255 255 255
  0.124996 -0.0757012    2.08269 255 255 255
0.0409688 -0.115639   2.00159 255 255 255
-0.385067 -0.353272    1.9474 255 255 255
0.127003 0.317044   2.0214 255 255 255
 0.101929 -0.305742   2.13991 255 255 255
  0.0187507 0.000181451     1.97826 255 255 255
 0.024839 -0.422533   2.14607 255 255 255
  0.150015 -0.0845246    2.10199 255 255 255
 0.146434 -0.269666   2.15418 255 255 255
 -0.225363 -0.0498067     1.9063 255 255 255
-0.529954   -0.2925   1.88193 255 255 255
-0.498374 -0.285543   1.88944 255 255 255
-0.608416  0.313339   1.74289 255 255 255
-0.307313 -0.409584   1.99179 255 255 255
0.118295  0.15276  2.04954 255 255 255
-0.105612  0.232974   1.91122 255 255 255
-0.198554 -0.453577   2.04475 255 255 255
 -0.222357 0.00510319    1.87886 255 255 255
-0.406072  0.221915   1.82824 255 255 255
-0.0677904  -0.431406     2.1032 255 255 255
 -0.572255 -0.0385441    1.78228 255 255 255
-0.455033  -0.38971   1.93061 255 255 255
-0.150407 -0.351213   2.04305 255 255 255
0.148171 0.163517  2.05998 255 255 255
-0.131528 -0.243288   2.03052 255 255 255
-0.545337 -0.262224   1.87115 255 255 255
 -0.17409 -0.131521   1.96428 255 255 255
  0.3037 0.169686  2.11252 255 255 255
 -0.570243 -0.0545606    1.78617 255 255 255
 -0.125369 -0.0918425    1.94269 255 255 255
0.0787266  0.253181   2.01427 255 255 255
  0.173756 -0.0508761    2.09777 255 255 255
-0.258197 -0.330658    1.9948 255 255 255
-0.0366079  -0.477951    2.11641 255 255 255
  -0.2815 -0.448819    2.0155 255 255 255
-0.113598 -0.109693   1.95079 255 255 255
 -0.161413 -0.0140346    1.91611 255 255 255
  0.142704 -0.0840786    2.09822 255 255 255
-0.428899 -0.245271   1.91457 255 255 255
-0.0725353  -0.256441    2.06851 255 255 255
 0.107729 -0.111845   2.06757 255 255 255
0.236003 0.120968   2.0975 255 255 255
-0.195498 -0.255532   2.01443 255 255 255
-0.471891 -0.324528   1.90959 255 255 255
-0.117088 -0.115859   1.94599 255 255 255
0.138495  0.35657   2.0134 255 255 255
-0.175811 -0.113968   1.93131 255 255 255
 -0.35135 -0.253574   1.93633 255 255 255
-0.524554  0.306739   1.77545 255 255 255
-0.0335166   0.114895    1.93939 255 255 255
-0.281672 -0.439476   2.01573 255 255 255
 -0.27195 -0.449307   2.02169 255 255 255
-0.633728  0.108951    1.7129 255 255 255
-0.438109 -0.162545   1.86517 255 255 255
-0.184468 -0.208464   1.99672 255 255 255
-0.256667  -0.40874    2.0167 255 255 255
-0.0676442   -0.35187    2.08046 255 255 255
-0.121196 -0.464171   2.08471 255 255 255
-0.124982  0.348637   1.91986 255 255 255
-0.352149 -0.427414   1.97321 255 255 255
-0.188332 -0.464602   2.04905 255 255 255
-0.297265 -0.344093   1.97789 255 255 255
-0.636836 0.0275373   1.74661 255 255 255
-0.108623 -0.443878   2.08847 255 255 255
-0.478208 0.0423258   1.80653 255 255 255
 -0.212223 -0.0199261    1.88741 255 255 255
 -0.21277 -0.344652   2.01487 255 255 255
 -0.40342 -0.117671   1.88341 255 255 255
 -0.402514 -0.0580898    1.84753 255 255 255
  0.176684 -0.0777215    2.10023 255 255 255
-0.148957  -0.40864   2.04156 255 255 255
-0.559526 -0.272697   1.86464 255 255 255
 -0.618361 -0.0416078    1.77554 255 255 255
0.0571034  0.109111   2.03031 255 255 255
0.133738 0.348602   2.0165 255 255 255
-0.678787  0.121628    1.6905 255 255 255
0.0102642    0.3884    1.9635 255 255 255
-0.0827417  -0.418239    2.09274 255 255 255
-0.292043 -0.453783   2.01339 255 255 255
-0.274882 -0.443163   2.01619 255 255 255
 -0.484396 -0.0338368    1.81455 255 255 255
 0.172997 0.0278184   2.08835 255 255 255
-0.594103 -0.349071   1.86235 255 255 255
-0.593735  0.254917    1.7605 255 255 255
 -0.25981 -0.314648   1.99288 255 255 255
-0.680442  0.166103   1.68254 255 255 255
-0.114481 -0.455649   2.08655 255 255 255
-0.626454  0.387682    1.7278 255 255 255
-0.042164 -0.108626   1.97488 255 255 255
0.0141956 -0.110755   1.99473 255 255 255
-0.12679 0.316281  1.91593 255 255 255
 -0.574319 -0.0420516    1.78255 255 255 255
-0.311105 -0.428505   1.99426 255 255 255
-0.0126483 -0.0881049     1.9775 255 255 255
-0.0950069 -0.0563444    1.94135 255 255 255
-0.395589 0.0535976   1.81868 255 255 255
-0.367561 0.0267598   1.83099 255 255 255
-0.505837 -0.190979   1.87695 255 255 255
 0.0429401 -0.0951379    2.00149 255 255 255
-0.419519 -0.171389   1.87891 255 255 255
-0.108612 0.0130235   1.93064 255 255 255
-0.574064   0.25354   1.76785 255 255 255
-0.657569  0.331212   1.72001 255 255 255
 -0.34869 -0.196149   1.93257 255 255 255
-0.556454 -0.368957   1.87554 255 255 255
-0.491683 -0.261085   1.89618 255 255 255
0.0761591 -0.357873   2.13501 255 255 255
-0.0352756   0.244899    1.94874 255 255 255
-0.00821382   -0.352828     2.10603 255 255 255
-0.479918 -0.369389   1.91704 255 255 255
-0.0996733  -0.284725    2.05839 255 255 255
-0.0738923  -0.168121    2.00906 255 255 255
-0.477466  0.372962   1.78394 255 255 255
-0.0209443  -0.372355     2.1041 255 255 255
 -0.300841 -0.0579569    1.88023 255 255 255
 0.135693 0.0545386    2.0663 255 255 255
