ply
format ascii 1.0
element vertex 904
property float x
property float y
property float z
property uchar red
property uchar green
property uchar blue
end_header
  0.0248469 -0.00693081   0.0101721 0 255 0
0.893024 0.213905 0.292234 0 255 0
   0.060739   -0.020182 -0.00595732 0 255 0
-0.264919 -0.301156   1.60391 255 255 255
-0.142665 -0.302222   1.62217 255 255 255
-0.199136 -0.292378   1.58869 255 255 255
-0.0702634  -0.364808    1.68966 255 255 255
-0.186747 -0.335495   1.63366 255 255 255
-0.468048 -0.310391   1.48248 255 255 255
-0.354626 -0.318981   1.55251 255 255 255
-0.168034 -0.364121   1.64801 255 255 255
-0.117199 -0.286604   1.64417 255 255 255
-0.420448 -0.335036    1.5181 255 255 255
-0.0848226  -0.348874    1.64854 255 255 255
-0.237543 -0.264756   1.62161 255 255 255
-0.206703 -0.263925   1.58336 255 255 255
-0.513498 -0.309911   1.45977 255 255 255
-0.0703737  -0.325079    1.68357 255 255 255
-0.212435 -0.275772   1.62984 255 255 255
-0.268836 -0.361916   1.60327 255 255 255
 -0.49889 -0.323448   1.47088 255 255 255
-0.518871 -0.326292    1.4585 255 255 255
-0.392814 -0.332057   1.52854 255 255 255
-0.428891 -0.336904   1.51422 255 255 255
-0.227101 -0.265147   1.62543 255 255 255
-0.396376 -0.322261   1.52887 255 255 255
-0.610326  0.124704   1.30084 255 255 255
-0.127828 -0.180215   1.67598 255 255 255
-0.644217   0.14351   1.26579 255 255 255
-0.0398157  -0.163182    1.71471 255 255 255
-0.00426021   -0.268291     1.71073 255 255 255
0.072887 -0.14393  1.76453 255 255 255
 0.334908 -0.323163   1.79012 255 255 255
 0.146635 -0.177654   1.77038 255 255 255
-0.607385  0.144872    1.2972 255 255 255
-0.589179 0.0795727      1.34 255 255 255
-0.106347 -0.123569   1.68636 255 255 255
-0.0919672   -0.21826    1.69444 255 255 255
-0.258349  -0.26499   1.60695 255 255 255
-0.122022 -0.280689   1.67106 255 255 255
-0.171934 -0.116177   1.65517 255 255 255
 -0.127813 -0.0537446     1.6694 255 255 255
-0.581763  0.103953   1.34248 255 255 255
-0.600094  0.137662   1.30897 255 255 255
 -0.175045 -0.0714482    1.65457 255 255 255
0.000579116   -0.122648     1.72832 255 255 255
-0.701913  0.193529   1.19044 255 255 255
-0.0692141  -0.142766    1.70139 255 255 255
-0.0676844  -0.162845    1.68258 255 255 255
0.0414949 -0.154356   1.75954 255 255 255
-0.225134 -0.242117   1.61389 255 255 255
-0.575021 0.0371654   1.34859 255 255 255
-0.213071 -0.234992   1.62873 255 255 255
-0.552158  0.132227    1.3693 255 255 255
-0.192114 -0.149534   1.64631 255 255 255
 0.092129 -0.239283   1.76306 255 255 255
-0.58973 0.144329  1.32024 255 255 255
-0.272132 -0.333936   1.59323 255 255 255
0.00459715  -0.141093    1.73959 255 255 255
-0.709937  0.223102    1.1763 255 255 255
-0.152205 -0.128526   1.66694 255 255 255
0.0759815 -0.181843   1.75978 255 255 255
-0.627344  0.114129    1.2864 255 255 255
-0.672889  0.136484   1.22606 255 255 255
0.0376515 -0.308304    1.7216 255 255 255
 0.332217 -0.309424   1.79157 255 255 255
 -0.132382 -0.0879676     1.6741 255 255 255
-0.119376  -0.20388   1.67618 255 255 255
 -0.08245 -0.279926   1.66462 255 255 255
-0.663265  0.103172   1.24315 255 255 255
-0.0601358  -0.258813    1.68218 255 255 255
0.333455 -0.35058  1.78979 255 255 255
0.0924178 -0.128882   1.77695 255 255 255
 -0.183874 -0.0951944     1.6538 255 255 255
-0.178216 -0.128452    1.6551 255 255 255
 0.267777 -0.308603   1.77583 255 255 255
0.0102609 -0.240537   1.72019 255 255 255
-0.124946 -0.210104   1.65091 255 255 255
 -0.18709 -0.181464   1.64911 255 255 255
-0.211943  -0.17051   1.63476 255 255 255
 0.055801 -0.247267   1.74653 255 255 255
 -0.22999 -0.291979   1.62791 255 255 255
-0.703225  0.212278    1.1787 255 255 255
0.0421075 -0.109772    1.7446 255 255 255
-0.0543335  -0.152671    1.70487 255 255 255
0.0227362 -0.288012   1.72531 255 255 255
-0.221697 -0.148516   1.62999 255 255 255
-0.636741  0.118634   1.27982 255 255 255
-0.250741 -0.355282   1.60446 255 255 255
 0.207637 -0.150914   1.79031 255 255 255
-0.609841 0.0690811   1.31705 255 255 255
-0.555895 0.0396267   1.36948 255 255 255
0.0875886 -0.117344   1.76974 255 255 255
 0.066203 -0.299743   1.73919 255 255 255
-0.545814 0.0199046    1.3741 255 255 255
0.319033 -0.29031  1.78974 255 255 255
0.0448244 -0.281872   1.73111 255 255 255
-0.656559  0.107304   1.24986 255 255 255
-0.59607  0.13388   1.3173 255 255 255
-0.0230506 -0.0970692     1.7232 255 255 255
-0.543853 0.0968882   1.37687 255 255 255
-0.654542  0.114164   1.25412 255 255 255
-0.672755  0.122303   1.23016 255 255 255
 -0.105251 -0.0590828    1.68691 255 255 255
-0.0116945  -0.220782    1.72519 255 255 255
-0.642651 0.0981832   1.27019 255 255 255
-0.562988 0.0982143   1.35306 255 255 255
0.0153491 -0.118993   1.73724 255 255 255
 0.348362 -0.352451   1.79158 255 255 255
-0.58691 0.122703  1.33015 255 255 255
 -0.19383 -0.222283   1.64696 255 255 255
-0.651952 0.0946212   1.26213 255 255 255
-0.213096 -0.289853   1.63223 255 255 255
 -0.209487 -0.0945024    1.63777 255 255 255
-0.603727  0.124461   1.30953 255 255 255
-0.175495 -0.180405   1.65317 255 255 255
-0.513498 -0.309911   1.45977 255 255 255
-0.234832  -0.10368   1.62225 255 255 255
-0.392814 -0.332057   1.52854 255 255 255
 0.310899 -0.371076   1.78076 255 255 255
-0.416821 -0.314972   1.51855 255 255 255
-0.705361  0.185906   1.18495 255 255 255
-0.0206376  -0.219905    1.71384 255 255 255
-0.396376 -0.322261   1.52887 255 255 255
-0.207305 -0.147849   1.64045 255 255 255
-0.509698  0.129053   1.39288 255 255 255
-0.154615 -0.362056   1.65434 255 255 255
 0.280297 -0.178114   1.79789 255 255 255
-0.615386 0.0644633   1.31015 255 255 255
0.0527704 -0.322791   1.72822 255 255 255
-0.559912 0.0942941   1.35974 255 255 255
-0.0699099  -0.253507    1.67956 255 255 255
-0.52765 0.123351  1.39023 255 255 255
-0.0342596   -0.30843    1.70472 255 255 255
-0.481885  -0.31155   1.47984 255 255 255
0.0629113 -0.316559   1.73173 255 255 255
0.0317152 -0.229761   1.73492 255 255 255
0.0651461 -0.323055   1.73391 255 255 255
 0.040137 -0.346532   1.72777 255 255 255
-0.177705 -0.218086   1.65078 255 255 255
 0.310082 -0.287907   1.79115 255 255 255
-0.0205529  -0.333609    1.68853 255 255 255
-0.0759356 -0.0954573    1.68897 255 255 255
-0.690702  0.170202   1.19411 255 255 255
-0.0556997  -0.362071    1.65976 255 255 255
-0.615397  0.105251   1.30096 255 255 255
0.0517389 -0.233258   1.73785 255 255 255
-0.564219 0.0299032   1.36032 255 255 255
-0.0519524  -0.170728    1.70482 255 255 255
 0.273382 -0.399027   1.77295 255 255 255
 0.052942 -0.197439   1.75011 255 255 255
 0.112995 -0.179185   1.78249 255 255 255
-0.142377  -0.32661   1.65887 255 255 255
  -0.14593 -0.0930456    1.66876 255 255 255
-0.196321 -0.237439   1.63189 255 255 255
-0.164863 -0.172156   1.65528 255 255 255
-0.0610402 -0.0718671    1.69661 255 255 255
-0.0680369 -0.0939512    1.69428 255 255 255
 -0.25164 -0.217127    1.6134 255 255 255
 0.112901 -0.157656   1.76906 255 255 255
0.000653339   -0.222351     1.70643 255 255 255
-0.0508695  -0.250345    1.69265 255 255 255
-0.693379  0.160335   1.19508 255 255 255
 0.175418 -0.149555   1.79943 255 255 255
0.0969179 -0.196217    1.7595 255 255 255
 0.290571 -0.341576   1.78034 255 255 255
-0.0987334 -0.0467901    1.68965 255 255 255
0.00699907  -0.318067    1.70706 255 255 255
-0.281956 -0.358641   1.59636 255 255 255
 0.268896 -0.183934   1.79374 255 255 255
 0.208652 -0.175456   1.78552 255 255 255
-0.186654 -0.265256   1.64365 255 255 255
-0.211943  -0.17051   1.63476 255 255 255
-0.607751 0.0809554    1.3162 255 255 255
 -0.56949 0.0208111   1.35227 255 255 255
-0.353236 -0.333975   1.55711 255 255 255
-0.0503573   -0.26957    1.68292 255 255 255
-0.573606   0.15392   1.33691 255 255 255
0.0534818 -0.278582   1.73817 255 255 255
0.265931 -0.15365  1.78765 255 255 255
 0.406181 -0.200157   1.82035 255 255 255
-0.618605  0.144138   1.28862 255 255 255
-0.248224 -0.209721   1.61401 255 255 255
0.0267384 -0.209219   1.73392 255 255 255
 0.273544 -0.160325   1.79714 255 255 255
-0.703654  0.168381   1.18758 255 255 255
-0.0812232 -0.0529982    1.68677 255 255 255
 0.258063 -0.145965   1.79592 255 255 255
-0.452548 -0.300834   1.49556 255 255 255
-0.0545447 -0.0611163    1.70189 255 255 255
  0.37106 -0.279389   1.80621 255 255 255
 -0.19913 -0.322404   1.63877 255 255 255
-0.290317  0.142881   1.56373 255 255 255
-0.518234 -0.319305   1.46199 255 255 255
 0.370975 -0.355042   1.79496 255 255 255
-0.568076 0.0861425   1.35625 255 255 255
-0.0347677  -0.105367    1.71213 255 255 255
0.0735912 -0.256185   1.75217 255 255 255
-0.644008  0.132965   1.26771 255 255 255
 0.288671 -0.322106   1.78662 255 255 255
 -0.129563 -0.0478207    1.68629 255 255 255
 -0.219256 -0.0919169    1.63312 255 255 255
-0.598696 0.0872195   1.32256 255 255 255
-0.0617122  -0.311652    1.69671 255 255 255
-0.463175  -0.31206   1.49092 255 255 255
0.072887 -0.14393  1.76453 255 255 255
-0.0426406  -0.210186    1.73527 255 255 255
 0.405529 -0.307554    1.8027 255 255 255
-0.202589 -0.134698   1.63721 255 255 255
-0.0614041 -0.0448888    1.69424 255 255 255
-0.142009 -0.107608     1.674 255 255 255
-0.0474396 -0.0467444    1.70459 255 255 255
-0.14015  -0.0344  1.67001 255 255 255
 0.437062 -0.302414   1.81444 255 255 255
  0.112751 -0.0799885    1.76275 255 255 255
-0.0182269  -0.317355    1.70514 255 255 255
-0.278749 -0.347624   1.59775 255 255 255
-0.125614  -0.03954   1.67693 255 255 255
 0.120942 -0.088275     1.767 255 255 255
-0.0108462 -0.0865116    1.72129 255 255 255
-0.235487 -0.201164   1.62279 255 255 255
 0.271913 -0.320009   1.78057 255 255 255
0.0629113 -0.316559   1.73173 255 255 255
  -0.14593 -0.0930456    1.66876 255 255 255
 0.159508 -0.121217   1.77559 255 255 255
-0.0360354  -0.151606     1.7019 255 255 255
-0.00253996   -0.237589     1.71863 255 255 255
-0.0832141   -0.34265    1.68429 255 255 255
 -0.214538 -0.0283711    1.63268 255 255 255
-0.0847098 -0.0650085     1.6978 255 255 255
 0.319536 -0.360992   1.78294 255 255 255
-0.000997209    -0.103182      1.72154 255 255 255
 0.165462 -0.128406   1.79871 255 255 255
 0.362342 -0.359365   1.79435 255 255 255
-0.0640864 -0.0811416    1.69418 255 255 255
-0.00610478   -0.359224     1.71041 255 255 255
-0.0794818  -0.123696    1.68325 255 255 255
 0.280997 -0.329184   1.78264 255 255 255
-0.101293  -0.03708   1.68711 255 255 255
-0.040494 -0.294602   1.70161 255 255 255
 0.150285 -0.122342   1.77355 255 255 255
 0.112901 -0.157656   1.76906 255 255 255
-0.511391  0.172284   1.37897 255 255 255
 0.0874122 -0.0968145    1.75492 255 255 255
0.000653339   -0.222351     1.70643 255 255 255
-0.0402356  0.0910718    1.67625 255 255 255
  0.063113 -0.0748213    1.75321 255 255 255
-0.406168  0.208292   1.44826 255 255 255
-0.0608965    0.13229     1.6852 255 255 255
0.0199866 0.0292972   1.73022 255 255 255
 -0.0328002 -0.00606328     1.70816 255 255 255
 0.0775154 -0.0967875    1.75732 255 255 255
-0.554989 0.0997648   1.36478 255 255 255
  0.184264 -0.0345324    1.80032 255 255 255
-0.681733  0.167216   1.20693 255 255 255
-0.371815  0.217607   1.47204 255 255 255
 0.165952 -0.200453   1.77414 255 255 255
-0.0810269 0.00556988    1.69576 255 255 255
-0.0375229  0.0449315    1.69231 255 255 255
 -0.5243 0.146708  1.38788 255 255 255
 0.131251 0.0240643   1.76899 255 255 255
-0.424886  0.213377   1.43185 255 255 255
-0.410291  0.224727   1.43941 255 255 255
0.0908002 0.0465745   1.75561 255 255 255
-0.488288  0.153727   1.40369 255 255 255
0.0613063 0.0137381   1.75236 255 255 255
-0.471243  0.233777   1.38534 255 255 255
   0.13234 -0.0224251    1.78333 255 255 255
-0.531439  0.208489   1.34599 255 255 255
-0.461714  0.181729   1.41386 255 255 255
0.0403437 0.0304243    1.7402 255 255 255
-0.523163  0.195154   1.37466 255 255 255
-0.474335  0.177818   1.41498 255 255 255
0.0788606 -0.353589   1.73362 255 255 255
-0.0536373 0.00970007    1.69695 255 255 255
    0.136352 -0.000201043      1.78075 255 255 255
   0.0437 -0.261045   1.73344 255 255 255
-0.298583   0.16828   1.51339 255 255 255
-0.540402 0.0877741   1.38308 255 255 255
 0.12883 0.053617  1.76304 255 255 255
-0.532614  0.218964   1.34055 255 255 255
-0.500905  0.166201   1.38957 255 255 255
-0.687594  0.158285    1.1989 255 255 255
-0.159591  -0.21525   1.65915 255 255 255
-0.0223733  0.0528708    1.71681 255 255 255
-0.0434337 -0.0311582    1.70304 255 255 255
 0.097365 -0.154872   1.77557 255 255 255
-0.620133 0.0599172    1.3038 255 255 255
-0.465458  0.145414   1.42483 255 255 255
-0.554601  0.153968   1.35447 255 255 255
0.0318475 0.0784076   1.72202 255 255 255
0.0904001 0.0151777   1.76239 255 255 255
-0.0682958  -0.129584    1.69857 255 255 255
 0.102748 0.0428833   1.75741 255 255 255
  0.177037 -0.0215778    1.78339 255 255 255
-0.0170465  -0.248203    1.71327 255 255 255
-0.431799  0.186315   1.43863 255 255 255
-0.426859  0.190612   1.44077 255 255 255
-0.425204  0.203688   1.43497 255 255 255
-0.425793  0.169411   1.45978 255 255 255
-0.0711483  -0.123285    1.68969 255 255 255
-0.683047  0.231489   1.21426 255 255 255
-0.465288  0.243386   1.41053 255 255 255
-0.504033  0.152995   1.40081 255 255 255
-0.00234128   -0.261606     1.72741 255 255 255
-0.0388044  0.0546732      1.695 255 255 255
-0.0341758  0.0503709    1.71222 255 255 255
0.0774499 0.0338451   1.75626 255 255 255
  0.120777 0.00493232    1.77718 255 255 255
-0.594704 0.0833709   1.32772 255 255 255
0.0322662 0.0398272    1.7358 255 255 255
-0.403554  0.219591    1.4634 255 255 255
-0.0593915  0.0275944    1.69717 255 255 255
-0.537678  0.189898   1.35236 255 255 255
-0.0729549  0.0184125    1.69936 255 255 255
0.234223  0.05223  1.79027 255 255 255
-0.532102  0.100522   1.38343 255 255 255
0.143246 -0.21193  1.78731 255 255 255
-0.0500657 -0.0221113    1.70118 255 255 255
-0.600779  0.165977   1.30846 255 255 255
-0.456491  0.218529   1.42691 255 255 255
 0.146856 -0.217506   1.78617 255 255 255
-0.380246  0.105984   1.50576 255 255 255
0.0693484  0.051421   1.74691 255 255 255
-0.42398 0.181376  1.45939 255 255 255
-0.326176  0.172905   1.52625 255 255 255
-0.0640864 -0.0811416    1.69418 255 255 255
-0.443731  0.200581   1.44429 255 255 255
-0.369617  0.241342   1.47352 255 255 255
 0.219082 -0.380118   1.76898 255 255 255
-0.400154 -0.314477   1.53094 255 255 255
-0.241198 -0.286266   1.61949 255 255 255
 0.173747 -0.283224   1.76593 255 255 255
0.00397291  0.0847544    1.72101 255 255 255
 0.230562 -0.185095   1.78531 255 255 255
 -0.126772 -0.0767211    1.67261 255 255 255
-0.343944 -0.174985   1.56055 255 255 255
 -0.366956 -0.0987268    1.54216 255 255 255
 0.197098 0.0469492   1.78134 255 255 255
-0.261925 -0.177535    1.6111 255 255 255
-0.0298152 -0.0398915    1.71613 255 255 255
-0.205311 -0.118017   1.64454 255 255 255
 -0.175538 -0.0488791    1.65671 255 255 255
 -0.308857 -0.0655905    1.58249 255 255 255
 -0.2699 0.072745  1.59149 255 255 255
-0.430108 -0.109296    1.4989 255 255 255
-0.451049   0.19418    1.4209 255 255 255
  -0.059734 -0.00679098     1.69306 255 255 255
 -0.290786 0.00594554    1.58463 255 255 255
 0.241967 -0.125509    1.7935 255 255 255
-0.510447 0.0491332   1.40799 255 255 255
-0.267724  0.146021   1.57837 255 255 255
0.0661037 0.0776798   1.73906 255 255 255
 0.198661 0.0935196   1.77534 255 255 255
-0.0614452   0.167413    1.67914 255 255 255
 -0.33077 -0.117794   1.56881 255 255 255
-0.451338  -0.26872     1.498 255 255 255
-0.303946 -0.187255   1.58357 255 255 255
 0.236632 -0.268816    1.7771 255 255 255
-0.460214 -0.151554   1.47921 255 255 255
-0.293072 -0.231837   1.59243 255 255 255
-0.484106 -0.240244   1.47055 255 255 255
-0.583328  0.142537   1.33187 255 255 255
  -0.139124 -0.00671257     1.67241 255 255 255
 -0.38385 0.0762841   1.50986 255 255 255
-0.103994 -0.023537   1.69279 255 255 255
-0.27824 0.113639  1.56851 255 255 255
 0.0555301 -0.0249535    1.74704 255 255 255
0.00407108  -0.182156    1.71821 255 255 255
 -0.31446 -0.258189   1.57857 255 255 255
-0.227471  0.185459   1.58504 255 255 255
-0.212881  0.148216   1.60417 255 255 255
-0.162521  0.169148   1.62703 255 255 255
-0.372084  0.184769   1.49532 255 255 255
-0.511824 -0.150127   1.44703 255 255 255
 -0.27382 -0.030046   1.60103 255 255 255
-0.210192 -0.128111   1.63902 255 255 255
-0.0854525   0.138312    1.67361 255 255 255
 -0.375578 -0.0715222    1.54024 255 255 255
 -0.53025 -0.278127   1.44854 255 255 255
  -0.46743 -0.0977356    1.45664 255 255 255
-0.67492 0.158275  1.21741 255 255 255
0.0940125 -0.133843   1.77443 255 255 255
  0.250017 -0.0434594    1.79923 255 255 255
  -0.16859 0.00775304    1.66184 255 255 255
 -0.424626 -0.0429249    1.49197 255 255 255
 0.190392 -0.356619   1.75589 255 255 255
  0.188386 -0.0542951    1.80391 255 255 255
  -0.515733 -0.00356092     1.41899 255 255 255
-0.0608965    0.13229     1.6852 255 255 255
-0.0346587   0.202501    1.67863 255 255 255
-0.0928843  0.0490415    1.68364 255 255 255
-0.19472 0.117947  1.63207 255 255 255
-0.301887 -0.293195   1.58426 255 255 255
-0.410934 -0.241509   1.51881 255 255 255
  0.27755 0.0241417    1.8086 255 255 255
-0.100571  0.107792    1.6737 255 255 255
-0.179804 0.0732613   1.63252 255 255 255
-0.312592  0.101268   1.55069 255 255 255
  0.04596 -0.294101   1.73195 255 255 255
 0.138398 -0.315726   1.75486 255 255 255
 -0.41415 -0.210203   1.51841 255 255 255
-0.329934  0.141474   1.53259 255 255 255
-0.351269 0.0326384   1.54553 255 255 255
-0.277167 -0.201153   1.60287 255 255 255
 -0.287301 -0.0810265     1.5889 255 255 255
-0.457927 0.0861621   1.44952 255 255 255
 0.0394932 -0.0535101    1.74214 255 255 255
  0.348682 -0.0209268    1.81876 255 255 255
-0.146714 -0.195818   1.65974 255 255 255
  -0.4396 0.0507487   1.49128 255 255 255
  0.303005 -0.0374886    1.80742 255 255 255
-0.109888   0.16459   1.65477 255 255 255
 0.222023 -0.297947    1.7746 255 255 255
  0.21589 0.0708535   1.78269 255 255 255
-0.503124  0.132964    1.4028 255 255 255
  0.396413 -0.0263264    1.83155 255 255 255
 0.398891 -0.173316   1.82488 255 255 255
-0.190637  0.204353   1.60546 255 255 255
-0.520204 -0.059253   1.42784 255 255 255
 -0.403926 -0.0418792     1.5071 255 255 255
-0.261951  0.106202   1.59376 255 255 255
-0.484273  0.133168   1.41231 255 255 255
-0.454352 -0.181428   1.48277 255 255 255
-0.361253   0.15988   1.50343 255 255 255
-0.000941209     0.127321      1.71399 255 255 255
-0.243172 0.0968841   1.60162 255 255 255
-0.183687  0.221494   1.59947 255 255 255
 -0.478131 -0.0387812    1.45396 255 255 255
-0.457805  0.216909   1.40484 255 255 255
-0.127975 0.0458683    1.6768 255 255 255
 0.189758 -0.378548   1.75313 255 255 255
-0.224451  0.100279   1.60986 255 255 255
-0.505478  0.109572   1.41896 255 255 255
 -0.463294 -0.0415135    1.46141 255 255 255
-0.435439  0.111721   1.46262 255 255 255
-0.390931 -0.256352   1.53433 255 255 255
-0.470777  0.165478     1.421 255 255 255
-0.283667  0.190506   1.54896 255 255 255
-0.0810224    0.11827    1.68056 255 255 255
  0.2122 -0.27246  1.77579 255 255 255
0.224513 0.026138  1.78287 255 255 255
 0.289721 -0.132347   1.80472 255 255 255
-0.320331  0.130536   1.54397 255 255 255
 -0.54979 -0.189161   1.42314 255 255 255
-0.582952  0.203726   1.31572 255 255 255
-0.483863  0.212537   1.40266 255 255 255
0.0231247  0.106813   1.72067 255 255 255
-0.408495  0.109525   1.48256 255 255 255
-0.0767867 -0.0244637    1.69956 255 255 255
-0.302705  0.121267   1.56142 255 255 255
-0.397035 -0.117326   1.52296 255 255 255
   0.01062 0.00789459    1.73224 255 255 255
-0.406074 -0.146236   1.51787 255 255 255
-0.543644 0.0820001     1.379 255 255 255
0.0150108   0.12394   1.71734 255 255 255
-0.242137 0.0777305   1.61739 255 255 255
-0.192385 0.0828216   1.63077 255 255 255
-0.239986  0.142895   1.59436 255 255 255
 0.0414149 -0.0302338    1.74197 255 255 255
0.258994 -0.23796   1.7884 255 255 255
-0.346311   0.14129     1.521 255 255 255
 -0.519146 -0.0401616    1.43257 255 255 255
  0.324004 -0.0119098    1.81207 255 255 255
-0.034236  0.147783   1.69443 255 255 255
-0.372004 0.0583114   1.52582 255 255 255
-0.501861 -0.010951   1.43239 255 255 255
 0.364882 -0.161132   1.81189 255 255 255
-0.250506  0.162751   1.57916 255 255 255
 0.174339 -0.236079   1.77235 255 255 255
-0.216275 0.0829743   1.61856 255 255 255
 0.112232 0.0653893   1.75422 255 255 255
0.0863861 0.0138287   1.75764 255 255 255
-0.252353  0.124313   1.58998 255 255 255
  0.25244 -0.062839     1.799 255 255 255
-0.124159  0.178534   1.64381 255 255 255
 0.111186 -0.335024   1.74482 255 255 255
-0.317514 0.0236348   1.56719 255 255 255
-0.353165 -0.224931   1.55247 255 255 255
-0.316307 0.0722298   1.55974 255 255 255
 -0.527471 -0.0728936    1.42128 255 255 255
0.259919 -0.26936  1.78428 255 255 255
-0.37714 0.156244  1.49248 255 255 255
  0.309745 -0.0552513    1.80945 255 255 255
 0.400409 -0.163079    1.8222 255 255 255
 0.0281523 -0.0819327    1.73786 255 255 255
-0.100774 -0.144814   1.69215 255 255 255
  -0.461437 -0.00824141     1.46483 255 255 255
-0.470493 0.0726366   1.44378 255 255 255
 0.153868 -0.305679   1.75994 255 255 255
   0.13234 -0.0224251    1.78333 255 255 255
 -0.355209 -0.0525314    1.54957 255 255 255
-0.116034  0.113788   1.66606 255 255 255
-0.258063 0.0175463   1.60771 255 255 255
 0.148439 0.0024683   1.78676 255 255 255
0.0777953  0.160926   1.73308 255 255 255
  0.33399 0.0661135    1.8061 255 255 255
-0.525344 -0.302356   1.45672 255 255 255
-0.134414  0.055397   1.66079 255 255 255
-0.435492  0.207402   1.42613 255 255 255
-0.523136  0.199104   1.35736 255 255 255
  -0.1784 0.0309408   1.64789 255 255 255
-0.182567 0.0946267   1.63563 255 255 255
-0.438626 0.0751947   1.46942 255 255 255
 0.437062 -0.302414   1.81444 255 255 255
 0.232777 -0.317572   1.77255 255 255 255
-0.409053  0.126343   1.47711 255 255 255
-0.493358   0.17086   1.40568 255 255 255
-0.160322 0.0464995   1.65093 255 255 255
-0.138893  0.106869   1.65646 255 255 255
 0.244904 -0.245092   1.78411 255 255 255
   0.2603 0.0184496   1.79796 255 255 255
 0.157842 -0.292847   1.76116 255 255 255
  0.40858 -0.146503    1.8245 255 255 255
-0.282231 0.0886067   1.58046 255 255 255
0.0374528 -0.197463   1.73381 255 255 255
 0.154379 -0.364175   1.75503 255 255 255
 0.385963 0.0243659   1.82169 255 255 255
-0.453363   0.15738   1.43081 255 255 255
 0.420479 -0.352258   1.80323 255 255 255
-0.446097  0.131904   1.44753 255 255 255
 -0.11996 0.0324701   1.67401 255 255 255
-0.531798 -0.129728   1.42387 255 255 255
-0.116675 -0.102711   1.68238 255 255 255
-0.413602  0.048319   1.49532 255 255 255
-0.553555  0.193337   1.34239 255 255 255
 0.308238 -0.275472   1.79277 255 255 255
0.108425 0.118557  1.75663 255 255 255
  0.213244 -0.0222674    1.78756 255 255 255
-0.109138 0.0591911   1.67362 255 255 255
 0.155648 0.0452951   1.77465 255 255 255
-0.143295  0.213356   1.62067 255 255 255
 0.148956 0.0881592   1.76459 255 255 255
-0.0587844  -0.084578    1.70547 255 255 255
-0.502015  0.048876   1.42328 255 255 255
 0.256815 -0.282556   1.78048 255 255 255
-0.548701 -0.171194   1.42278 255 255 255
 0.219356 -0.188119    1.7827 255 255 255
-0.0812985   0.206879    1.66151 255 255 255
-0.395173  0.115232   1.49149 255 255 255
-0.474454  0.126153   1.42468 255 255 255
-0.154492 0.0914392   1.64785 255 255 255
-0.0608277    0.18789    1.67043 255 255 255
 -0.399247 0.00263639    1.51311 255 255 255
-0.174813  0.149853   1.62696 255 255 255
  0.226648 -0.0139246    1.79272 255 255 255
-0.276859 -0.104905    1.6049 255 255 255
 0.320139 0.0104432    1.8096 255 255 255
-0.39753 0.153848  1.47868 255 255 255
  0.381838 -0.0265319    1.82513 255 255 255
-0.100184  0.131862   1.66694 255 255 255
-0.0381047    0.11822    1.69848 255 255 255
  0.387543 0.00280714    1.82456 255 255 255
 0.413594 -0.157364   1.82531 255 255 255
  0.139924 0.00463989    1.77172 255 255 255
0.152018 0.109996  1.76173 255 255 255
-0.326592  0.221319   1.50514 255 255 255
-0.104505 0.0722426   1.67739 255 255 255
 -0.530532 -0.0406186    1.41684 255 255 255
-0.286356 -0.168779   1.59674 255 255 255
 -0.555533 -0.0217828    1.39678 255 255 255
-0.0492833   0.150672    1.68575 255 255 255
-0.340697   0.20768    1.5015 255 255 255
  0.13565 -0.369146   1.74709 255 255 255
-0.106777  0.219604   1.64268 255 255 255
-0.515893 -0.106328    1.4378 255 255 255
0.110596 0.128747  1.75227 255 255 255
-0.492446   0.15447   1.40676 255 255 255
-0.172953  0.172881   1.61758 255 255 255
-0.61052 0.126621  1.30253 255 255 255
 0.323485 0.0223304   1.81183 255 255 255
-0.221989  0.226447   1.57586 255 255 255
-0.152283  0.193032   1.62751 255 255 255
-0.199305  0.225857   1.58481 255 255 255
-0.432845  0.170514   1.44483 255 255 255
-0.105021  0.208296   1.64627 255 255 255
0.0694459 0.0129859   1.75636 255 255 255
0.0748705 0.0155323   1.74617 255 255 255
 0.106719 -0.277898   1.75182 255 255 255
-0.536085  0.197056   1.35153 255 255 255
 0.354709 -0.361385   1.79401 255 255 255
 -0.38318 0.0442488   1.51731 255 255 255
  0.183733 -0.0865187    1.78548 255 255 255
 0.441783 -0.371913   1.80342 255 255 255
-0.253627  0.195681   1.56531 255 255 255
-0.430496 -0.327969   1.51354 255 255 255
0.0571435   0.13871   1.73354 255 255 255
  0.361714 -0.0635444    1.81733 255 255 255
0.0485386 0.0253559    1.7421 255 255 255
-0.362831 0.0173122   1.53749 255 255 255
0.00995742  -0.011975    1.73182 255 255 255
-0.49447 0.212642   1.3777 255 255 255
 0.388207 -0.160661   1.81962 255 255 255
0.169712 0.024704  1.77667 255 255 255
  -0.44999 -0.0357995    1.47874 255 255 255
 0.191579 0.0668263     1.778 255 255 255
   0.258919 -0.00421227     1.79907 255 255 255
-0.102637  0.198258   1.64563 255 255 255
0.0349866  -0.37127   1.68843 255 255 255
-0.105001  0.088209   1.67385 255 255 255
 0.141644 -0.245879   1.76395 255 255 255
-0.341984  0.188866   1.50878 255 255 255
 -0.117008 0.00591864    1.67773 255 255 255
0.0643518 0.0967655    1.7488 255 255 255
 0.196142 -0.103546   1.80953 255 255 255
 0.290632 -0.277066   1.78788 255 255 255
  0.10466 -0.246733   1.76648 255 255 255
 -0.33554 0.0551352   1.55328 255 255 255
-0.347227  0.167678   1.50975 255 255 255
 -0.10291 -0.171437   1.68903 255 255 255
  0.111326 -0.0253068    1.76514 255 255 255
-0.505742 -0.111429   1.44275 255 255 255
 0.226196 -0.253278   1.77981 255 255 255
 -0.253759 -0.0958186     1.6111 255 255 255
-0.0965618 0.00333265    1.68928 255 255 255
-0.385668  0.111207   1.49945 255 255 255
  0.113501 -0.0581286    1.76431 255 255 255
-0.358244   0.23775   1.48129 255 255 255
 0.313112 0.0189113   1.80669 255 255 255
   0.112212 -0.00903623     1.77369 255 255 255
0.0534818 -0.278582   1.73817 255 255 255
  0.390776 -0.0423139    1.82528 255 255 255
-0.404553  0.190695   1.45801 255 255 255
 0.277722 -0.224432   1.79147 255 255 255
-0.312852  0.113872   1.54247 255 255 255
-0.352717 -0.178528   1.55784 255 255 255
-0.197324  0.160366   1.60983 255 255 255
 0.119871 0.0590779   1.76018 255 255 255
 -0.22694 0.0244862   1.62531 255 255 255
-0.108566 -0.155075   1.68412 255 255 255
-0.283897 0.0398803   1.59019 255 255 255
-0.125605 0.0729444   1.67074 255 255 255
-0.48954 0.141655   1.4085 255 255 255
 0.400725 -0.379726   1.80008 255 255 255
-0.609841 0.0690811   1.31705 255 255 255
-0.0612991  0.0756906    1.70003 255 255 255
-0.252354  -0.14785   1.61416 255 255 255
-0.137967  -0.13568   1.66812 255 255 255
  -0.55648 -0.0341828    1.39404 255 255 255
 -0.161039 -0.0937808    1.66523 255 255 255
-0.163384  0.174162   1.62553 255 255 255
  0.172441 -0.0648109    1.79811 255 255 255
-0.0846201   0.216166    1.65449 255 255 255
-0.416414  0.136314    1.4666 255 255 255
-0.590624  0.184501   1.31153 255 255 255
-0.383317 0.0557864   1.51397 255 255 255
-0.39597 0.170857  1.47261 255 255 255
-0.452201  0.134492   1.44322 255 255 255
-0.105014 0.0171455   1.67812 255 255 255
-0.0819533  0.0945322     1.6837 255 255 255
0.0629575 0.0510345   1.74634 255 255 255
-0.365133 0.0285675   1.53651 255 255 255
  0.30993 -0.017343   1.80829 255 255 255
-0.0653866   0.118268    1.68639 255 255 255
-0.463745  0.129811   1.43203 255 255 255
 0.0699968 -0.0544003    1.75292 255 255 255
 0.286655 -0.112957   1.80372 255 255 255
 -0.553554 -0.0667769    1.40662 255 255 255
-0.148353   0.11966   1.65032 255 255 255
 -0.52899 -0.290572   1.45143 255 255 255
-0.368117  0.234883   1.47792 255 255 255
 0.397115 0.0115748   1.82467 255 255 255
-0.289815 -0.235743   1.59107 255 255 255
-0.0199419   0.168412    1.69685 255 255 255
0.141324 -0.38105  1.74697 255 255 255
-0.24833 0.112282  1.59722 255 255 255
-0.00113857    0.107824       1.701 255 255 255
   0.1439 -0.119701   1.77299 255 255 255
-0.360371 0.0694186   1.53203 255 255 255
0.194771 0.126461  1.76918 255 255 255
-0.125415 -0.321679   1.66922 255 255 255
-0.507753  0.227285    1.3822 255 255 255
-0.267453  0.129394   1.57811 255 255 255
-0.0300529  0.0016449    1.70763 255 255 255
-0.248937 -0.105249   1.61658 255 255 255
-0.340349  0.239035   1.48636 255 255 255
-0.562906 -0.245555   1.42973 255 255 255
-0.282756 0.0976994   1.57852 255 255 255
   0.19567 -0.0752619    1.80756 255 255 255
   0.348575 -0.00442215     1.81783 255 255 255
 0.128962 -0.284922    1.7554 255 255 255
 -0.3783 0.135349  1.50078 255 255 255
-0.560259 -0.234211   1.42006 255 255 255
-0.0142982  -0.285071    1.70114 255 255 255
 -0.33841 0.0934918   1.53781 255 255 255
-0.608617  0.143547   1.29996 255 255 255
 0.0758662 -0.0238979    1.75498 255 255 255
-0.339039  0.229542    1.4928 255 255 255
-0.234832  -0.10368   1.62225 255 255 255
-0.510628  0.117068   1.39557 255 255 255
 0.312774 -0.096049   1.80691 255 255 255
-0.478627  0.223971    1.3849 255 255 255
  0.379252 0.00273842    1.82203 255 255 255
-0.0913811    0.12172    1.67655 255 255 255
-0.471464 0.0324356   1.45088 255 255 255
-0.418303  0.188083   1.44683 255 255 255
-0.428692  0.156378   1.45114 255 255 255
-0.219644 -0.164838     1.624 255 255 255
  0.120336 -0.0667109    1.76761 255 255 255
 0.161668 -0.321873   1.75962 255 255 255
   0.18617 0.00658684    1.78365 255 255 255
-0.517127  0.154666   1.38784 255 255 255
-0.203302 0.0834448   1.63004 255 255 255
0.0870141 -0.338465   1.73368 255 255 255
-0.219906 -0.225356   1.62789 255 255 255
 0.373416 -0.376143   1.79149 255 255 255
-0.472924  0.219297   1.38919 255 255 255
-0.101067  0.193962   1.65046 255 255 255
 0.408727 -0.120186   1.82691 255 255 255
-0.461525  0.162792    1.4233 255 255 255
-0.147779 0.0730024   1.65689 255 255 255
-0.290979 -0.210942   1.59486 255 255 255
-0.0689355   0.144143    1.67991 255 255 255
 0.0119772 0.00496979    1.73252 255 255 255
-0.335016  0.237608   1.49095 255 255 255
 0.380188 -0.102893   1.82414 255 255 255
-0.197801 0.0924116   1.62441 255 255 255
-0.329254 -0.346328   1.57046 255 255 255
-0.291355  0.119763    1.5644 255 255 255
-0.673453  0.103511   1.22856 255 255 255
-0.571069 0.0696504   1.35492 255 255 255
-0.578996  0.179313   1.32125 255 255 255
  0.205659 -0.0313854     1.8062 255 255 255
 0.199105 -0.233232   1.77446 255 255 255
 0.393948 -0.350268   1.79891 255 255 255
-0.344045  0.197854   1.50275 255 255 255
0.0390916 0.0487473   1.73933 255 255 255
-0.394196  0.203684   1.45968 255 255 255
  -0.22688 -0.0736161    1.62812 255 255 255
-0.299335 -0.357095   1.59551 255 255 255
0.0016341  0.169025   1.70699 255 255 255
-0.227631  0.158083   1.59904 255 255 255
-0.410757 0.0586096   1.49213 255 255 255
   0.40026 -0.0178981    1.82657 255 255 255
-0.421878 0.0426068   1.48622 255 255 255
0.0494168 0.0809211   1.73752 255 255 255
-0.370867  0.214807   1.47954 255 255 255
-0.396868 -0.339383   1.52838 255 255 255
 -0.495691 -0.0300525    1.43969 255 255 255
 -0.306015 0.00385649    1.57983 255 255 255
-0.509096  0.146515   1.39952 255 255 255
 -0.558128 -0.0572057    1.39681 255 255 255
-0.294794 0.0961499   1.57127 255 255 255
-0.167598 0.0315397   1.65265 255 255 255
0.195157 0.106532   1.7734 255 255 255
-0.154636 -0.163607   1.66659 255 255 255
-0.384525 0.0895898   1.50771 255 255 255
-0.210323  0.223201     1.583 255 255 255
-0.384361  0.137377   1.49272 255 255 255
  0.374073 -0.0832053    1.82169 255 255 255
-0.0958317   0.130521     1.6744 255 255 255
-0.667138  0.136382   1.23272 255 255 255
 0.0417929 -0.0561831    1.74759 255 255 255
-0.37399  0.15036   1.5012 255 255 255
-0.386748  0.167761   1.48387 255 255 255
-0.129788 -0.124139   1.67848 255 255 255
 0.0772694 -0.0382894    1.75596 255 255 255
-0.0740746  -0.057053    1.69937 255 255 255
 0.435854 -0.360008   1.80368 255 255 255
-0.548914 0.0638667   1.37715 255 255 255
-0.130162  0.199114   1.63735 255 255 255
-0.0234801  -0.135239    1.71853 255 255 255
-0.654542  0.114164   1.25412 255 255 255
-0.413939  0.147043   1.46681 255 255 255
  0.315821 -0.0224885    1.80863 255 255 255
 0.391923 0.0171123   1.82572 255 255 255
-0.566271 -0.160896   1.40764 255 255 255
-0.0048283  0.0832236    1.71665 255 255 255
-0.138763  0.121589   1.65344 255 255 255
-0.363605 -0.267585   1.55016 255 255 255
 0.167642 -0.332345   1.76088 255 255 255
-0.389911 0.0369273   1.51625 255 255 255
 -0.44937 0.0238959   1.47057 255 255 255
-0.557751 -0.289926   1.43706 255 255 255
0.243479 -0.34422  1.77447 255 255 255
-0.406964 -0.106896   1.51644 255 255 255
-0.401244  0.199749   1.45741 255 255 255
-0.498873  0.123816   1.40507 255 255 255
-0.193195  0.145833   1.61788 255 255 255
0.0393659 0.0572562   1.73997 255 255 255
-0.277543  0.127113   1.57373 255 255 255
-0.49223  0.13116  1.40932 255 255 255
-0.550635   0.17757   1.35147 255 255 255
-0.190955 0.0920817   1.63231 255 255 255
-0.381432  0.132244    1.4975 255 255 255
-0.442634  0.159227   1.43976 255 255 255
-0.546651   0.18325   1.35382 255 255 255
-0.171549 -0.271892   1.61102 255 255 255
-0.319616 0.0514789   1.56215 255 255 255
 0.336718 -0.291595   1.79289 255 255 255
-0.519752  0.214822    1.3523 255 255 255
-0.501081  0.225021   1.39181 255 255 255
-0.0825074   0.158328    1.67052 255 255 255
-0.454866  0.231179   1.40155 255 255 255
 0.232031 -0.142292   1.79237 255 255 255
 -0.20428 0.0748905   1.62942 255 255 255
0.187984 0.110427  1.77302 255 255 255
 0.102675 -0.366011   1.74209 255 255 255
-0.122997  0.218475   1.62944 255 255 255
  0.406952 -0.0948575    1.82612 255 255 255
-0.0361331  -0.131992    1.71732 255 255 255
  0.142383 -0.0590113    1.79097 255 255 255
 0.196394 -0.133186   1.80806 255 255 255
0.0417394  0.154176   1.72277 255 255 255
-0.000446126   -0.0966871      1.72834 255 255 255
-0.466611   0.17248   1.41471 255 255 255
-0.0402357   0.137341    1.69295 255 255 255
 -0.329611 -0.0641219    1.56688 255 255 255
-0.681646   0.22268   1.21465 255 255 255
-0.371209  0.166467   1.49502 255 255 255
0.0671474   0.16815   1.72705 255 255 255
0.00832883   0.163957    1.70435 255 255 255
 0.193374 -0.329514   1.76521 255 255 255
-0.416821 -0.314972   1.51855 255 255 255
-0.551987 -0.151722   1.41579 255 255 255
 0.276812 -0.262525   1.78566 255 255 255
0.0358216 -0.237953   1.73247 255 255 255
-0.372214  0.157963   1.49737 255 255 255
-0.365855  0.147554   1.50437 255 255 255
-0.459161  0.144164   1.43091 255 255 255
-0.254911 -0.181219   1.61271 255 255 255
 -0.167225 -0.0175316    1.65812 255 255 255
-0.443229  0.174198   1.43216 255 255 255
-0.239967 -0.214311   1.62026 255 255 255
-0.0746828  0.0893619     1.6847 255 255 255
-0.404173  0.179935   1.46207 255 255 255
-0.0811963   0.179656    1.66299 255 255 255
-0.262583 -0.180658    1.6118 255 255 255
  0.394891 -0.0865474    1.82347 255 255 255
-0.504941 -0.304893   1.46369 255 255 255
-0.314537  0.215637   1.51768 255 255 255
  0.0890409 -0.00400462      1.7596 255 255 255
-0.0475462 -0.0487511    1.71174 255 255 255
-0.417608  0.158055   1.46067 255 255 255
-0.389744  0.220867   1.45675 255 255 255
-0.454702  0.170078   1.42433 255 255 255
-0.626859 0.0491721   1.29612 255 255 255
-0.172486 -0.214784   1.65391 255 255 255
-0.387969  0.159887   1.48348 255 255 255
-0.439482  0.130488   1.45125 255 255 255
-0.209162  0.213018   1.58928 255 255 255
-0.487587  0.214952   1.38206 255 255 255
-0.422214  0.180868   1.44798 255 255 255
-0.446071  0.119675   1.45026 255 255 255
-0.36801 0.191838  1.48802 255 255 255
 0.281625 -0.388167    1.7731 255 255 255
-0.34451   -0.226  1.56284 255 255 255
-0.0612475   0.153491    1.67743 255 255 255
-0.294118  -0.27574   1.59009 255 255 255
 0.117926 -0.124342   1.76499 255 255 255
-0.485369 0.0193948   1.44159 255 255 255
-0.452961 0.0172988    1.4692 255 255 255
-0.126061 -0.109924   1.68134 255 255 255
-0.0275068  -0.266011    1.71107 255 255 255
 0.108583 0.0208956   1.75935 255 255 255
 -0.203511 -0.0153881    1.64271 255 255 255
-0.0776694  -0.347381    1.68523 255 255 255
-0.320237  0.240627   1.50169 255 255 255
-0.311993 -0.208327   1.58331 255 255 255
 0.193646 -0.392268   1.75964 255 255 255
 -0.540862 -0.0310096    1.40223 255 255 255
-0.53439 0.163937  1.36927 255 255 255
-0.567796  0.184778     1.332 255 255 255
-0.504102  0.146318   1.39148 255 255 255
 0.190135 -0.170104   1.79795 255 255 255
 0.413975 -0.190034   1.82195 255 255 255
-0.633042  0.164265   1.27266 255 255 255
 0.275851 -0.290401   1.78592 255 255 255
  0.383621 -0.0772866    1.82236 255 255 255
 0.278479 -0.273146   1.78658 255 255 255
-0.586712  0.177697   1.31701 255 255 255
-0.540173  0.210514   1.35177 255 255 255
-0.573257  0.198561    1.3215 255 255 255
-0.487215  0.198444    1.4104 255 255 255
  0.323824 -0.0999357    1.80673 255 255 255
0.121403 -0.10124  1.76944 255 255 255
 0.279491 -0.117501   1.80358 255 255 255
-0.546651   0.18325   1.35382 255 255 255
  0.19835 -0.142537   1.80916 255 255 255
-0.123286 -0.218134   1.64927 255 255 255
0.0759789 -0.181834   1.75978 255 255 255
-0.38672 0.202869  1.46877 255 255 255
-0.323788  0.204117   1.50016 255 255 255
   0.112212 -0.00903623     1.77369 255 255 255
   0.23215 -0.0243173     1.8123 255 255 255
-0.624871  0.213537   1.26167 255 255 255
-0.673772  0.230068    1.2202 255 255 255
-0.650352  0.106696   1.26307 255 255 255
-0.494519  0.142888   1.41206 255 255 255
0.0735912 -0.256185   1.75217 255 255 255
-0.0759356 -0.0954573    1.68897 255 255 255
-0.501444   0.23467   1.38313 255 255 255
-0.466082  0.190085   1.43027 255 255 255
-0.573174 0.0886705   1.35376 255 255 255
-0.599323  0.215275   1.28999 255 255 255
  0.0956046 -0.00632533     1.76697 255 255 255
0.0383183 -0.247581   1.73792 255 255 255
-0.414578  0.183689   1.47004 255 255 255
  0.213573 -0.0864595    1.81348 255 255 255
-0.063423 -0.118788   1.69217 255 255 255
-0.482196  0.132858   1.42449 255 255 255
0.0425258 -0.121886   1.75337 255 255 255
-0.0682958  -0.129584    1.69857 255 255 255
-0.190589 -0.166461   1.64668 255 255 255
