<?xml version="1.0" standalone="yes"?>
<!-- SVG graphic -->
<svg xmlns='http://www.w3.org/2000/svg' xmlns:xlink='http://www.w3.org/1999/xlink'
 version="1.1">
<rect x="0" y="3.96432" width="6" height="196.036" stroke="black" stroke-width="1" fill="blue" tooltip="enable"><title>(0,989)</title></rect><rect x="6" y="0" width="6" height="200" stroke="black" stroke-width="1" fill="blue" tooltip="enable"><title>(0.0390054,1009)</title></rect><rect x="12" y="13.6769" width="6" height="186.323" stroke="black" stroke-width="1" fill="blue" tooltip="enable"><title>(0.0780108,940)</title></rect><rect x="18" y="32.9039" width="6" height="167.096" stroke="black" stroke-width="1" fill="blue" tooltip="enable"><title>(0.117016,843)</title></rect><rect x="24" y="37.6611" width="6" height="162.339" stroke="black" stroke-width="1" fill="blue" tooltip="enable"><title>(0.156022,819)</title></rect><rect x="30" y="48.5629" width="6" height="151.437" stroke="black" stroke-width="1" fill="blue" tooltip="enable"><title>(0.195027,764)</title></rect><rect x="36" y="41.2289" width="6" height="158.771" stroke="black" stroke-width="1" fill="blue" tooltip="enable"><title>(0.234032,801)</title></rect><rect x="42" y="57.8791" width="6" height="142.121" stroke="black" stroke-width="1" fill="blue" tooltip="enable"><title>(0.273038,717)</title></rect><rect x="48" y="60.2577" width="6" height="139.742" stroke="black" stroke-width="1" fill="blue" tooltip="enable"><title>(0.312043,705)</title></rect><rect x="54" y="62.6363" width="6" height="137.364" stroke="black" stroke-width="1" fill="blue" tooltip="enable"><title>(0.351048,693)</title></rect><rect x="60" y="67.1953" width="6" height="132.805" stroke="black" stroke-width="1" fill="blue" tooltip="enable"><title>(0.390054,670)</title></rect><rect x="66" y="72.5471" width="6" height="127.453" stroke="black" stroke-width="1" fill="blue" tooltip="enable"><title>(0.429059,643)</title></rect><rect x="72" y="86.0258" width="6" height="113.974" stroke="black" stroke-width="1" fill="blue" tooltip="enable"><title>(0.468065,575)</title></rect><rect x="78" y="87.4133" width="6" height="112.587" stroke="black" stroke-width="1" fill="blue" tooltip="enable"><title>(0.50707,568)</title></rect><rect x="84" y="86.0258" width="6" height="113.974" stroke="black" stroke-width="1" fill="blue" tooltip="enable"><title>(0.546075,575)</title></rect><rect x="90" y="87.2151" width="6" height="112.785" stroke="black" stroke-width="1" fill="blue" tooltip="enable"><title>(0.585081,569)</title></rect><rect x="96" y="102.874" width="6" height="97.1259" stroke="black" stroke-width="1" fill="blue" tooltip="enable"><title>(0.624086,490)</title></rect><rect x="102" y="106.838" width="6" height="93.1615" stroke="black" stroke-width="1" fill="blue" tooltip="enable"><title>(0.663091,470)</title></rect><rect x="108" y="106.244" width="6" height="93.7562" stroke="black" stroke-width="1" fill="blue" tooltip="enable"><title>(0.702097,473)</title></rect><rect x="114" y="115.362" width="6" height="84.6383" stroke="black" stroke-width="1" fill="blue" tooltip="enable"><title>(0.741102,427)</title></rect><rect x="120" y="116.947" width="6" height="83.0525" stroke="black" stroke-width="1" fill="blue" tooltip="enable"><title>(0.780108,419)</title></rect><rect x="126" y="113.578" width="6" height="86.4222" stroke="black" stroke-width="1" fill="blue" tooltip="enable"><title>(0.819113,436)</title></rect><rect x="132" y="130.624" width="6" height="69.3756" stroke="black" stroke-width="1" fill="blue" tooltip="enable"><title>(0.858118,350)</title></rect><rect x="138" y="122.299" width="6" height="77.7007" stroke="black" stroke-width="1" fill="blue" tooltip="enable"><title>(0.897124,392)</title></rect><rect x="144" y="134.39" width="6" height="65.6095" stroke="black" stroke-width="1" fill="blue" tooltip="enable"><title>(0.936129,331)</title></rect><rect x="150" y="140.535" width="6" height="59.4648" stroke="black" stroke-width="1" fill="blue" tooltip="enable"><title>(0.975134,300)</title></rect><rect x="156" y="146.68" width="6" height="53.3201" stroke="black" stroke-width="1" fill="blue" tooltip="enable"><title>(1.01414,269)</title></rect><rect x="162" y="145.887" width="6" height="54.113" stroke="black" stroke-width="1" fill="blue" tooltip="enable"><title>(1.05315,273)</title></rect><rect x="168" y="147.076" width="6" height="52.9237" stroke="black" stroke-width="1" fill="blue" tooltip="enable"><title>(1.09215,267)</title></rect><rect x="174" y="157.978" width="6" height="42.0218" stroke="black" stroke-width="1" fill="blue" tooltip="enable"><title>(1.13116,212)</title></rect><rect x="180" y="163.132" width="6" height="36.8682" stroke="black" stroke-width="1" fill="blue" tooltip="enable"><title>(1.17016,186)</title></rect><rect x="186" y="161.348" width="6" height="38.6521" stroke="black" stroke-width="1" fill="blue" tooltip="enable"><title>(1.20917,195)</title></rect><rect x="192" y="156.987" width="6" height="43.0129" stroke="black" stroke-width="1" fill="blue" tooltip="enable"><title>(1.24817,217)</title></rect><rect x="198" y="162.537" width="6" height="37.4628" stroke="black" stroke-width="1" fill="blue" tooltip="enable"><title>(1.28718,189)</title></rect><rect x="204" y="166.105" width="6" height="33.8949" stroke="black" stroke-width="1" fill="blue" tooltip="enable"><title>(1.32618,171)</title></rect><rect x="210" y="167.294" width="6" height="32.7056" stroke="black" stroke-width="1" fill="blue" tooltip="enable"><title>(1.36519,165)</title></rect><rect x="216" y="167.096" width="6" height="32.9039" stroke="black" stroke-width="1" fill="blue" tooltip="enable"><title>(1.40419,166)</title></rect><rect x="222" y="170.862" width="6" height="29.1378" stroke="black" stroke-width="1" fill="blue" tooltip="enable"><title>(1.4432,147)</title></rect><rect x="228" y="166.7" width="6" height="33.3003" stroke="black" stroke-width="1" fill="blue" tooltip="enable"><title>(1.4822,168)</title></rect><rect x="234" y="171.457" width="6" height="28.5431" stroke="black" stroke-width="1" fill="blue" tooltip="enable"><title>(1.52121,144)</title></rect><rect x="240" y="175.025" width="6" height="24.9752" stroke="black" stroke-width="1" fill="blue" tooltip="enable"><title>(1.56022,126)</title></rect><rect x="246" y="177.007" width="6" height="22.9931" stroke="black" stroke-width="1" fill="blue" tooltip="enable"><title>(1.59922,116)</title></rect><rect x="252" y="178.593" width="6" height="21.4073" stroke="black" stroke-width="1" fill="blue" tooltip="enable"><title>(1.63823,108)</title></rect><rect x="258" y="181.169" width="6" height="18.8305" stroke="black" stroke-width="1" fill="blue" tooltip="enable"><title>(1.67723,95)</title></rect><rect x="264" y="181.169" width="6" height="18.8305" stroke="black" stroke-width="1" fill="blue" tooltip="enable"><title>(1.71624,95)</title></rect><rect x="270" y="184.143" width="6" height="15.8573" stroke="black" stroke-width="1" fill="blue" tooltip="enable"><title>(1.75524,80)</title></rect><rect x="276" y="183.152" width="6" height="16.8484" stroke="black" stroke-width="1" fill="blue" tooltip="enable"><title>(1.79425,85)</title></rect><rect x="282" y="186.521" width="6" height="13.4787" stroke="black" stroke-width="1" fill="blue" tooltip="enable"><title>(1.83325,68)</title></rect><rect x="288" y="181.962" width="6" height="18.0377" stroke="black" stroke-width="1" fill="blue" tooltip="enable"><title>(1.87226,91)</title></rect><rect x="294" y="185.134" width="6" height="14.8662" stroke="black" stroke-width="1" fill="blue" tooltip="enable"><title>(1.91126,75)</title></rect><rect x="300" y="188.107" width="6" height="11.893" stroke="black" stroke-width="1" fill="blue" tooltip="enable"><title>(1.95027,60)</title></rect><rect x="306" y="185.728" width="6" height="14.2716" stroke="black" stroke-width="1" fill="blue" tooltip="enable"><title>(1.98927,72)</title></rect><rect x="312" y="187.314" width="6" height="12.6858" stroke="black" stroke-width="1" fill="blue" tooltip="enable"><title>(2.02828,64)</title></rect><rect x="318" y="186.521" width="6" height="13.4787" stroke="black" stroke-width="1" fill="blue" tooltip="enable"><title>(2.06728,68)</title></rect><rect x="324" y="189.098" width="6" height="10.9019" stroke="black" stroke-width="1" fill="blue" tooltip="enable"><title>(2.10629,55)</title></rect><rect x="330" y="189.098" width="6" height="10.9019" stroke="black" stroke-width="1" fill="blue" tooltip="enable"><title>(2.1453,55)</title></rect><rect x="336" y="186.521" width="6" height="13.4787" stroke="black" stroke-width="1" fill="blue" tooltip="enable"><title>(2.1843,68)</title></rect><rect x="342" y="192.27" width="6" height="7.73043" stroke="black" stroke-width="1" fill="blue" tooltip="enable"><title>(2.22331,39)</title></rect><rect x="348" y="190.089" width="6" height="9.9108" stroke="black" stroke-width="1" fill="blue" tooltip="enable"><title>(2.26231,50)</title></rect><rect x="354" y="191.08" width="6" height="8.91972" stroke="black" stroke-width="1" fill="blue" tooltip="enable"><title>(2.30132,45)</title></rect><rect x="360" y="192.666" width="6" height="7.33399" stroke="black" stroke-width="1" fill="blue" tooltip="enable"><title>(2.34032,37)</title></rect><rect x="366" y="193.855" width="6" height="6.1447" stroke="black" stroke-width="1" fill="blue" tooltip="enable"><title>(2.37933,31)</title></rect><rect x="372" y="191.873" width="6" height="8.12686" stroke="black" stroke-width="1" fill="blue" tooltip="enable"><title>(2.41833,41)</title></rect><rect x="378" y="192.864" width="6" height="7.13578" stroke="black" stroke-width="1" fill="blue" tooltip="enable"><title>(2.45734,36)</title></rect><rect x="384" y="196.234" width="6" height="3.7661" stroke="black" stroke-width="1" fill="blue" tooltip="enable"><title>(2.49634,19)</title></rect><rect x="390" y="195.243" width="6" height="4.75718" stroke="black" stroke-width="1" fill="blue" tooltip="enable"><title>(2.53535,24)</title></rect><rect x="396" y="195.243" width="6" height="4.75718" stroke="black" stroke-width="1" fill="blue" tooltip="enable"><title>(2.57435,24)</title></rect><rect x="402" y="195.639" width="6" height="4.36075" stroke="black" stroke-width="1" fill="blue" tooltip="enable"><title>(2.61336,22)</title></rect><rect x="408" y="193.657" width="6" height="6.34291" stroke="black" stroke-width="1" fill="blue" tooltip="enable"><title>(2.65237,32)</title></rect><rect x="414" y="194.252" width="6" height="5.74827" stroke="black" stroke-width="1" fill="blue" tooltip="enable"><title>(2.69137,29)</title></rect><rect x="420" y="195.243" width="6" height="4.75718" stroke="black" stroke-width="1" fill="blue" tooltip="enable"><title>(2.73038,24)</title></rect><rect x="426" y="196.234" width="6" height="3.7661" stroke="black" stroke-width="1" fill="blue" tooltip="enable"><title>(2.76938,19)</title></rect><rect x="432" y="195.045" width="6" height="4.9554" stroke="black" stroke-width="1" fill="blue" tooltip="enable"><title>(2.80839,25)</title></rect><rect x="438" y="197.82" width="6" height="2.18038" stroke="black" stroke-width="1" fill="blue" tooltip="enable"><title>(2.84739,11)</title></rect><rect x="444" y="196.432" width="6" height="3.56789" stroke="black" stroke-width="1" fill="blue" tooltip="enable"><title>(2.8864,18)</title></rect><rect x="450" y="195.837" width="6" height="4.16254" stroke="black" stroke-width="1" fill="blue" tooltip="enable"><title>(2.9254,21)</title></rect><rect x="456" y="197.423" width="6" height="2.57681" stroke="black" stroke-width="1" fill="blue" tooltip="enable"><title>(2.96441,13)</title></rect><rect x="462" y="196.036" width="6" height="3.96432" stroke="black" stroke-width="1" fill="blue" tooltip="enable"><title>(3.00341,20)</title></rect><rect x="468" y="198.018" width="6" height="1.98216" stroke="black" stroke-width="1" fill="blue" tooltip="enable"><title>(3.04242,10)</title></rect><rect x="474" y="198.018" width="6" height="1.98216" stroke="black" stroke-width="1" fill="blue" tooltip="enable"><title>(3.08142,10)</title></rect><rect x="480" y="197.027" width="6" height="2.97324" stroke="black" stroke-width="1" fill="blue" tooltip="enable"><title>(3.12043,15)</title></rect><rect x="486" y="198.216" width="6" height="1.78394" stroke="black" stroke-width="1" fill="blue" tooltip="enable"><title>(3.15944,9)</title></rect><rect x="492" y="198.216" width="6" height="1.78394" stroke="black" stroke-width="1" fill="blue" tooltip="enable"><title>(3.19844,9)</title></rect><rect x="498" y="197.82" width="6" height="2.18038" stroke="black" stroke-width="1" fill="blue" tooltip="enable"><title>(3.23745,11)</title></rect><rect x="504" y="198.811" width="6" height="1.1893" stroke="black" stroke-width="1" fill="blue" tooltip="enable"><title>(3.27645,6)</title></rect><rect x="510" y="198.414" width="6" height="1.58573" stroke="black" stroke-width="1" fill="blue" tooltip="enable"><title>(3.31546,8)</title></rect><rect x="516" y="198.811" width="6" height="1.1893" stroke="black" stroke-width="1" fill="blue" tooltip="enable"><title>(3.35446,6)</title></rect><rect x="522" y="198.612" width="6" height="1.38751" stroke="black" stroke-width="1" fill="blue" tooltip="enable"><title>(3.39347,7)</title></rect><rect x="528" y="199.405" width="6" height="0.594648" stroke="black" stroke-width="1" fill="blue" tooltip="enable"><title>(3.43247,3)</title></rect><rect x="534" y="198.612" width="6" height="1.38751" stroke="black" stroke-width="1" fill="blue" tooltip="enable"><title>(3.47148,7)</title></rect><rect x="540" y="198.612" width="6" height="1.38751" stroke="black" stroke-width="1" fill="blue" tooltip="enable"><title>(3.51048,7)</title></rect><rect x="546" y="199.405" width="6" height="0.594648" stroke="black" stroke-width="1" fill="blue" tooltip="enable"><title>(3.54949,3)</title></rect><rect x="552" y="199.009" width="6" height="0.99108" stroke="black" stroke-width="1" fill="blue" tooltip="enable"><title>(3.58849,5)</title></rect><rect x="558" y="199.009" width="6" height="0.99108" stroke="black" stroke-width="1" fill="blue" tooltip="enable"><title>(3.6275,5)</title></rect><rect x="564" y="199.604" width="6" height="0.396432" stroke="black" stroke-width="1" fill="blue" tooltip="enable"><title>(3.66651,2)</title></rect><rect x="570" y="199.009" width="6" height="0.99108" stroke="black" stroke-width="1" fill="blue" tooltip="enable"><title>(3.70551,5)</title></rect><rect x="576" y="199.604" width="6" height="0.396432" stroke="black" stroke-width="1" fill="blue" tooltip="enable"><title>(3.74452,2)</title></rect><rect x="582" y="200" width="6" height="0" stroke="black" stroke-width="1" fill="blue" tooltip="enable"><title>(3.78352,0)</title></rect><rect x="588" y="199.604" width="6" height="0.396432" stroke="black" stroke-width="1" fill="blue" tooltip="enable"><title>(3.82253,2)</title></rect><rect x="594" y="199.604" width="6" height="0.396432" stroke="black" stroke-width="1" fill="blue" tooltip="enable"><title>(3.86153,2)</title></rect><text x="30" y="240" font-size="20" fill="black">0</text>
<text x="600" y="240" font-size="20" fill="black">3.90054</text>
<polyline points="0,220,600,220" stroke="black" stroke-width="1" fill="none"/>
<text x="720" y="20" font-size="20" fill="black">1009</text>
<text x="720" y="200" font-size="20" fill="black">0</text>
<polyline points="660,0,660,200" stroke="black" stroke-width="1" fill="none"/>
</svg>