<?xml version="1.0" standalone="yes"?>
<!-- SVG graphic -->
<svg xmlns='http://www.w3.org/2000/svg' xmlns:xlink='http://www.w3.org/1999/xlink'
 version="1.1">
<rect x="0" y="-1.52588e-05" width="6" height="200" stroke="black" stroke-width="1" fill="blue" tooltip="enable"><title>(0,5496)</title></rect><rect x="6" y="29.1121" width="6" height="170.888" stroke="black" stroke-width="1" fill="blue" tooltip="enable"><title>(0.0396959,4696)</title></rect><rect x="12" y="47.2707" width="6" height="152.729" stroke="black" stroke-width="1" fill="blue" tooltip="enable"><title>(0.0793917,4197)</title></rect><rect x="18" y="59.5706" width="6" height="140.429" stroke="black" stroke-width="1" fill="blue" tooltip="enable"><title>(0.119088,3859)</title></rect><rect x="24" y="66.703" width="6" height="133.297" stroke="black" stroke-width="1" fill="blue" tooltip="enable"><title>(0.158783,3663)</title></rect><rect x="30" y="75.5458" width="6" height="124.454" stroke="black" stroke-width="1" fill="blue" tooltip="enable"><title>(0.198479,3420)</title></rect><rect x="36" y="89.7744" width="6" height="110.226" stroke="black" stroke-width="1" fill="blue" tooltip="enable"><title>(0.238175,3029)</title></rect><rect x="42" y="98.6172" width="6" height="101.383" stroke="black" stroke-width="1" fill="blue" tooltip="enable"><title>(0.277871,2786)</title></rect><rect x="48" y="100.509" width="6" height="99.4905" stroke="black" stroke-width="1" fill="blue" tooltip="enable"><title>(0.317567,2734)</title></rect><rect x="54" y="107.969" width="6" height="92.0306" stroke="black" stroke-width="1" fill="blue" tooltip="enable"><title>(0.357263,2529)</title></rect><rect x="60" y="116.557" width="6" height="83.4425" stroke="black" stroke-width="1" fill="blue" tooltip="enable"><title>(0.396959,2293)</title></rect><rect x="66" y="123.144" width="6" height="76.8559" stroke="black" stroke-width="1" fill="blue" tooltip="enable"><title>(0.436655,2112)</title></rect><rect x="72" y="124.527" width="6" height="75.4731" stroke="black" stroke-width="1" fill="blue" tooltip="enable"><title>(0.47635,2074)</title></rect><rect x="78" y="130.822" width="6" height="69.1776" stroke="black" stroke-width="1" fill="blue" tooltip="enable"><title>(0.516046,1901)</title></rect><rect x="84" y="136.172" width="6" height="63.8282" stroke="black" stroke-width="1" fill="blue" tooltip="enable"><title>(0.555742,1754)</title></rect><rect x="90" y="141.594" width="6" height="58.4061" stroke="black" stroke-width="1" fill="blue" tooltip="enable"><title>(0.595438,1605)</title></rect><rect x="96" y="145.815" width="6" height="54.1849" stroke="black" stroke-width="1" fill="blue" tooltip="enable"><title>(0.635134,1489)</title></rect><rect x="102" y="149.272" width="6" height="50.7278" stroke="black" stroke-width="1" fill="blue" tooltip="enable"><title>(0.67483,1394)</title></rect><rect x="108" y="153.384" width="6" height="46.6157" stroke="black" stroke-width="1" fill="blue" tooltip="enable"><title>(0.714526,1281)</title></rect><rect x="114" y="155.349" width="6" height="44.6507" stroke="black" stroke-width="1" fill="blue" tooltip="enable"><title>(0.754222,1227)</title></rect><rect x="120" y="159.098" width="6" height="40.9025" stroke="black" stroke-width="1" fill="blue" tooltip="enable"><title>(0.793918,1124)</title></rect><rect x="126" y="161.281" width="6" height="38.7191" stroke="black" stroke-width="1" fill="blue" tooltip="enable"><title>(0.833613,1064)</title></rect><rect x="132" y="163.646" width="6" height="36.3537" stroke="black" stroke-width="1" fill="blue" tooltip="enable"><title>(0.873309,999)</title></rect><rect x="138" y="165.648" width="6" height="34.3523" stroke="black" stroke-width="1" fill="blue" tooltip="enable"><title>(0.913005,944)</title></rect><rect x="144" y="168.086" width="6" height="31.9141" stroke="black" stroke-width="1" fill="blue" tooltip="enable"><title>(0.952701,877)</title></rect><rect x="150" y="170.924" width="6" height="29.0757" stroke="black" stroke-width="1" fill="blue" tooltip="enable"><title>(0.992397,799)</title></rect><rect x="156" y="172.089" width="6" height="27.9112" stroke="black" stroke-width="1" fill="blue" tooltip="enable"><title>(1.03209,767)</title></rect><rect x="162" y="175.728" width="6" height="24.2722" stroke="black" stroke-width="1" fill="blue" tooltip="enable"><title>(1.07179,667)</title></rect><rect x="168" y="176.128" width="6" height="23.8719" stroke="black" stroke-width="1" fill="blue" tooltip="enable"><title>(1.11148,656)</title></rect><rect x="174" y="176.71" width="6" height="23.2897" stroke="black" stroke-width="1" fill="blue" tooltip="enable"><title>(1.15118,640)</title></rect><rect x="180" y="178.202" width="6" height="21.7977" stroke="black" stroke-width="1" fill="blue" tooltip="enable"><title>(1.19088,599)</title></rect><rect x="186" y="181.769" width="6" height="18.2314" stroke="black" stroke-width="1" fill="blue" tooltip="enable"><title>(1.23057,501)</title></rect><rect x="192" y="182.46" width="6" height="17.54" stroke="black" stroke-width="1" fill="blue" tooltip="enable"><title>(1.27027,482)</title></rect><rect x="198" y="184.352" width="6" height="15.6477" stroke="black" stroke-width="1" fill="blue" tooltip="enable"><title>(1.30996,430)</title></rect><rect x="204" y="185.335" width="6" height="14.6652" stroke="black" stroke-width="1" fill="blue" tooltip="enable"><title>(1.34966,403)</title></rect><rect x="210" y="184.898" width="6" height="15.1019" stroke="black" stroke-width="1" fill="blue" tooltip="enable"><title>(1.38936,415)</title></rect><rect x="216" y="187.664" width="6" height="12.3362" stroke="black" stroke-width="1" fill="blue" tooltip="enable"><title>(1.42905,339)</title></rect><rect x="222" y="187.955" width="6" height="12.0451" stroke="black" stroke-width="1" fill="blue" tooltip="enable"><title>(1.46875,331)</title></rect><rect x="228" y="189.192" width="6" height="10.8079" stroke="black" stroke-width="1" fill="blue" tooltip="enable"><title>(1.50844,297)</title></rect><rect x="234" y="188.61" width="6" height="11.3901" stroke="black" stroke-width="1" fill="blue" tooltip="enable"><title>(1.54814,313)</title></rect><rect x="240" y="190.211" width="6" height="9.78894" stroke="black" stroke-width="1" fill="blue" tooltip="enable"><title>(1.58784,269)</title></rect><rect x="246" y="190.575" width="6" height="9.42504" stroke="black" stroke-width="1" fill="blue" tooltip="enable"><title>(1.62753,259)</title></rect><rect x="252" y="190.939" width="6" height="9.06114" stroke="black" stroke-width="1" fill="blue" tooltip="enable"><title>(1.66723,249)</title></rect><rect x="258" y="191.448" width="6" height="8.55167" stroke="black" stroke-width="1" fill="blue" tooltip="enable"><title>(1.70692,235)</title></rect><rect x="264" y="192.504" width="6" height="7.49636" stroke="black" stroke-width="1" fill="blue" tooltip="enable"><title>(1.74662,206)</title></rect><rect x="270" y="192.54" width="6" height="7.45997" stroke="black" stroke-width="1" fill="blue" tooltip="enable"><title>(1.78631,205)</title></rect><rect x="276" y="194.032" width="6" height="5.96798" stroke="black" stroke-width="1" fill="blue" tooltip="enable"><title>(1.82601,164)</title></rect><rect x="282" y="194.25" width="6" height="5.74964" stroke="black" stroke-width="1" fill="blue" tooltip="enable"><title>(1.86571,158)</title></rect><rect x="288" y="194.505" width="6" height="5.49491" stroke="black" stroke-width="1" fill="blue" tooltip="enable"><title>(1.9054,151)</title></rect><rect x="294" y="194.687" width="6" height="5.31295" stroke="black" stroke-width="1" fill="blue" tooltip="enable"><title>(1.9451,146)</title></rect><rect x="300" y="194.905" width="6" height="5.09461" stroke="black" stroke-width="1" fill="blue" tooltip="enable"><title>(1.98479,140)</title></rect><rect x="306" y="194.942" width="6" height="5.05822" stroke="black" stroke-width="1" fill="blue" tooltip="enable"><title>(2.02449,139)</title></rect><rect x="312" y="195.015" width="6" height="4.98544" stroke="black" stroke-width="1" fill="blue" tooltip="enable"><title>(2.06419,137)</title></rect><rect x="318" y="196.434" width="6" height="3.56623" stroke="black" stroke-width="1" fill="blue" tooltip="enable"><title>(2.10388,98)</title></rect><rect x="324" y="195.997" width="6" height="4.00291" stroke="black" stroke-width="1" fill="blue" tooltip="enable"><title>(2.14358,110)</title></rect><rect x="330" y="196.288" width="6" height="3.71179" stroke="black" stroke-width="1" fill="blue" tooltip="enable"><title>(2.18327,102)</title></rect><rect x="336" y="196.361" width="6" height="3.63901" stroke="black" stroke-width="1" fill="blue" tooltip="enable"><title>(2.22297,100)</title></rect><rect x="342" y="196.689" width="6" height="3.3115" stroke="black" stroke-width="1" fill="blue" tooltip="enable"><title>(2.26266,91)</title></rect><rect x="348" y="197.416" width="6" height="2.5837" stroke="black" stroke-width="1" fill="blue" tooltip="enable"><title>(2.30236,71)</title></rect><rect x="354" y="197.234" width="6" height="2.76565" stroke="black" stroke-width="1" fill="blue" tooltip="enable"><title>(2.34206,76)</title></rect><rect x="360" y="197.78" width="6" height="2.2198" stroke="black" stroke-width="1" fill="blue" tooltip="enable"><title>(2.38175,61)</title></rect><rect x="366" y="197.489" width="6" height="2.51092" stroke="black" stroke-width="1" fill="blue" tooltip="enable"><title>(2.42145,69)</title></rect><rect x="372" y="198.108" width="6" height="1.89229" stroke="black" stroke-width="1" fill="blue" tooltip="enable"><title>(2.46114,52)</title></rect><rect x="378" y="198.472" width="6" height="1.52838" stroke="black" stroke-width="1" fill="blue" tooltip="enable"><title>(2.50084,42)</title></rect><rect x="384" y="198.362" width="6" height="1.63755" stroke="black" stroke-width="1" fill="blue" tooltip="enable"><title>(2.54054,45)</title></rect><rect x="390" y="198.435" width="6" height="1.56477" stroke="black" stroke-width="1" fill="blue" tooltip="enable"><title>(2.58023,43)</title></rect><rect x="396" y="198.326" width="6" height="1.67394" stroke="black" stroke-width="1" fill="blue" tooltip="enable"><title>(2.61993,46)</title></rect><rect x="402" y="198.399" width="6" height="1.60116" stroke="black" stroke-width="1" fill="blue" tooltip="enable"><title>(2.65962,44)</title></rect><rect x="408" y="198.144" width="6" height="1.8559" stroke="black" stroke-width="1" fill="blue" tooltip="enable"><title>(2.69932,51)</title></rect><rect x="414" y="198.69" width="6" height="1.31004" stroke="black" stroke-width="1" fill="blue" tooltip="enable"><title>(2.73902,36)</title></rect><rect x="420" y="198.69" width="6" height="1.31004" stroke="black" stroke-width="1" fill="blue" tooltip="enable"><title>(2.77871,36)</title></rect><rect x="426" y="198.836" width="6" height="1.16448" stroke="black" stroke-width="1" fill="blue" tooltip="enable"><title>(2.81841,32)</title></rect><rect x="432" y="198.799" width="6" height="1.20087" stroke="black" stroke-width="1" fill="blue" tooltip="enable"><title>(2.8581,33)</title></rect><rect x="438" y="199.017" width="6" height="0.982533" stroke="black" stroke-width="1" fill="blue" tooltip="enable"><title>(2.8978,27)</title></rect><rect x="444" y="199.418" width="6" height="0.582242" stroke="black" stroke-width="1" fill="blue" tooltip="enable"><title>(2.93749,16)</title></rect><rect x="450" y="199.127" width="6" height="0.873362" stroke="black" stroke-width="1" fill="blue" tooltip="enable"><title>(2.97719,24)</title></rect><rect x="456" y="199.454" width="6" height="0.545852" stroke="black" stroke-width="1" fill="blue" tooltip="enable"><title>(3.01689,15)</title></rect><rect x="462" y="199.454" width="6" height="0.545852" stroke="black" stroke-width="1" fill="blue" tooltip="enable"><title>(3.05658,15)</title></rect><rect x="468" y="199.345" width="6" height="0.655022" stroke="black" stroke-width="1" fill="blue" tooltip="enable"><title>(3.09628,18)</title></rect><rect x="474" y="199.672" width="6" height="0.327511" stroke="black" stroke-width="1" fill="blue" tooltip="enable"><title>(3.13597,9)</title></rect><rect x="480" y="199.491" width="6" height="0.509461" stroke="black" stroke-width="1" fill="blue" tooltip="enable"><title>(3.17567,14)</title></rect><rect x="486" y="199.381" width="6" height="0.618632" stroke="black" stroke-width="1" fill="blue" tooltip="enable"><title>(3.21537,17)</title></rect><rect x="492" y="199.6" width="6" height="0.400291" stroke="black" stroke-width="1" fill="blue" tooltip="enable"><title>(3.25506,11)</title></rect><rect x="498" y="199.527" width="6" height="0.473071" stroke="black" stroke-width="1" fill="blue" tooltip="enable"><title>(3.29476,13)</title></rect><rect x="504" y="199.454" width="6" height="0.545852" stroke="black" stroke-width="1" fill="blue" tooltip="enable"><title>(3.33445,15)</title></rect><rect x="510" y="199.491" width="6" height="0.509461" stroke="black" stroke-width="1" fill="blue" tooltip="enable"><title>(3.37415,14)</title></rect><rect x="516" y="199.782" width="6" height="0.218341" stroke="black" stroke-width="1" fill="blue" tooltip="enable"><title>(3.41385,6)</title></rect><rect x="522" y="199.636" width="6" height="0.363901" stroke="black" stroke-width="1" fill="blue" tooltip="enable"><title>(3.45354,10)</title></rect><rect x="528" y="199.818" width="6" height="0.181951" stroke="black" stroke-width="1" fill="blue" tooltip="enable"><title>(3.49324,5)</title></rect><rect x="534" y="199.818" width="6" height="0.181951" stroke="black" stroke-width="1" fill="blue" tooltip="enable"><title>(3.53293,5)</title></rect><rect x="540" y="199.927" width="6" height="0.0727802" stroke="black" stroke-width="1" fill="blue" tooltip="enable"><title>(3.57263,2)</title></rect><rect x="546" y="199.891" width="6" height="0.10917" stroke="black" stroke-width="1" fill="blue" tooltip="enable"><title>(3.61232,3)</title></rect><rect x="552" y="199.891" width="6" height="0.10917" stroke="black" stroke-width="1" fill="blue" tooltip="enable"><title>(3.65202,3)</title></rect><rect x="558" y="199.891" width="6" height="0.10917" stroke="black" stroke-width="1" fill="blue" tooltip="enable"><title>(3.69172,3)</title></rect><rect x="564" y="199.818" width="6" height="0.181951" stroke="black" stroke-width="1" fill="blue" tooltip="enable"><title>(3.73141,5)</title></rect><rect x="570" y="199.891" width="6" height="0.10917" stroke="black" stroke-width="1" fill="blue" tooltip="enable"><title>(3.77111,3)</title></rect><rect x="576" y="199.964" width="6" height="0.0363901" stroke="black" stroke-width="1" fill="blue" tooltip="enable"><title>(3.8108,1)</title></rect><rect x="582" y="200" width="6" height="0" stroke="black" stroke-width="1" fill="blue" tooltip="enable"><title>(3.8505,0)</title></rect><rect x="588" y="200" width="6" height="0" stroke="black" stroke-width="1" fill="blue" tooltip="enable"><title>(3.8902,0)</title></rect><rect x="594" y="199.927" width="6" height="0.0727802" stroke="black" stroke-width="1" fill="blue" tooltip="enable"><title>(3.92989,2)</title></rect><text x="30" y="240" font-size="20" fill="black">0</text>
<text x="600" y="240" font-size="20" fill="black">3.96959</text>
<polyline points="0,220,600,220" stroke="black" stroke-width="1" fill="none"/>
<text x="720" y="20" font-size="20" fill="black">5496</text>
<text x="720" y="200" font-size="20" fill="black">0</text>
<polyline points="660,0,660,200" stroke="black" stroke-width="1" fill="none"/>
</svg>