<?xml version="1.0" standalone="yes"?>
<!-- SVG graphic -->
<svg xmlns='http://www.w3.org/2000/svg' xmlns:xlink='http://www.w3.org/1999/xlink'
 version="1.1">
<rect x="0" y="0" width="6" height="200" stroke="black" stroke-width="1" fill="blue" tooltip="enable"><title>(0,34208)</title></rect><rect x="6" y="65.7039" width="6" height="134.296" stroke="black" stroke-width="1" fill="blue" tooltip="enable"><title>(0.0394646,22970)</title></rect><rect x="12" y="94.4165" width="6" height="105.583" stroke="black" stroke-width="1" fill="blue" tooltip="enable"><title>(0.0789291,18059)</title></rect><rect x="18" y="115.178" width="6" height="84.8223" stroke="black" stroke-width="1" fill="blue" tooltip="enable"><title>(0.118394,14508)</title></rect><rect x="24" y="127.882" width="6" height="72.1176" stroke="black" stroke-width="1" fill="blue" tooltip="enable"><title>(0.157858,12335)</title></rect><rect x="30" y="138.196" width="6" height="61.8043" stroke="black" stroke-width="1" fill="blue" tooltip="enable"><title>(0.197323,10571)</title></rect><rect x="36" y="146.948" width="6" height="53.0519" stroke="black" stroke-width="1" fill="blue" tooltip="enable"><title>(0.236787,9074)</title></rect><rect x="42" y="153.783" width="6" height="46.2173" stroke="black" stroke-width="1" fill="blue" tooltip="enable"><title>(0.276252,7905)</title></rect><rect x="48" y="161.015" width="6" height="38.985" stroke="black" stroke-width="1" fill="blue" tooltip="enable"><title>(0.315716,6668)</title></rect><rect x="54" y="166.417" width="6" height="33.5828" stroke="black" stroke-width="1" fill="blue" tooltip="enable"><title>(0.355181,5744)</title></rect><rect x="60" y="170.779" width="6" height="29.2212" stroke="black" stroke-width="1" fill="blue" tooltip="enable"><title>(0.394646,4998)</title></rect><rect x="66" y="175.053" width="6" height="24.9474" stroke="black" stroke-width="1" fill="blue" tooltip="enable"><title>(0.43411,4267)</title></rect><rect x="72" y="178.923" width="6" height="21.0769" stroke="black" stroke-width="1" fill="blue" tooltip="enable"><title>(0.473575,3605)</title></rect><rect x="78" y="181.256" width="6" height="18.7442" stroke="black" stroke-width="1" fill="blue" tooltip="enable"><title>(0.513039,3206)</title></rect><rect x="84" y="183.711" width="6" height="16.2886" stroke="black" stroke-width="1" fill="blue" tooltip="enable"><title>(0.552504,2786)</title></rect><rect x="90" y="185.518" width="6" height="14.482" stroke="black" stroke-width="1" fill="blue" tooltip="enable"><title>(0.591968,2477)</title></rect><rect x="96" y="187.822" width="6" height="12.1784" stroke="black" stroke-width="1" fill="blue" tooltip="enable"><title>(0.631433,2083)</title></rect><rect x="102" y="189.16" width="6" height="10.8396" stroke="black" stroke-width="1" fill="blue" tooltip="enable"><title>(0.670898,1854)</title></rect><rect x="108" y="190.072" width="6" height="9.9275" stroke="black" stroke-width="1" fill="blue" tooltip="enable"><title>(0.710362,1698)</title></rect><rect x="114" y="191.452" width="6" height="8.54771" stroke="black" stroke-width="1" fill="blue" tooltip="enable"><title>(0.749827,1462)</title></rect><rect x="120" y="192.739" width="6" height="7.26146" stroke="black" stroke-width="1" fill="blue" tooltip="enable"><title>(0.789291,1242)</title></rect><rect x="126" y="193.241" width="6" height="6.75865" stroke="black" stroke-width="1" fill="blue" tooltip="enable"><title>(0.828756,1156)</title></rect><rect x="132" y="194.159" width="6" height="5.84074" stroke="black" stroke-width="1" fill="blue" tooltip="enable"><title>(0.86822,999)</title></rect><rect x="138" y="194.65" width="6" height="5.34963" stroke="black" stroke-width="1" fill="blue" tooltip="enable"><title>(0.907685,915)</title></rect><rect x="144" y="195.317" width="6" height="4.68312" stroke="black" stroke-width="1" fill="blue" tooltip="enable"><title>(0.947149,801)</title></rect><rect x="150" y="195.995" width="6" height="4.00491" stroke="black" stroke-width="1" fill="blue" tooltip="enable"><title>(0.986614,685)</title></rect><rect x="156" y="196.404" width="6" height="3.59565" stroke="black" stroke-width="1" fill="blue" tooltip="enable"><title>(1.02608,615)</title></rect><rect x="162" y="196.667" width="6" height="3.33255" stroke="black" stroke-width="1" fill="blue" tooltip="enable"><title>(1.06554,570)</title></rect><rect x="168" y="196.86" width="6" height="3.13962" stroke="black" stroke-width="1" fill="blue" tooltip="enable"><title>(1.10501,537)</title></rect><rect x="174" y="197.217" width="6" height="2.78297" stroke="black" stroke-width="1" fill="blue" tooltip="enable"><title>(1.14447,476)</title></rect><rect x="180" y="197.62" width="6" height="2.37956" stroke="black" stroke-width="1" fill="blue" tooltip="enable"><title>(1.18394,407)</title></rect><rect x="186" y="198.053" width="6" height="1.94691" stroke="black" stroke-width="1" fill="blue" tooltip="enable"><title>(1.2234,333)</title></rect><rect x="192" y="198.193" width="6" height="1.80659" stroke="black" stroke-width="1" fill="blue" tooltip="enable"><title>(1.26287,309)</title></rect><rect x="198" y="198.053" width="6" height="1.94691" stroke="black" stroke-width="1" fill="blue" tooltip="enable"><title>(1.30233,333)</title></rect><rect x="204" y="198.451" width="6" height="1.54935" stroke="black" stroke-width="1" fill="blue" tooltip="enable"><title>(1.3418,265)</title></rect><rect x="210" y="198.72" width="6" height="1.2804" stroke="black" stroke-width="1" fill="blue" tooltip="enable"><title>(1.38126,219)</title></rect><rect x="216" y="198.819" width="6" height="1.18101" stroke="black" stroke-width="1" fill="blue" tooltip="enable"><title>(1.42072,202)</title></rect><rect x="222" y="198.953" width="6" height="1.04654" stroke="black" stroke-width="1" fill="blue" tooltip="enable"><title>(1.46019,179)</title></rect><rect x="228" y="198.971" width="6" height="1.029" stroke="black" stroke-width="1" fill="blue" tooltip="enable"><title>(1.49965,176)</title></rect><rect x="234" y="199.029" width="6" height="0.970533" stroke="black" stroke-width="1" fill="blue" tooltip="enable"><title>(1.53912,166)</title></rect><rect x="240" y="199.199" width="6" height="0.800982" stroke="black" stroke-width="1" fill="blue" tooltip="enable"><title>(1.57858,137)</title></rect><rect x="246" y="199.24" width="6" height="0.760056" stroke="black" stroke-width="1" fill="blue" tooltip="enable"><title>(1.61805,130)</title></rect><rect x="252" y="199.304" width="6" height="0.695744" stroke="black" stroke-width="1" fill="blue" tooltip="enable"><title>(1.65751,119)</title></rect><rect x="258" y="199.374" width="6" height="0.625585" stroke="black" stroke-width="1" fill="blue" tooltip="enable"><title>(1.69698,107)</title></rect><rect x="264" y="199.433" width="6" height="0.567119" stroke="black" stroke-width="1" fill="blue" tooltip="enable"><title>(1.73644,97)</title></rect><rect x="270" y="199.474" width="6" height="0.526193" stroke="black" stroke-width="1" fill="blue" tooltip="enable"><title>(1.77591,90)</title></rect><rect x="276" y="199.509" width="6" height="0.491113" stroke="black" stroke-width="1" fill="blue" tooltip="enable"><title>(1.81537,84)</title></rect><rect x="282" y="199.532" width="6" height="0.467727" stroke="black" stroke-width="1" fill="blue" tooltip="enable"><title>(1.85483,80)</title></rect><rect x="288" y="199.556" width="6" height="0.44434" stroke="black" stroke-width="1" fill="blue" tooltip="enable"><title>(1.8943,76)</title></rect><rect x="294" y="199.649" width="6" height="0.350795" stroke="black" stroke-width="1" fill="blue" tooltip="enable"><title>(1.93376,60)</title></rect><rect x="300" y="199.638" width="6" height="0.362488" stroke="black" stroke-width="1" fill="blue" tooltip="enable"><title>(1.97323,62)</title></rect><rect x="306" y="199.743" width="6" height="0.25725" stroke="black" stroke-width="1" fill="blue" tooltip="enable"><title>(2.01269,44)</title></rect><rect x="312" y="199.778" width="6" height="0.22217" stroke="black" stroke-width="1" fill="blue" tooltip="enable"><title>(2.05216,38)</title></rect><rect x="318" y="199.743" width="6" height="0.25725" stroke="black" stroke-width="1" fill="blue" tooltip="enable"><title>(2.09162,44)</title></rect><rect x="324" y="199.784" width="6" height="0.216324" stroke="black" stroke-width="1" fill="blue" tooltip="enable"><title>(2.13109,37)</title></rect><rect x="330" y="199.825" width="6" height="0.175398" stroke="black" stroke-width="1" fill="blue" tooltip="enable"><title>(2.17055,30)</title></rect><rect x="336" y="199.848" width="6" height="0.152011" stroke="black" stroke-width="1" fill="blue" tooltip="enable"><title>(2.21002,26)</title></rect><rect x="342" y="199.754" width="6" height="0.245557" stroke="black" stroke-width="1" fill="blue" tooltip="enable"><title>(2.24948,42)</title></rect><rect x="348" y="199.825" width="6" height="0.175398" stroke="black" stroke-width="1" fill="blue" tooltip="enable"><title>(2.28894,30)</title></rect><rect x="354" y="199.871" width="6" height="0.128625" stroke="black" stroke-width="1" fill="blue" tooltip="enable"><title>(2.32841,22)</title></rect><rect x="360" y="199.883" width="6" height="0.116932" stroke="black" stroke-width="1" fill="blue" tooltip="enable"><title>(2.36787,20)</title></rect><rect x="366" y="199.924" width="6" height="0.0760056" stroke="black" stroke-width="1" fill="blue" tooltip="enable"><title>(2.40734,13)</title></rect><rect x="372" y="199.866" width="6" height="0.134471" stroke="black" stroke-width="1" fill="blue" tooltip="enable"><title>(2.4468,23)</title></rect><rect x="378" y="199.848" width="6" height="0.152011" stroke="black" stroke-width="1" fill="blue" tooltip="enable"><title>(2.48627,26)</title></rect><rect x="384" y="199.883" width="6" height="0.116932" stroke="black" stroke-width="1" fill="blue" tooltip="enable"><title>(2.52573,20)</title></rect><rect x="390" y="199.866" width="6" height="0.134471" stroke="black" stroke-width="1" fill="blue" tooltip="enable"><title>(2.5652,23)</title></rect><rect x="396" y="199.936" width="6" height="0.0643124" stroke="black" stroke-width="1" fill="blue" tooltip="enable"><title>(2.60466,11)</title></rect><rect x="402" y="199.901" width="6" height="0.099392" stroke="black" stroke-width="1" fill="blue" tooltip="enable"><title>(2.64413,17)</title></rect><rect x="408" y="199.953" width="6" height="0.0467727" stroke="black" stroke-width="1" fill="blue" tooltip="enable"><title>(2.68359,8)</title></rect><rect x="414" y="199.947" width="6" height="0.0526193" stroke="black" stroke-width="1" fill="blue" tooltip="enable"><title>(2.72305,9)</title></rect><rect x="420" y="199.936" width="6" height="0.0643124" stroke="black" stroke-width="1" fill="blue" tooltip="enable"><title>(2.76252,11)</title></rect><rect x="426" y="199.912" width="6" height="0.0876988" stroke="black" stroke-width="1" fill="blue" tooltip="enable"><title>(2.80198,15)</title></rect><rect x="432" y="199.947" width="6" height="0.0526193" stroke="black" stroke-width="1" fill="blue" tooltip="enable"><title>(2.84145,9)</title></rect><rect x="438" y="199.953" width="6" height="0.0467727" stroke="black" stroke-width="1" fill="blue" tooltip="enable"><title>(2.88091,8)</title></rect><rect x="444" y="199.959" width="6" height="0.0409261" stroke="black" stroke-width="1" fill="blue" tooltip="enable"><title>(2.92038,7)</title></rect><rect x="450" y="199.942" width="6" height="0.0584659" stroke="black" stroke-width="1" fill="blue" tooltip="enable"><title>(2.95984,10)</title></rect><rect x="456" y="199.971" width="6" height="0.0292329" stroke="black" stroke-width="1" fill="blue" tooltip="enable"><title>(2.99931,5)</title></rect><rect x="462" y="199.959" width="6" height="0.0409261" stroke="black" stroke-width="1" fill="blue" tooltip="enable"><title>(3.03877,7)</title></rect><rect x="468" y="199.971" width="6" height="0.0292329" stroke="black" stroke-width="1" fill="blue" tooltip="enable"><title>(3.07824,5)</title></rect><rect x="474" y="199.947" width="6" height="0.0526193" stroke="black" stroke-width="1" fill="blue" tooltip="enable"><title>(3.1177,9)</title></rect><rect x="480" y="199.982" width="6" height="0.0175398" stroke="black" stroke-width="1" fill="blue" tooltip="enable"><title>(3.15716,3)</title></rect><rect x="486" y="199.982" width="6" height="0.0175398" stroke="black" stroke-width="1" fill="blue" tooltip="enable"><title>(3.19663,3)</title></rect><rect x="492" y="199.977" width="6" height="0.0233863" stroke="black" stroke-width="1" fill="blue" tooltip="enable"><title>(3.23609,4)</title></rect><rect x="498" y="199.971" width="6" height="0.0292329" stroke="black" stroke-width="1" fill="blue" tooltip="enable"><title>(3.27556,5)</title></rect><rect x="504" y="199.977" width="6" height="0.0233863" stroke="black" stroke-width="1" fill="blue" tooltip="enable"><title>(3.31502,4)</title></rect><rect x="510" y="199.977" width="6" height="0.0233863" stroke="black" stroke-width="1" fill="blue" tooltip="enable"><title>(3.35449,4)</title></rect><rect x="516" y="199.988" width="6" height="0.0116932" stroke="black" stroke-width="1" fill="blue" tooltip="enable"><title>(3.39395,2)</title></rect><rect x="522" y="199.977" width="6" height="0.0233863" stroke="black" stroke-width="1" fill="blue" tooltip="enable"><title>(3.43342,4)</title></rect><rect x="528" y="199.971" width="6" height="0.0292329" stroke="black" stroke-width="1" fill="blue" tooltip="enable"><title>(3.47288,5)</title></rect><rect x="534" y="199.977" width="6" height="0.0233863" stroke="black" stroke-width="1" fill="blue" tooltip="enable"><title>(3.51235,4)</title></rect><rect x="540" y="199.994" width="6" height="0.00584659" stroke="black" stroke-width="1" fill="blue" tooltip="enable"><title>(3.55181,1)</title></rect><rect x="546" y="199.982" width="6" height="0.0175398" stroke="black" stroke-width="1" fill="blue" tooltip="enable"><title>(3.59127,3)</title></rect><rect x="552" y="200" width="6" height="0" stroke="black" stroke-width="1" fill="blue" tooltip="enable"><title>(3.63074,0)</title></rect><rect x="558" y="200" width="6" height="0" stroke="black" stroke-width="1" fill="blue" tooltip="enable"><title>(3.6702,0)</title></rect><rect x="564" y="199.994" width="6" height="0.00584659" stroke="black" stroke-width="1" fill="blue" tooltip="enable"><title>(3.70967,1)</title></rect><rect x="570" y="199.994" width="6" height="0.00584659" stroke="black" stroke-width="1" fill="blue" tooltip="enable"><title>(3.74913,1)</title></rect><rect x="576" y="200" width="6" height="0" stroke="black" stroke-width="1" fill="blue" tooltip="enable"><title>(3.7886,0)</title></rect><rect x="582" y="200" width="6" height="0" stroke="black" stroke-width="1" fill="blue" tooltip="enable"><title>(3.82806,0)</title></rect><rect x="588" y="199.994" width="6" height="0.00584659" stroke="black" stroke-width="1" fill="blue" tooltip="enable"><title>(3.86753,1)</title></rect><rect x="594" y="199.994" width="6" height="0.00584659" stroke="black" stroke-width="1" fill="blue" tooltip="enable"><title>(3.90699,1)</title></rect><text x="30" y="240" font-size="20" fill="black">0</text>
<text x="600" y="240" font-size="20" fill="black">3.94646</text>
<polyline points="0,220,600,220" stroke="black" stroke-width="1" fill="none"/>
<text x="720" y="20" font-size="20" fill="black">34208</text>
<text x="720" y="200" font-size="20" fill="black">0</text>
<polyline points="660,0,660,200" stroke="black" stroke-width="1" fill="none"/>
</svg>